<!-- Generated by IcoMoon.io -->
<svg version="1.1" xmlns="http://www.w3.org/2000/svg" width="31" height="32" viewBox="0 0 31 32">
<title>desarrollo</title>
<path fill="#d4af37" d="M10.556 0v0c-0.352 0-0.674 0.136-0.916 0.358-0.016 0.013-0.031 0.026-0.045 0.041-0.246 0.246-0.399 0.585-0.399 0.959v7.454c0.404-0.039 0.814-0.060 1.229-0.060v-3.887c0.042 0.007 0.086 0.011 0.131 0.011h19.523c0.045 0 0.088-0.004 0.131-0.011v15.15c0 0.035-0.015 0.067-0.039 0.091s-0.056 0.039-0.091 0.039h-6.926c0.043 0.403 0.066 0.813 0.071 1.227h6.854c0.374 0 0.715-0.153 0.961-0.398s0.399-0.585 0.399-0.959v-18.657c0-0.37-0.152-0.709-0.398-0.956l-0.001-0.001-0.001-0.001-0.001-0.001c-0.247-0.246-0.586-0.398-0.958-0.398h-19.523zM18.511 26.063c0.035-0.063 0.070-0.127 0.104-0.191l0.002-0.003c0.041-0.078 0.081-0.155 0.119-0.232 0.043-0.087 0.086-0.175 0.127-0.265 0.043-0.093 0.083-0.183 0.121-0.27l0.016-0.029c0.057-0.137 0.111-0.274 0.161-0.411s0.098-0.278 0.143-0.421l0.001-0.003c0.044-0.141 0.084-0.284 0.121-0.429s0.070-0.293 0.099-0.442c0.023-0.118 0.044-0.235 0.063-0.349s0.035-0.23 0.050-0.352l0-0.002c0.013-0.105 0.024-0.211 0.033-0.319 0.007-0.086 0.013-0.171 0.018-0.254h-2.558c-0.017 0.333-0.054 0.664-0.11 0.994-0.060 0.351-0.143 0.7-0.249 1.048-0.103 0.341-0.228 0.68-0.373 1.019-0.131 0.304-0.28 0.608-0.446 0.912l2.558 0.001zM17.734 27.242h-2.51c-0.211 0.302-0.439 0.602-0.683 0.9-0.252 0.308-0.523 0.615-0.812 0.922-0.267 0.283-0.55 0.566-0.852 0.851-0.245 0.232-0.5 0.462-0.763 0.691l0.21-0.039c0.144-0.029 0.291-0.063 0.439-0.1s0.294-0.078 0.438-0.123c0.144-0.044 0.287-0.093 0.43-0.146s0.284-0.109 0.423-0.17c0.144-0.062 0.284-0.125 0.419-0.191 0.137-0.066 0.272-0.135 0.405-0.207s0.264-0.146 0.392-0.223c0.128-0.077 0.254-0.157 0.376-0.238 0.123-0.082 0.244-0.167 0.363-0.255s0.234-0.178 0.347-0.27c0.228-0.187 0.446-0.385 0.654-0.593 0.082-0.082 0.162-0.164 0.239-0.247s0.154-0.167 0.227-0.251c0.059-0.068 0.118-0.138 0.175-0.208l0.084-0.104zM8.776 30.604c-0.265-0.23-0.52-0.461-0.764-0.692-0.299-0.283-0.582-0.565-0.849-0.849-0.289-0.307-0.56-0.614-0.812-0.922-0.245-0.298-0.472-0.599-0.683-0.9h-2.504l0.083 0.104c0.057 0.070 0.116 0.14 0.175 0.208 0.148 0.17 0.304 0.336 0.465 0.497l0.004 0.004c0.104 0.103 0.21 0.205 0.319 0.303 0.217 0.197 0.444 0.383 0.679 0.557 0.119 0.088 0.239 0.173 0.363 0.255 0.121 0.081 0.247 0.162 0.378 0.24 0.127 0.077 0.257 0.15 0.386 0.22 0.135 0.073 0.271 0.142 0.408 0.208s0.276 0.128 0.419 0.189c0.012 0.006 0.019 0.011 0.031 0.018 0.137 0.057 0.274 0.11 0.412 0.16s0.279 0.098 0.422 0.142l0.003 0.001c0.141 0.044 0.285 0.084 0.43 0.121s0.293 0.070 0.442 0.099l0.194 0.036zM2.373 26.069h2.558c-0.167-0.306-0.316-0.612-0.448-0.918-0.146-0.34-0.27-0.681-0.373-1.022-0.105-0.347-0.188-0.696-0.248-1.047-0.056-0.326-0.093-0.655-0.11-0.986h-2.557c0.005 0.083 0.012 0.168 0.019 0.254 0.010 0.11 0.021 0.217 0.033 0.322 0.015 0.121 0.031 0.238 0.049 0.351s0.039 0.229 0.062 0.348l0.002 0.010c0.029 0.145 0.063 0.291 0.1 0.439s0.079 0.293 0.123 0.436c0.045 0.143 0.093 0.287 0.146 0.43s0.109 0.283 0.169 0.42l0.003 0.006c0.036 0.086 0.075 0.173 0.116 0.261l0.002 0.004c0.039 0.084 0.080 0.17 0.124 0.257 0.041 0.083 0.082 0.162 0.122 0.238 0.035 0.067 0.071 0.132 0.107 0.197l-0-0zM1.194 20.923h2.582c0.029-0.324 0.078-0.65 0.146-0.977 0.072-0.349 0.167-0.697 0.282-1.044l0.002-0.005c0.113-0.34 0.247-0.68 0.4-1.018 0.14-0.309 0.297-0.618 0.47-0.927h-2.703c-0.037 0.066-0.073 0.131-0.107 0.196-0.041 0.076-0.081 0.155-0.122 0.238l-0.002 0.003c-0.043 0.086-0.084 0.172-0.124 0.258-0.041 0.090-0.080 0.177-0.117 0.264l-0.008 0.017-0.010 0.015c-0.057 0.136-0.11 0.273-0.161 0.41-0.051 0.139-0.099 0.279-0.142 0.421-0.044 0.142-0.085 0.287-0.122 0.433s-0.070 0.293-0.099 0.442c-0.024 0.119-0.045 0.236-0.063 0.349-0.018 0.114-0.035 0.231-0.050 0.352-0.013 0.106-0.024 0.213-0.034 0.321-0.007 0.086-0.014 0.171-0.018 0.254h0zM3.151 15.778h2.67c0.21-0.298 0.435-0.596 0.674-0.893 0.248-0.307 0.512-0.614 0.793-0.921 0.261-0.286 0.538-0.573 0.83-0.86 0.241-0.238 0.491-0.475 0.751-0.712l-0.111 0.019-0.187 0.035c-0.149 0.030-0.297 0.064-0.443 0.101-0.149 0.038-0.295 0.079-0.439 0.123s-0.287 0.093-0.43 0.146c-0.144 0.053-0.285 0.109-0.423 0.17-0.141 0.061-0.281 0.125-0.42 0.191-0.136 0.066-0.271 0.135-0.405 0.207s-0.266 0.147-0.394 0.224c-0.128 0.076-0.252 0.155-0.373 0.236-0.123 0.082-0.244 0.167-0.363 0.255s-0.234 0.178-0.347 0.27c-0.112 0.091-0.223 0.188-0.333 0.288-0.107 0.097-0.215 0.2-0.321 0.306l-0.004 0.004c-0.080 0.079-0.158 0.16-0.234 0.241-0.078 0.083-0.154 0.168-0.228 0.253-0.060 0.069-0.119 0.139-0.177 0.21l-0.087 0.108 0.001-0.001zM12.025 12.4c0.26 0.237 0.511 0.473 0.75 0.708 0.283 0.278 0.558 0.563 0.825 0.855 0.28 0.307 0.545 0.614 0.792 0.921 0.24 0.298 0.463 0.596 0.671 0.893h2.665l-0.084-0.105c-0.057-0.070-0.115-0.139-0.174-0.207-0.073-0.084-0.149-0.168-0.227-0.251-0.075-0.079-0.155-0.162-0.239-0.246-0.105-0.105-0.212-0.207-0.322-0.307s-0.221-0.196-0.332-0.287c-0.113-0.093-0.229-0.183-0.347-0.271s-0.239-0.173-0.362-0.254c-0.122-0.082-0.246-0.161-0.374-0.238-0.258-0.155-0.523-0.298-0.794-0.428-0.136-0.065-0.277-0.129-0.423-0.19-0.012-0.006-0.019-0.010-0.030-0.018-0.137-0.057-0.275-0.11-0.412-0.16-0.138-0.050-0.279-0.098-0.422-0.142l-0.003-0.001c-0.142-0.044-0.285-0.084-0.43-0.121s-0.293-0.070-0.442-0.099l-0.187-0.035-0.097-0.017-0 0zM18.51 16.951h-2.702c0.173 0.309 0.33 0.617 0.47 0.926 0.154 0.341 0.288 0.683 0.402 1.024 0.115 0.348 0.21 0.696 0.282 1.044 0.068 0.327 0.117 0.653 0.146 0.977h2.58c-0.005-0.083-0.012-0.168-0.019-0.254-0.010-0.109-0.021-0.217-0.033-0.322-0.015-0.121-0.031-0.238-0.048-0.351s-0.038-0.228-0.062-0.348l-0.002-0.010c-0.029-0.144-0.063-0.291-0.101-0.439s-0.079-0.293-0.123-0.436c-0.045-0.144-0.093-0.287-0.146-0.43s-0.109-0.282-0.168-0.417l-0.004-0.008c-0.037-0.086-0.076-0.174-0.116-0.263l-0.001-0.004c-0.040-0.086-0.081-0.172-0.124-0.256s-0.083-0.164-0.122-0.237c-0.035-0.065-0.071-0.131-0.109-0.198v-0zM8.347 11.295c0.172-0.034 0.343-0.065 0.512-0.090s0.341-0.046 0.517-0.064c0.176-0.017 0.353-0.030 0.53-0.039 0.179-0.009 0.358-0.013 0.535-0.013 0.357 0 0.711 0.017 1.063 0.052 0.176 0.017 0.349 0.039 0.52 0.064 0.169 0.025 0.341 0.055 0.515 0.090 0.166 0.032 0.332 0.070 0.498 0.111 0.164 0.041 0.328 0.087 0.491 0.137s0.322 0.104 0.48 0.162c0.157 0.058 0.314 0.12 0.47 0.186 0.019 0.006 0.030 0.011 0.047 0.022 0.15 0.065 0.299 0.133 0.447 0.204 0.153 0.074 0.302 0.15 0.446 0.228l0.004 0.002c0.148 0.080 0.294 0.164 0.437 0.25l0.004 0.002c0.146 0.087 0.288 0.178 0.427 0.27 0.136 0.090 0.27 0.184 0.403 0.282s0.264 0.2 0.392 0.305c0.129 0.106 0.256 0.215 0.38 0.328 0.127 0.115 0.25 0.231 0.367 0.348l0.005 0.005c0.116 0.115 0.231 0.234 0.342 0.356s0.219 0.247 0.325 0.376c0.104 0.126 0.206 0.257 0.305 0.392s0.196 0.272 0.288 0.41l0.002 0.003c0.094 0.14 0.183 0.28 0.268 0.419 0.086 0.143 0.171 0.29 0.252 0.439 0.080 0.146 0.156 0.296 0.23 0.448 0.075 0.155 0.146 0.31 0.212 0.464 0.068 0.158 0.132 0.318 0.192 0.48s0.115 0.325 0.167 0.492c0.051 0.165 0.098 0.33 0.14 0.495 0.042 0.164 0.080 0.332 0.115 0.503s0.065 0.341 0.090 0.511c0.025 0.169 0.047 0.342 0.064 0.519s0.030 0.353 0.039 0.529c0.009 0.179 0.013 0.358 0.013 0.535s-0.005 0.354-0.013 0.533c-0.009 0.176-0.022 0.351-0.039 0.527-0.018 0.177-0.040 0.351-0.065 0.521l-0 0.002c-0.025 0.168-0.055 0.337-0.090 0.509-0.032 0.166-0.070 0.332-0.111 0.497-0.041 0.164-0.087 0.327-0.138 0.49-0.050 0.161-0.104 0.321-0.162 0.479-0.057 0.157-0.12 0.313-0.186 0.469-0.006 0.020-0.012 0.031-0.022 0.049-0.066 0.153-0.135 0.305-0.208 0.455s-0.15 0.3-0.231 0.447c-0.080 0.147-0.164 0.293-0.251 0.436-0.086 0.142-0.175 0.282-0.268 0.422-0.090 0.136-0.185 0.271-0.284 0.405s-0.201 0.263-0.304 0.389l-0.003 0.004c-0.107 0.13-0.216 0.257-0.327 0.378l-0.004 0.004c-0.113 0.124-0.228 0.245-0.345 0.361l-0.007 0.007c-0.116 0.117-0.235 0.231-0.355 0.34s-0.246 0.218-0.376 0.324c-0.129 0.105-0.26 0.207-0.394 0.306s-0.271 0.194-0.409 0.286c-0.139 0.094-0.28 0.183-0.422 0.269-0.145 0.088-0.293 0.172-0.442 0.252-0.148 0.080-0.299 0.157-0.452 0.23-0.155 0.074-0.309 0.145-0.463 0.211-0.159 0.068-0.319 0.132-0.483 0.192s-0.326 0.115-0.491 0.166c-0.165 0.051-0.329 0.097-0.493 0.139-0.165 0.042-0.334 0.080-0.507 0.115s-0.342 0.065-0.512 0.091c-0.17 0.025-0.343 0.047-0.52 0.064-0.354 0.035-0.71 0.052-1.067 0.052-0.177 0-0.355-0.005-0.534-0.013-0.176-0.009-0.352-0.022-0.528-0.039s-0.35-0.039-0.52-0.064c-0.172-0.026-0.344-0.056-0.514-0.091-0.167-0.032-0.333-0.069-0.498-0.111-0.164-0.041-0.328-0.087-0.49-0.138-0.162-0.050-0.321-0.104-0.478-0.161-0.16-0.059-0.319-0.121-0.476-0.188-0.017-0.007-0.028-0.011-0.044-0.020-0.149-0.064-0.299-0.133-0.449-0.205s-0.298-0.148-0.444-0.227c-0.148-0.080-0.294-0.163-0.438-0.25-0.147-0.088-0.292-0.179-0.435-0.274-0.136-0.090-0.271-0.184-0.403-0.283s-0.263-0.2-0.392-0.305c-0.13-0.106-0.257-0.216-0.382-0.329-0.128-0.116-0.25-0.232-0.365-0.347l-0.006-0.006c-0.118-0.116-0.232-0.235-0.342-0.356s-0.219-0.246-0.325-0.375c-0.105-0.128-0.207-0.259-0.306-0.394-0.099-0.134-0.194-0.27-0.286-0.408-0.094-0.138-0.184-0.279-0.27-0.421-0.087-0.143-0.171-0.29-0.253-0.441-0.080-0.148-0.157-0.298-0.231-0.45-0.075-0.155-0.145-0.309-0.212-0.462-0.068-0.158-0.132-0.319-0.192-0.482-0.059-0.161-0.115-0.325-0.166-0.49-0.051-0.164-0.097-0.329-0.139-0.493-0.042-0.165-0.081-0.334-0.116-0.506-0.070-0.341-0.122-0.685-0.155-1.031-0.018-0.176-0.030-0.353-0.039-0.529-0.009-0.179-0.013-0.357-0.013-0.534 0-0.357 0.018-0.709 0.052-1.061 0.017-0.176 0.039-0.349 0.064-0.519 0.025-0.168 0.056-0.339 0.091-0.514 0.032-0.166 0.069-0.331 0.111-0.496s0.088-0.328 0.138-0.491c0.050-0.162 0.104-0.322 0.162-0.48s0.12-0.313 0.186-0.467c0.005-0.014 0.008-0.021 0.014-0.035l0.008-0.013c0.066-0.154 0.136-0.306 0.209-0.457s0.15-0.299 0.231-0.446c0.082-0.15 0.166-0.296 0.251-0.436 0.086-0.142 0.175-0.283 0.268-0.422 0.090-0.136 0.185-0.271 0.284-0.404s0.199-0.262 0.305-0.39c0.106-0.129 0.216-0.256 0.328-0.38 0.113-0.125 0.23-0.247 0.349-0.366l0.005-0.004c0.116-0.118 0.236-0.232 0.356-0.342 0.246-0.223 0.503-0.434 0.77-0.63l0.005-0.003c0.133-0.098 0.268-0.192 0.405-0.283 0.139-0.093 0.28-0.183 0.423-0.27s0.291-0.171 0.442-0.252c0.147-0.079 0.297-0.156 0.45-0.23 0.154-0.074 0.309-0.145 0.464-0.211l0.004-0.002c0.16-0.069 0.32-0.133 0.478-0.191 0.161-0.059 0.325-0.114 0.491-0.166 0.329-0.101 0.663-0.187 1-0.255l0.003-0.001v-0zM11.030 13.082v2.696h2.578c-0.163-0.207-0.331-0.411-0.503-0.61-0.207-0.239-0.425-0.479-0.655-0.72-0.232-0.243-0.476-0.487-0.732-0.731-0.22-0.21-0.449-0.421-0.689-0.634h0zM11.030 16.951v3.972h4.9c-0.032-0.305-0.084-0.612-0.155-0.921-0.077-0.332-0.178-0.666-0.301-1.001-0.126-0.344-0.277-0.689-0.452-1.035-0.17-0.337-0.364-0.675-0.579-1.014h-3.412zM11.030 22.096v3.972h3.566c0.208-0.332 0.393-0.664 0.554-0.995 0.166-0.342 0.306-0.685 0.421-1.027 0.113-0.336 0.202-0.672 0.267-1.009 0.060-0.313 0.1-0.627 0.118-0.941l-4.926-0zM11.030 27.241v2.745c0.25-0.21 0.496-0.425 0.738-0.644 0.271-0.246 0.528-0.493 0.772-0.739s0.475-0.491 0.692-0.736c0.185-0.208 0.361-0.417 0.528-0.627h-2.73zM9.854 29.987v-2.746h-2.731c0.17 0.214 0.345 0.423 0.526 0.627 0.216 0.244 0.446 0.489 0.689 0.734s0.502 0.492 0.773 0.739c0.237 0.215 0.484 0.43 0.742 0.646h0zM9.854 26.069v-3.973h-4.925c0.019 0.313 0.059 0.627 0.119 0.941 0.065 0.337 0.155 0.674 0.268 1.010 0.115 0.342 0.256 0.685 0.422 1.027 0.161 0.333 0.345 0.664 0.551 0.995l3.566-0zM9.854 20.923v-3.972h-3.412c-0.216 0.339-0.409 0.677-0.58 1.014-0.175 0.346-0.326 0.692-0.452 1.035-0.123 0.335-0.224 0.669-0.301 1.001-0.072 0.309-0.124 0.616-0.155 0.921h4.9zM9.854 15.778v-2.696c-0.239 0.212-0.468 0.423-0.687 0.633-0.25 0.239-0.495 0.483-0.733 0.733-0.224 0.234-0.442 0.475-0.655 0.72-0.176 0.204-0.343 0.407-0.503 0.61h2.578zM22.292 16.715h5.189c0.286 0 0.518 0.252 0.518 0.562s-0.232 0.562-0.518 0.562h-4.792c-0.114-0.381-0.247-0.756-0.397-1.125h-0zM20.974 14.277c0.042-0.012 0.086-0.018 0.132-0.018h6.375c0.286 0 0.518 0.252 0.518 0.562s-0.232 0.562-0.518 0.562h-5.822c-0.209-0.38-0.438-0.749-0.684-1.106l0-0zM12.38 6.282h15.557v6.078h-8.587c-1.864-1.808-4.279-3.054-6.97-3.463v-2.616l-0-0zM18.269 1.753c0.488 0 0.884 0.395 0.884 0.882s-0.396 0.882-0.884 0.882c-0.488 0-0.884-0.395-0.884-0.882s0.396-0.882 0.884-0.882zM15.179 1.753c0.488 0 0.884 0.395 0.884 0.882s-0.396 0.882-0.884 0.882c-0.488 0-0.884-0.395-0.884-0.882s0.395-0.882 0.884-0.882zM12.090 1.753c0.488 0 0.884 0.395 0.884 0.882s-0.396 0.882-0.884 0.882c-0.488 0-0.884-0.395-0.884-0.882s0.395-0.882 0.884-0.882z"></path>
</svg>
