<!-- Generated by IcoMoon.io -->
<svg version="1.1" xmlns="http://www.w3.org/2000/svg" width="33" height="32" viewBox="0 0 33 32">
<title>marketing</title>
<path fill="#d4af37" d="M23.378 17.128v-0c-1.591 1.386-2.417 3.493-2.396 5.615l-3.857 0.547c-0.377 0.058-0.642 0.454-0.591 0.885s0.397 0.733 0.774 0.675l3.845-0.546c0.193 0.906 0.548 1.783 1.075 2.572 2.038 3.055 5.858 3.644 8.531 1.314s3.188-6.694 1.15-9.749c-2.038-3.055-5.858-3.643-8.531-1.314zM17.313 0.694l0-0c-2.888 1.634-4.070 5.635-2.639 8.935 0.107 0.248 0.227 0.484 0.356 0.71l-2.788 2.808c-0.283 0.289-0.307 0.786-0.054 1.11s0.688 0.351 0.971 0.062l2.757-2.777c1.725 1.843 4.335 2.372 6.576 1.104 2.888-1.634 4.070-5.635 2.639-8.935s-4.931-4.651-7.819-3.016zM1.192 22.785c-0.609 0.316-0.79 1.106-0.679 1.95 0.051 0.384 0.161 0.775 0.316 1.148s0.356 0.717 0.593 1c0.542 0.655 1.268 0.988 2.018 0.556 0.059-0.031 0.121-0.035 0.177-0.017 0.014-0.008 0.022-0.015 0.041-0.023 0.191-0.102 0.363-0.195 0.522-0.28 0.177-0.094 0.346-0.176 0.505-0.256 0.123-0.058 0.267 0.008 0.317 0.143 0.006 0.010 0.007 0.021 0.009 0.032l0.114 0.347c0.291 0.893 0.573 1.759 0.897 2.443 0.006 0.010 0.047 0.109 0.092 0.201 0.197 0.433 0.412 0.896 0.645 1.152 0.205 0.222 0.456 0.26 0.795-0.136 0.062-0.087 0.125-0.169 0.187-0.25 0.201-0.258 0.397-0.515 0.443-0.859-0.062-0.073-0.167-0.106-0.273-0.139-0.351-0.11-0.697-0.216-0.707-1.026l0.001-0.116c0-0.238-0.004-0.358-0.020-0.405-0.008-0.026-0.067-0.072-0.179-0.16l-0.042-0.032c-0.219-0.175-0.325-0.457-0.358-0.772-0.040-0.375 0.015-0.797 0.089-1.107 0.022-0.097 0.086-0.168 0.17-0.198 2.423-0.777 3.989-0.526 5.236-0.318 0.054 0.008 0.108 0.016 0.158 0.025-1.223-1.094-2.329-2.864-3.161-4.732-0.884-1.97-1.462-4.054-1.561-5.562-0.783 1.806-2.189 4.703-6.078 7.068-0.005 0.001-0.009 0.007-0.014 0.008l-0.032 0.016c-0.041 0.023-0.046 0.018-0.054 0.031s0.001 0.011-0.010 0.040c0.001 0.005 0.003-0.012-0.034 0.082-0.026 0.065-0.069 0.11-0.118 0.14l-0.004 0.006h0zM11.351 20.785c0.081 0.677-0.356 1.987-0.713 2.066 0.787 1.29 1.69 2.374 2.634 2.954 0.053-0.003 0.096-0.004 0.144-0.011 0.085-0.019 0.163-0.053 0.245-0.132 0.167-0.258 0.248-0.629 0.261-1.084 0.030-1.401-0.622-3.49-1.529-5.457-0.908-1.972-2.070-3.804-3.055-4.693-0.362-0.324-0.69-0.516-0.951-0.519-0.068-0-0.106 0-0.124 0.014s-0.052 0.052-0.097 0.12c-0.021 0.031-0.045 0.068-0.069 0.11-0.003 0.012-0.003 0.017-0.006 0.029-0.289 1.017 0.091 3.049 0.877 5.172 0.373-0.274 2.179-0.314 2.389 1.431l-0.005 0.001 0-0zM13.314 26.356c-0.051 0.019-0.104 0.022-0.16-0.003-0.044-0.004-0.093-0.008-0.141-0.011-0.322-0.027-0.642-0.076-0.987-0.132-1.177-0.191-2.655-0.434-4.905 0.261-0.044 0.233-0.070 0.508-0.046 0.747 0.021 0.173 0.067 0.315 0.158 0.389l0.042 0.032c0.192 0.152 0.288 0.225 0.352 0.398 0.056 0.146 0.056 0.306 0.059 0.614l-0.001 0.116c0.003 0.391 0.179 0.447 0.35 0.503 0.226 0.069 0.451 0.139 0.596 0.459 0.025 0.046 0.036 0.099 0.034 0.16-0.027 0.578-0.299 0.93-0.571 1.276-0.059 0.075-0.121 0.157-0.175 0.232l-0.012 0.019c-0.595 0.717-1.076 0.616-1.486 0.172-0.294-0.318-0.524-0.823-0.744-1.291-0.019-0.041-0.039-0.082-0.091-0.195-0.332-0.71-0.621-1.597-0.919-2.511l-0.031-0.095c-0.086 0.047-0.178 0.089-0.264 0.135-0.177 0.094-0.35 0.182-0.513 0.274-0.023 0.009-0.036 0.022-0.045 0.029-0.108 0.067-0.152 0.101-0.258 0.063-0.942 0.484-1.832 0.066-2.487-0.725-0.271-0.327-0.502-0.722-0.678-1.141s-0.297-0.87-0.355-1.308c-0.135-1.044 0.099-2.030 0.871-2.482 0.029-0.082 0.048-0.123 0.094-0.18 0.050-0.063 0.096-0.087 0.185-0.145l0.032-0.016c0.005-0.001 0.009-0.007 0.009-0.007 3.998-2.426 5.279-5.436 6.010-7.151 0.203-0.479 0.366-0.858 0.542-1.123 0.086-0.129 0.153-0.212 0.252-0.271s0.207-0.082 0.358-0.078c0.378 0.007 0.797 0.239 1.241 0.639 1.040 0.935 2.248 2.833 3.182 4.866 0.94 2.038 1.618 4.223 1.585 5.724-0.012 0.581-0.127 1.074-0.374 1.427-0.008 0.012-0.016 0.025-0.030 0.032-0.163 0.169-0.327 0.25-0.502 0.283-0.062 0.010-0.123 0.019-0.181 0.023l0.004-0.006h-0zM18.19 6.609l1.589-1.69c-0.031-0.069-0.057-0.143-0.077-0.217-0-0-0-0.001-0-0.001-0.177-0.676 0.159-1.388 0.75-1.59s1.215 0.181 1.392 0.857-0.159 1.388-0.75 1.59c-0.234 0.080-0.473 0.069-0.687-0.016l-1.67 1.776c0.006 0.021 0.013 0.043 0.018 0.064 0.010 0.037 0.018 0.075 0.025 0.113l2.069 0.4c0.138-0.27 0.362-0.483 0.644-0.579 0.591-0.202 1.215 0.181 1.392 0.857s-0.159 1.388-0.75 1.59c-0.591 0.202-1.214-0.182-1.392-0.857-0.007-0.026-0.013-0.052-0.018-0.078l-2.093-0.404c-0.139 0.255-0.356 0.455-0.628 0.548-0.591 0.202-1.215-0.181-1.392-0.857s0.159-1.388 0.75-1.59c0.286-0.098 0.58-0.059 0.827 0.085v0zM28.268 20.486l1.368-0.201c0.417-0.061 0.802 0.279 0.855 0.755l0.172 1.528c0.054 0.477-0.244 0.916-0.661 0.978l-0.589 0.086c0.127 0.369 0.268 0.696 0.615 0.966-0.616-0.087-1.115-0.371-1.511-0.834l-0.102 0.015c-0.040 0.006-0.081 0.008-0.125 0.008 0.202-0.242 0.329-0.526 0.297-0.81l-0.072-0.637-0.065-0.578-0.107-0.954c-0.013-0.114-0.039-0.222-0.076-0.323l-0 0zM24.471 20.36l2.119-0.31c0.578-0.085 1.109 0.384 1.183 1.044l0.001-0v0h-0.001l0.194 1.73 0.001-0v0l-0.001 0c0.039 0.353-0.14 0.691-0.402 0.948-0.243 0.239-0.565 0.412-0.836 0.452v0.001h-0v-0.001l-0.022 0.003c-0.161 0.3-0.357 0.565-0.589 0.794-0.258 0.252-0.558 0.458-0.903 0.615l-0-0.001c-0.065 0.029-0.142 0.017-0.198-0.039-0.080-0.080-0.088-0.219-0.018-0.311 0.138-0.18 0.223-0.36 0.278-0.543 0.031-0.102 0.053-0.207 0.070-0.315l-0.414 0.061-0-0.001c-0.289 0.042-0.567-0.054-0.781-0.242s-0.365-0.471-0.403-0.802l-0.001 0v-0h0.001l-0.194-1.73h-0.001v-0l0.001-0c-0.074-0.66 0.336-1.267 0.914-1.352l-0-0.001h0v0z"></path>
</svg>
