<!-- Generated by IcoMoon.io -->
<svg version="1.1" xmlns="http://www.w3.org/2000/svg" width="69" height="32" viewBox="0 0 69 32">
<title>phi_logo_black</title>
<path d="M2.268 16.728l11.045 4.761v1.999l-13.123-6.014v-1.539l13.123-5.998v1.999l-11.045 4.792zM43.866 28.885h-1.537l8.576-22.301h1.523l-8.562 22.301zM67.215 16.664l-11.283-4.808v-1.952l13.409 5.998v1.539l-13.409 6.014v-1.968l11.283-4.824z"></path>
<path d="M30.014 31.459h-2.598v0.289h2.598v-0.289z"></path>
<path d="M27.095 0.207c-0.015 0.013-0.243 0.041-0.506 0.063-0.54 0.046-1.464 0.193-1.615 0.256-0.055 0.023-0.269 0.085-0.476 0.137-0.452 0.114-0.453 0.114-1.123 0.382-0.714 0.286-0.733 0.294-0.733 0.332 0 0.018-0.026 0.033-0.058 0.033-0.049 0-0.499 0.236-0.587 0.307-0.015 0.012-0.148 0.1-0.296 0.196s-0.333 0.229-0.411 0.296c-0.078 0.067-0.157 0.122-0.176 0.122-0.039 0-0.408 0.304-0.408 0.337 0 0.012-0.067 0.075-0.149 0.139s-0.245 0.215-0.363 0.335c-0.118 0.12-0.243 0.245-0.279 0.276s-0.108 0.115-0.159 0.186c-0.052 0.071-0.113 0.13-0.136 0.13s-0.042 0.017-0.042 0.038c0 0.042-0.338 0.52-0.428 0.606-0.031 0.029-0.056 0.072-0.056 0.094s-0.073 0.154-0.161 0.291c-0.089 0.138-0.161 0.278-0.161 0.311s-0.024 0.061-0.054 0.061-0.054 0.039-0.054 0.086c0 0.081-0.028 0.148-0.191 0.462-0.038 0.072-0.097 0.22-0.132 0.329s-0.083 0.217-0.107 0.241c-0.023 0.024-0.056 0.133-0.072 0.241s-0.056 0.306-0.089 0.438c-0.148 0.603-0.183 1.015-0.183 2.17 0.001 1.144 0.038 1.613 0.179 2.214 0.031 0.133 0.070 0.33 0.087 0.438s0.053 0.237 0.080 0.285c0.027 0.048 0.084 0.199 0.126 0.334s0.101 0.284 0.13 0.329c0.029 0.045 0.082 0.171 0.117 0.28s0.086 0.232 0.113 0.273c0.027 0.042 0.049 0.106 0.049 0.142s0.024 0.066 0.054 0.066 0.054 0.028 0.054 0.062c0 0.056 0.093 0.227 0.312 0.574 0.147 0.232 0.198 0.306 0.227 0.329 0.016 0.012 0.088 0.116 0.161 0.23s0.151 0.208 0.173 0.208c0.022 0 0.040 0.030 0.040 0.066s0.024 0.066 0.054 0.066 0.054 0.030 0.054 0.066 0.023 0.066 0.050 0.066c0.027 0 0.064 0.034 0.081 0.077s0.097 0.136 0.178 0.208c0.081 0.072 0.219 0.21 0.306 0.307 0.188 0.208 0.992 0.866 1.287 1.052 0.114 0.072 0.297 0.194 0.405 0.271 0.213 0.151 0.894 0.54 0.946 0.54 0.017 0 0.078 0.035 0.134 0.078s0.195 0.105 0.307 0.138c0.112 0.033 0.216 0.073 0.231 0.089 0.056 0.061 0.555 0.265 0.649 0.265 0.054 0 0.113 0.020 0.131 0.044s0.080 0.044 0.138 0.044c0.057 0 0.104 0.020 0.104 0.044s0.044 0.044 0.097 0.044c0.053 0 0.12 0.016 0.148 0.036s0.148 0.059 0.266 0.088c0.118 0.028 0.406 0.101 0.639 0.161s0.464 0.109 0.514 0.109c0.049 0 0.113 0.018 0.141 0.039s0.16 0.052 0.293 0.067c0.133 0.015-0.112 0.024 0.095 0.049s0.047 0.068 0.254 0.081c0.207 0.013 0.104 0.057 0.125 0.085s0.040 1.831 0.041 4.008l-0.041 7.534 1.25 0.866 1.373-0.866v-7.54c0-3.116 0.014-3.972 0.067-4.008 0.037-0.025 0.237-0.056 0.444-0.069 0.558-0.035 1.544-0.088 1.687-0.132 0.105-0.033 1.398-0.132 1.572-0.163 0.074-0.013 1.069-0.224 1.128-0.244s0.183-0.030 0.286-0.059c0.176-0.049 0.245-0.071 0.551-0.171 0.234-0.077 1.197-0.461 1.223-0.488 0.015-0.015 0.106-0.055 0.202-0.089s0.175-0.077 0.175-0.095 0.029-0.033 0.063-0.033c0.035 0 0.237-0.109 0.45-0.241s0.401-0.241 0.419-0.241c0.038 0 0.719-0.519 0.979-0.745 0.476-0.415 0.591-0.525 0.822-0.789 0.137-0.157 0.268-0.292 0.291-0.3s0.041-0.034 0.041-0.057c0-0.023 0.060-0.094 0.132-0.158s0.16-0.172 0.195-0.239c0.034-0.068 0.079-0.123 0.1-0.123s0.071-0.069 0.111-0.153c0.041-0.085 0.093-0.153 0.117-0.153s0.044-0.039 0.044-0.088 0.024-0.088 0.054-0.088c0.030 0 0.054-0.039 0.054-0.088s0.024-0.088 0.054-0.088 0.054-0.038 0.054-0.084c0-0.046 0.019-0.091 0.042-0.099s0.135-0.192 0.249-0.409c0.114-0.217 0.252-0.478 0.307-0.581s0.1-0.234 0.1-0.293c0-0.059 0.024-0.12 0.054-0.135s0.054-0.074 0.054-0.132 0.021-0.115 0.048-0.129c0.026-0.013 0.060-0.088 0.075-0.167s0.065-0.251 0.111-0.384c0.281-0.806 0.405-2.505 0.263-3.617-0.093-0.734-0.26-1.535-0.338-1.622-0.021-0.024-0.055-0.113-0.075-0.197-0.078-0.336-0.1-0.395-0.145-0.395-0.026 0-0.048-0.059-0.048-0.132s-0.028-0.176-0.062-0.23c-0.13-0.206-0.153-0.252-0.153-0.317 0-0.036-0.024-0.066-0.054-0.066s-0.054-0.022-0.054-0.049c0-0.055-0.378-0.705-0.429-0.74-0.018-0.012-0.075-0.095-0.126-0.185s-0.173-0.248-0.271-0.352c-0.098-0.104-0.2-0.221-0.227-0.258-0.171-0.238-1.461-1.397-1.555-1.397-0.016 0-0.107-0.069-0.202-0.153s-0.191-0.153-0.214-0.153-0.112-0.055-0.198-0.123c-0.087-0.067-0.226-0.151-0.309-0.186s-0.182-0.087-0.22-0.116-0.164-0.097-0.282-0.151c-0.118-0.054-0.214-0.114-0.214-0.134s-0.048-0.036-0.108-0.036c-0.059 0-0.107-0.015-0.107-0.033s-0.079-0.060-0.175-0.092c-0.096-0.032-0.277-0.096-0.403-0.142s-0.26-0.083-0.299-0.083c-0.039 0-0.094-0.019-0.123-0.043-0.282-0.23-3.601-0.404-4.507-0.277-0.62 0.087-1.49 0.345-1.551 0.461-0.010 0.019-0.064 0.034-0.121 0.034s-0.103 0.020-0.103 0.044c0 0.024-0.036 0.044-0.081 0.044s-0.081 0.015-0.081 0.034c0 0.019-0.067 0.067-0.148 0.106-0.193 0.093-0.981 0.713-0.981 0.772 0 0.025-0.021 0.052-0.047 0.060-0.055 0.017-0.489 0.574-0.592 0.76-0.040 0.072-0.094 0.166-0.121 0.208s-0.047 0.132-0.047 0.2c0 0.068-0.022 0.142-0.048 0.165s-0.062 0.121-0.079 0.217c-0.017 0.096-0.056 0.304-0.087 0.46-0.156 0.798-0.173 1.486-0.194 7.607-0.021 6.312-0.082 6.429-0.082 6.429l0.005-0.043 0.003-0.048 0.003-0.062 0.002-0.041 0.002-0.041 0.002-0.041c0 0 0.003-0.054 0.003-0.078-0.016 0-0.082-0.004-0.127-0.004s-0.123-0.018-0.175-0.041c-0.051-0.022-0.13-0.052-0.174-0.066s-0.25-0.114-0.457-0.223c-0.207-0.109-0.413-0.212-0.457-0.228s-0.108-0.050-0.141-0.076c-0.033-0.026-0.153-0.105-0.268-0.178-0.538-0.339-1.579-1.299-1.58-1.458-0-0.030-0.025-0.055-0.054-0.055s-0.054-0.030-0.054-0.066c0-0.036-0.018-0.066-0.040-0.066-0.048-0-0.175-0.213-0.175-0.293 0-0.031-0.018-0.057-0.040-0.057s-0.109-0.113-0.193-0.252c-0.084-0.139-0.175-0.286-0.202-0.328s-0.049-0.106-0.049-0.143c0-0.037-0.024-0.106-0.054-0.154s-0.078-0.126-0.108-0.174c-0.030-0.048-0.054-0.127-0.054-0.175s-0.024-0.088-0.054-0.088-0.054-0.056-0.054-0.124c0-0.068-0.018-0.139-0.040-0.157-0.041-0.033-0.246-0.698-0.34-1.1-0.252-1.077-0.344-2.859-0.225-4.362 0.080-1.015 0.181-1.571 0.416-2.302 0.243-0.754 0.254-0.783 0.451-1.173 0.064-0.126 0.136-0.272 0.191-0.384 0.018-0.036 0.093-0.145 0.167-0.241s0.177-0.249 0.227-0.34 0.111-0.164 0.134-0.164c0.023 0 0.041-0.030 0.041-0.066s0.024-0.066 0.054-0.066c0.030 0 0.054-0.019 0.054-0.043 0-0.099 0.906-0.876 1.315-1.127 0.149-0.092 0.28-0.182 0.29-0.2s0.062-0.033 0.116-0.033c0.054 0 0.107-0.015 0.116-0.034 0.029-0.054 0.805-0.361 0.914-0.361 0.055 0 0.099-0.020 0.099-0.044s0.037-0.044 0.082-0.044c0.045 0 0.178-0.025 0.296-0.054l0.214-0.054v-0.724h-0.179c-0.099 0-0.192 0.010-0.207 0.023zM32.601 2.444c0.443-0.064 1.786 0.094 1.975 0.18 0.342 0.154 0.784 0.301 0.81 0.323 0.015 0.012 0.094 0.050 0.176 0.085 0.268 0.113 1.157 0.897 1.383 1.221 0.044 0.063 0.122 0.153 0.172 0.2s0.13 0.15 0.176 0.23 0.108 0.157 0.137 0.172c0.029 0.014 0.052 0.063 0.052 0.108s0.018 0.088 0.041 0.096c0.058 0.021 0.282 0.384 0.282 0.457 0 0.034 0.024 0.062 0.054 0.062s0.054 0.040 0.054 0.088c0 0.049 0.021 0.123 0.047 0.164 0.231 0.37 0.449 0.941 0.526 1.381 0.016 0.091 0.051 0.176 0.077 0.189s0.048 0.118 0.048 0.232 0.021 0.227 0.048 0.25c0.144 0.125 0.2 3.38 0.069 4.009-0.038 0.181-0.082 0.418-0.098 0.526s-0.051 0.216-0.078 0.239c-0.027 0.023-0.049 0.106-0.049 0.184s-0.024 0.154-0.054 0.169c-0.030 0.015-0.054 0.091-0.054 0.169s-0.021 0.161-0.047 0.184c-0.026 0.023-0.089 0.15-0.141 0.283s-0.115 0.26-0.141 0.283c-0.026 0.023-0.047 0.077-0.047 0.121s-0.024 0.079-0.054 0.079c-0.029 0-0.054 0.036-0.054 0.079 0 0.098-0.12 0.315-0.175 0.315-0.022 0-0.040 0.040-0.040 0.088s-0.024 0.088-0.054 0.088c-0.029 0-0.054 0.040-0.054 0.088s-0.024 0.088-0.054 0.088c-0.029 0-0.054 0.020-0.054 0.044 0 0.038-0.348 0.464-0.429 0.526-0.016 0.012-0.1 0.099-0.186 0.194-0.223 0.244-0.947 0.815-1.034 0.815-0.040 0-0.073 0.018-0.073 0.040s-0.079 0.080-0.177 0.129c-0.097 0.049-0.248 0.139-0.336 0.201s-0.19 0.112-0.227 0.112c-0.037 0-0.067 0.020-0.067 0.044s-0.036 0.044-0.079 0.044c-0.044 0-0.158 0.036-0.255 0.080-0.426 0.193-1.392 0.35-1.617 0.403-0.133 0.031-0.817 0.107-0.846 0.122s-0.27 0.009-0.403 0.041c-0.133 0.031-0.289-0.019-0.363 0s-0.302-0.028-0.524 0c-0.222 0.028-0.437-0.063-0.524-0.041-0.114 0.030-0.332-0.002-0.363-0.041-0.061-0.079 0.054-11.632 0.116-12.468 0.092-1.234 0.367-1.924 0.529-2.005 0.009 0.064-0.006-0.042 0 0 0-0.048 0.264-0.218 0.565-0.418 0.168-0.112 0.877-0.28 1.054-0.25 0.044 0.007 0.223-0.016 0.356 0z"></path>
</svg>
