<!-- Generated by IcoMoon.io -->
<svg version="1.1" xmlns="http://www.w3.org/2000/svg" width="25" height="32" viewBox="0 0 25 32">
<title>phi_white</title>
<path fill="#fff" d="M9.513 31.613h2.605v0.256h-2.605v-0.256z"></path>
<path fill="#fff" d="M9.23 0.023c-0.015 0.013-0.244 0.041-0.508 0.064-0.541 0.046-1.468 0.194-1.62 0.258-0.055 0.023-0.27 0.086-0.478 0.138-0.453 0.115-0.454 0.116-1.126 0.386-0.716 0.288-0.734 0.297-0.734 0.335 0 0.019-0.026 0.034-0.059 0.034-0.049 0-0.501 0.238-0.588 0.31-0.015 0.012-0.148 0.101-0.296 0.198s-0.334 0.231-0.413 0.299c-0.079 0.068-0.158 0.123-0.176 0.123-0.039 0-0.409 0.307-0.409 0.34 0 0.012-0.067 0.075-0.15 0.14s-0.246 0.217-0.364 0.339c-0.118 0.122-0.244 0.247-0.28 0.278s-0.108 0.116-0.16 0.188c-0.052 0.072-0.113 0.131-0.137 0.131s-0.042 0.018-0.042 0.039c0 0.042-0.339 0.525-0.429 0.612-0.031 0.029-0.056 0.072-0.056 0.095s-0.073 0.155-0.162 0.294c-0.089 0.139-0.162 0.28-0.162 0.314s-0.024 0.062-0.054 0.062-0.054 0.039-0.054 0.086c0 0.082-0.028 0.149-0.191 0.467-0.038 0.073-0.097 0.222-0.133 0.332s-0.083 0.219-0.107 0.243c-0.024 0.024-0.056 0.134-0.072 0.243s-0.056 0.309-0.089 0.442c-0.149 0.609-0.184 1.025-0.183 2.19 0.001 1.155 0.039 1.628 0.18 2.234 0.031 0.134 0.070 0.333 0.087 0.442s0.053 0.239 0.080 0.288c0.027 0.049 0.084 0.2 0.126 0.337s0.101 0.286 0.13 0.332c0.029 0.046 0.082 0.173 0.118 0.282s0.086 0.234 0.113 0.276c0.027 0.042 0.049 0.107 0.049 0.144s0.024 0.067 0.054 0.067 0.054 0.028 0.054 0.062c0 0.057 0.093 0.229 0.313 0.579 0.147 0.234 0.199 0.309 0.227 0.332 0.016 0.012 0.088 0.117 0.162 0.232s0.152 0.21 0.174 0.21c0.022 0 0.041 0.030 0.041 0.066s0.024 0.066 0.054 0.066 0.054 0.030 0.054 0.066 0.023 0.066 0.050 0.066c0.028 0 0.064 0.035 0.081 0.077s0.097 0.137 0.179 0.21c0.082 0.073 0.22 0.212 0.307 0.31 0.189 0.21 0.995 0.874 1.29 1.062 0.115 0.073 0.297 0.196 0.406 0.274 0.214 0.152 0.897 0.545 0.948 0.545 0.017 0 0.078 0.036 0.135 0.079s0.195 0.106 0.308 0.139c0.112 0.033 0.217 0.073 0.232 0.090 0.056 0.062 0.557 0.268 0.651 0.268 0.054 0 0.113 0.020 0.131 0.044s0.080 0.044 0.138 0.044c0.058 0 0.105 0.020 0.105 0.044s0.044 0.044 0.097 0.044c0.053 0 0.12 0.016 0.148 0.037s0.148 0.060 0.267 0.089c0.119 0.029 0.407 0.102 0.64 0.163s0.465 0.11 0.515 0.11c0.050 0 0.113 0.018 0.141 0.040s0.16 0.052 0.294 0.068-0.112 0.025 0.095 0.049c0.208 0.025 0.047 0.069 0.254 0.082s0.104 0.058 0.126 0.086c0.022 0.028 0.040 1.848 0.041 4.044l-0.041 7.603 1.253 0.874 1.376-0.874v-7.609c0-3.145 0.014-4.009 0.067-4.044 0.037-0.025 0.237-0.056 0.445-0.070 0.56-0.035 1.548-0.089 1.691-0.134 0.105-0.033 1.402-0.133 1.576-0.164 0.074-0.013 1.072-0.226 1.132-0.246s0.183-0.030 0.287-0.060c0.177-0.050 0.245-0.071 0.553-0.173 0.234-0.077 1.2-0.465 1.227-0.492 0.015-0.015 0.106-0.056 0.202-0.090s0.175-0.078 0.175-0.096c0-0.018 0.029-0.033 0.064-0.033s0.238-0.11 0.451-0.243c0.213-0.134 0.402-0.243 0.42-0.243 0.038 0 0.721-0.523 0.982-0.752 0.477-0.419 0.592-0.53 0.824-0.796 0.138-0.158 0.269-0.294 0.292-0.302s0.041-0.034 0.041-0.057 0.060-0.095 0.133-0.16c0.073-0.065 0.161-0.173 0.195-0.241s0.079-0.124 0.1-0.124c0.020 0 0.071-0.070 0.111-0.155s0.094-0.155 0.118-0.155c0.024 0 0.044-0.040 0.044-0.088s0.024-0.089 0.054-0.089c0.030 0 0.054-0.040 0.054-0.088s0.024-0.088 0.054-0.088c0.030 0 0.054-0.038 0.054-0.085s0.019-0.091 0.042-0.1c0.023-0.008 0.136-0.194 0.25-0.413s0.253-0.483 0.308-0.586c0.055-0.103 0.1-0.236 0.1-0.296s0.024-0.121 0.054-0.136c0.030-0.015 0.054-0.075 0.054-0.133s0.022-0.116 0.048-0.13c0.026-0.013 0.060-0.089 0.075-0.168s0.065-0.254 0.112-0.388c0.282-0.813 0.406-2.528 0.264-3.65-0.094-0.741-0.261-1.549-0.339-1.637-0.021-0.024-0.055-0.114-0.075-0.199-0.078-0.339-0.1-0.398-0.146-0.398-0.026 0-0.048-0.060-0.048-0.133s-0.028-0.178-0.062-0.232c-0.131-0.208-0.153-0.255-0.153-0.32 0-0.037-0.024-0.067-0.054-0.067s-0.054-0.022-0.054-0.050c0-0.056-0.378-0.712-0.431-0.747-0.018-0.012-0.075-0.096-0.126-0.186s-0.173-0.25-0.271-0.356-0.2-0.223-0.228-0.261c-0.172-0.241-1.465-1.41-1.56-1.41-0.016 0-0.108-0.070-0.203-0.155s-0.192-0.155-0.215-0.155c-0.023 0-0.112-0.056-0.199-0.124s-0.226-0.153-0.309-0.188c-0.084-0.035-0.183-0.088-0.22-0.117s-0.165-0.097-0.283-0.152c-0.118-0.054-0.215-0.115-0.215-0.135s-0.048-0.036-0.108-0.036c-0.059 0-0.108-0.015-0.108-0.033s-0.079-0.060-0.175-0.093-0.278-0.097-0.404-0.144c-0.126-0.046-0.26-0.084-0.299-0.084s-0.095-0.020-0.124-0.044c-0.282-0.232-3.611-0.407-4.52-0.28-0.622 0.087-1.494 0.349-1.555 0.465-0.010 0.019-0.064 0.035-0.121 0.035s-0.103 0.020-0.103 0.044-0.036 0.044-0.081 0.044c-0.045 0-0.081 0.016-0.081 0.035s-0.067 0.067-0.149 0.107c-0.193 0.094-0.984 0.719-0.984 0.779 0 0.025-0.021 0.052-0.047 0.060-0.056 0.018-0.49 0.579-0.594 0.767-0.040 0.073-0.094 0.167-0.121 0.21s-0.048 0.133-0.048 0.201c0 0.068-0.022 0.143-0.048 0.167s-0.062 0.122-0.079 0.219c-0.017 0.097-0.056 0.306-0.087 0.465-0.156 0.805-0.174 1.5-0.195 7.677-0.021 6.37-0.082 6.488-0.082 6.488l0.005-0.044 0.003-0.048 0.003-0.062 0.002-0.041 0.002-0.041 0.002-0.041c0 0 0.003-0.054 0.003-0.078-0.016 0-0.082-0.004-0.127-0.004s-0.124-0.018-0.175-0.041c-0.052-0.023-0.13-0.052-0.175-0.066s-0.251-0.115-0.458-0.226c-0.208-0.11-0.414-0.214-0.458-0.23s-0.108-0.051-0.141-0.076-0.154-0.106-0.269-0.179c-0.54-0.343-1.583-1.311-1.585-1.471-0-0.030-0.025-0.055-0.054-0.055s-0.054-0.030-0.054-0.066c0-0.037-0.018-0.067-0.040-0.067-0.048-0-0.175-0.215-0.175-0.296 0-0.032-0.018-0.058-0.040-0.058s-0.109-0.115-0.194-0.254c-0.084-0.14-0.175-0.289-0.202-0.331s-0.049-0.107-0.049-0.144c0-0.037-0.024-0.107-0.054-0.155s-0.078-0.127-0.108-0.176c-0.030-0.048-0.054-0.128-0.054-0.177s-0.024-0.089-0.054-0.089-0.054-0.056-0.054-0.125c0-0.069-0.018-0.14-0.040-0.158-0.041-0.033-0.247-0.704-0.341-1.11-0.253-1.087-0.345-2.885-0.226-4.402 0.080-1.024 0.181-1.585 0.417-2.323 0.243-0.761 0.255-0.791 0.452-1.184 0.064-0.127 0.137-0.274 0.191-0.387 0.018-0.037 0.093-0.146 0.167-0.243s0.177-0.252 0.228-0.343 0.112-0.166 0.134-0.166c0.023 0 0.041-0.030 0.041-0.066s0.024-0.066 0.054-0.066c0.030 0 0.054-0.020 0.054-0.044 0-0.1 0.908-0.884 1.318-1.137 0.15-0.093 0.281-0.183 0.29-0.202s0.062-0.033 0.117-0.033c0.054 0 0.107-0.015 0.117-0.034 0.029-0.055 0.807-0.364 0.916-0.364 0.055 0 0.099-0.020 0.099-0.044s0.037-0.044 0.082-0.044c0.045 0 0.178-0.025 0.297-0.055l0.215-0.055v-0.731h-0.18c-0.099 0-0.192 0.010-0.208 0.023zM14.751 2.28c0.445-0.065 1.791 0.095 1.98 0.181 0.343 0.156 0.786 0.304 0.812 0.326 0.015 0.012 0.094 0.051 0.177 0.086 0.269 0.114 1.16 0.905 1.387 1.232 0.045 0.064 0.122 0.155 0.173 0.202s0.13 0.151 0.177 0.232c0.047 0.081 0.109 0.159 0.137 0.174s0.052 0.064 0.052 0.109c0 0.045 0.018 0.089 0.040 0.097 0.058 0.021 0.283 0.388 0.283 0.461 0 0.034 0.024 0.062 0.054 0.062s0.054 0.040 0.054 0.089c0 0.049 0.021 0.124 0.048 0.166 0.232 0.374 0.45 0.95 0.528 1.393 0.016 0.091 0.051 0.177 0.077 0.191s0.048 0.119 0.048 0.234c0 0.115 0.022 0.229 0.048 0.252 0.144 0.126 0.2 3.411 0.069 4.046-0.038 0.182-0.082 0.421-0.098 0.531s-0.051 0.218-0.078 0.241c-0.027 0.023-0.049 0.107-0.049 0.185s-0.024 0.156-0.054 0.171c-0.030 0.015-0.054 0.092-0.054 0.171s-0.021 0.162-0.047 0.185c-0.026 0.023-0.090 0.151-0.141 0.285s-0.115 0.262-0.141 0.285c-0.026 0.023-0.047 0.078-0.047 0.122s-0.024 0.080-0.054 0.080c-0.030 0-0.054 0.036-0.054 0.080 0 0.099-0.12 0.318-0.175 0.318-0.022 0-0.040 0.040-0.040 0.089s-0.024 0.088-0.054 0.088c-0.030 0-0.054 0.040-0.054 0.089s-0.024 0.088-0.054 0.088c-0.030 0-0.054 0.020-0.054 0.044 0 0.038-0.349 0.469-0.43 0.531-0.016 0.012-0.1 0.1-0.186 0.195-0.224 0.246-0.95 0.822-1.036 0.822-0.040 0-0.073 0.018-0.073 0.041s-0.080 0.081-0.177 0.13c-0.097 0.049-0.249 0.141-0.337 0.203s-0.19 0.113-0.227 0.113c-0.037 0-0.067 0.020-0.067 0.044s-0.036 0.044-0.079 0.044c-0.044 0-0.159 0.036-0.256 0.081-0.428 0.195-1.396 0.353-1.622 0.407-0.133 0.032-0.819 0.108-0.849 0.123s-0.271 0.009-0.404 0.041c-0.133 0.032-0.29-0.019-0.364 0s-0.303-0.028-0.525 0c-0.222 0.028-0.438-0.064-0.525-0.041-0.115 0.030-0.333-0.002-0.364-0.041-0.062-0.079 0.054-11.738 0.117-12.582 0.092-1.246 0.368-1.942 0.53-2.024 0.009 0.065-0.006-0.043 0 0 0-0.048 0.265-0.22 0.566-0.422 0.169-0.113 0.88-0.282 1.057-0.252 0.045 0.008 0.223-0.016 0.357 0z"></path>
</svg>
