<svg width="387" height="175" viewBox="0 0 387 175" fill="none" xmlns="http://www.w3.org/2000/svg">
<g filter="url(#filter0_i)">
<path d="M15.2159 91.4795L15.9247 92.1883L17.3424 92.8971L75.9649 117.784C75.9649 117.784 79.2991 125.653 75.9649 128.768C72.6307 131.882 3.30504 96.7707 3.87394 95.7294C-0.0124376 92.9087 -0.379851 90.1566 3.87394 87.274C8.12773 84.3913 73.3395 51.7856 75.9649 54.323C78.5902 56.8604 75.9649 65.3068 75.9649 65.3068L17.3424 90.0618L15.9247 90.7707L15.2159 91.4795ZM243.804 158.416C243.804 158.416 234.35 165.102 235.358 158.416C236.367 151.729 282.47 35.9105 282.47 35.9105C282.47 35.9105 290.946 30.521 290.838 35.9105C290.731 41.3 243.804 158.416 243.804 158.416ZM363.245 92.8971L363.954 92.1883V91.4794L363.245 90.7706L362.537 90.0618L310.09 64.8708C310.09 64.8708 306.553 55.8033 310.09 54.1488C313.628 52.4944 379.883 83.8586 383.75 87.2265C387.617 90.5945 387.801 92.3421 383.75 95.5553C383.75 95.5553 313.628 131.173 310.09 128.593C306.553 126.013 310.09 117.784 310.09 117.784L362.537 93.6059L363.245 92.8971Z" fill="#F4F4F4" fill-opacity="0.1"/>
</g>
<path d="M167.712 172.556H153.439V174.142H167.712V172.556Z" fill="#F4F4F4"/>
<path fill-rule="evenodd" clip-rule="evenodd" d="M151.673 0.874851C151.588 0.943841 150.337 1.10067 148.891 1.22357C145.925 1.47561 140.848 2.28097 140.018 2.63049C139.716 2.75804 138.539 3.09676 137.402 3.38387C134.92 4.01042 134.912 4.01273 131.235 5.48363C127.313 7.05277 127.211 7.09899 127.211 7.30977C127.211 7.41073 127.066 7.49361 126.89 7.49361C126.622 7.49361 124.146 8.78797 123.666 9.1795C123.585 9.24576 122.854 9.73056 122.042 10.2569C121.23 10.7833 120.212 11.5147 119.782 11.8827C119.351 12.2503 118.917 12.5513 118.816 12.5513C118.6 12.5513 116.577 14.2233 116.577 14.4021C116.577 14.4699 116.208 14.8129 115.757 15.1639C115.306 15.5154 114.409 16.3443 113.763 17.0067C113.117 17.6687 112.428 18.35 112.23 18.5207C112.033 18.691 111.639 19.1519 111.355 19.5446C111.07 19.9369 110.733 20.2583 110.606 20.2583C110.478 20.2583 110.374 20.3535 110.374 20.4698C110.374 20.6999 108.518 23.3274 108.021 23.8003C107.853 23.9605 107.715 24.1934 107.715 24.318C107.715 24.443 107.317 25.1626 106.829 25.918C106.342 26.6734 105.943 27.443 105.943 27.6283C105.943 27.8139 105.81 27.9651 105.648 27.9651C105.485 27.9651 105.353 28.177 105.353 28.4356C105.353 28.8796 105.2 29.2481 104.304 30.9759C104.097 31.3734 103.77 32.1859 103.578 32.7822C103.385 33.378 103.121 33.9743 102.992 34.1068C102.863 34.2389 102.685 34.8352 102.595 35.4315C102.506 36.0274 102.287 37.1113 102.107 37.8396C101.292 41.1523 101.102 43.4172 101.104 49.7617C101.107 56.0463 101.315 58.6218 102.09 61.9242C102.26 62.6526 102.476 63.7364 102.569 64.3323C102.661 64.9286 102.858 65.6332 103.007 65.8982C103.156 66.1628 103.467 66.9892 103.698 67.7338C103.93 68.4789 104.251 69.2914 104.412 69.5401C104.573 69.7889 104.863 70.48 105.057 71.0763C105.251 71.6722 105.53 72.3482 105.677 72.5783C105.823 72.8084 105.943 73.1603 105.943 73.3606C105.943 73.5614 106.076 73.7252 106.238 73.7252C106.401 73.7252 106.534 73.8776 106.534 74.0636C106.534 74.3735 107.043 75.3086 108.249 77.2176C109.055 78.4923 109.337 78.9005 109.495 79.0239C109.58 79.0902 109.979 79.6591 110.381 80.2883C110.783 80.9175 111.211 81.4324 111.333 81.4324C111.456 81.4324 111.555 81.5951 111.555 81.7939C111.555 81.9922 111.688 82.1549 111.851 82.1549C112.014 82.1549 112.146 82.3176 112.146 82.5163C112.146 82.7147 112.27 82.8773 112.422 82.8773C112.573 82.8773 112.773 83.067 112.864 83.2991C112.956 83.5303 113.397 84.0453 113.844 84.4432C114.291 84.8403 115.049 85.5993 115.527 86.1289C116.561 87.2735 120.979 90.8857 122.597 91.9092C123.225 92.3064 124.226 92.9764 124.821 93.3985C125.992 94.2281 129.734 96.3645 130.016 96.3645C130.112 96.3645 130.444 96.5581 130.755 96.7937C131.066 97.0302 131.825 97.3706 132.441 97.5507C133.057 97.7304 133.628 97.9498 133.709 98.0387C134.017 98.3739 136.761 99.4954 137.274 99.4954C137.569 99.4954 137.892 99.6037 137.993 99.7363C138.093 99.8688 138.433 99.9771 138.748 99.9771C139.064 99.9771 139.322 100.085 139.322 100.218C139.322 100.351 139.561 100.459 139.854 100.459C140.146 100.459 140.511 100.548 140.666 100.658C140.82 100.767 141.478 100.984 142.128 101.14C142.778 101.296 144.356 101.695 145.636 102.025C146.916 102.356 148.186 102.626 148.457 102.626C148.729 102.626 149.077 102.724 149.232 102.843C149.386 102.962 150.111 103.127 150.842 103.211C151.573 103.295 150.226 103.346 151.364 103.481C152.501 103.615 151.621 103.855 152.758 103.927C153.895 103.999 153.327 104.241 153.447 104.395C153.567 104.548 153.666 114.455 153.669 126.41L153.447 167.798L160.311 172.556L167.852 167.798V126.379C167.852 109.259 167.931 104.559 168.221 104.363C168.425 104.226 169.521 104.056 170.659 103.984C173.727 103.791 179.141 103.5 179.925 103.257C180.503 103.078 187.607 102.534 188.561 102.364C188.966 102.291 194.435 101.133 194.76 101.024C195.084 100.915 195.762 100.859 196.331 100.7C197.299 100.429 197.676 100.312 199.359 99.7593C200.641 99.3375 205.933 97.227 206.079 97.0782C206.16 96.9957 206.658 96.7751 207.187 96.5878C207.715 96.4006 208.147 96.1649 208.147 96.0649C208.147 95.965 208.303 95.8829 208.495 95.8829C208.687 95.8829 209.799 95.2866 210.965 94.5586C212.132 93.8298 213.168 93.2335 213.266 93.2335C213.474 93.2335 217.217 90.3842 218.645 89.1393C221.261 86.8585 221.891 86.2539 223.159 84.8042C223.913 83.9433 224.631 83.2026 224.756 83.1582C224.881 83.1142 224.983 82.9741 224.983 82.8468C224.983 82.7198 225.311 82.3279 225.711 81.9764C226.11 81.6249 226.591 81.0337 226.78 80.6624C226.969 80.2911 227.215 79.9872 227.327 79.9872C227.439 79.9872 227.714 79.6079 227.937 79.1445C228.16 78.6804 228.451 78.3015 228.583 78.3015C228.715 78.3015 228.824 78.0849 228.824 77.8199C228.824 77.5548 228.956 77.3378 229.119 77.3378C229.281 77.3378 229.414 77.1216 229.414 76.8562C229.414 76.5916 229.547 76.3746 229.71 76.3746C229.872 76.3746 230.005 76.1671 230.005 75.9128C230.005 75.6589 230.109 75.4153 230.237 75.3712C230.365 75.3268 230.981 74.3152 231.607 73.1234C232.234 71.9312 232.993 70.4963 233.295 69.9345C233.598 69.3731 233.845 68.6479 233.845 68.323C233.845 67.9985 233.978 67.6656 234.14 67.5839C234.303 67.5022 234.436 67.1768 234.436 66.8614C234.436 66.546 234.554 66.2279 234.698 66.1553C234.843 66.0823 235.028 65.6697 235.111 65.238C235.193 64.806 235.468 63.857 235.722 63.1282C237.265 58.7027 237.945 49.3654 237.17 43.2589C236.657 39.2254 235.743 34.8285 235.315 34.3476C235.197 34.2151 235.013 33.7272 234.905 33.2638C234.477 31.4162 234.358 31.0961 234.107 31.0961C233.963 31.0961 233.845 30.7696 233.845 30.3705C233.845 29.9714 233.691 29.402 233.503 29.1057C232.787 27.9758 232.664 27.7203 232.664 27.3664C232.664 27.1661 232.531 27.0018 232.368 27.0018C232.205 27.0018 232.073 26.8797 232.073 26.7305C232.073 26.4274 229.999 22.8557 229.714 22.6668C229.613 22.6006 229.302 22.1443 229.022 21.6528C228.741 21.1612 228.073 20.2903 227.535 19.7169C226.999 19.1434 226.438 18.5045 226.288 18.2972C225.347 16.9878 218.26 10.6245 217.744 10.6245C217.654 10.6245 217.154 10.2454 216.632 9.78178C216.11 9.31784 215.581 8.93865 215.456 8.93865C215.332 8.93865 214.841 8.63575 214.366 8.26505C213.891 7.89474 213.128 7.43426 212.67 7.24157C212.213 7.04892 211.67 6.76181 211.465 6.60343C211.259 6.44506 210.561 6.07281 209.914 5.7765C209.267 5.47978 208.737 5.14876 208.737 5.04085C208.737 4.93258 208.472 4.84435 208.147 4.84435C207.822 4.84435 207.556 4.76226 207.556 4.66245C207.556 4.56223 207.124 4.33451 206.596 4.1561C206.068 3.97769 205.072 3.62623 204.384 3.37459C203.695 3.12334 202.957 2.9176 202.744 2.9176C202.531 2.9176 202.226 2.81084 202.066 2.6802C200.519 1.41896 182.282 0.463284 177.305 1.15847C173.898 1.63438 169.118 3.05594 168.787 3.69138C168.734 3.7958 168.435 3.88097 168.123 3.88097C167.811 3.88097 167.557 3.98924 167.557 4.12179C167.557 4.25437 167.357 4.36264 167.114 4.36264C166.87 4.36264 166.671 4.44782 166.671 4.55148C166.671 4.6555 166.304 4.91714 165.856 5.13296C164.797 5.64276 160.468 9.04926 160.468 9.37255C160.468 9.50899 160.352 9.65732 160.212 9.70124C159.906 9.79721 157.526 12.8519 156.959 13.8761C156.739 14.2734 156.441 14.7867 156.298 15.0168C156.154 15.2468 156.037 15.7397 156.037 16.1127C156.037 16.4853 155.917 16.893 155.771 17.019C155.625 17.1446 155.43 17.6815 155.337 18.2113C155.244 18.7411 155.03 19.8791 154.862 20.7399C154.004 25.1226 153.908 28.903 153.796 62.5264C153.68 97.2012 153.344 97.8411 153.344 97.8411L153.372 97.6035L153.39 97.3424L153.408 97.004L153.419 96.7806L153.428 96.5573L153.438 96.3339C153.438 96.3339 153.453 96.0392 153.453 95.9067C153.364 95.9067 153.004 95.8829 152.758 95.8829C152.512 95.8829 152.08 95.7825 151.798 95.6599C151.516 95.5369 151.086 95.375 150.842 95.3001C150.598 95.2251 149.468 94.6728 148.331 94.073C147.193 93.4723 146.064 92.9086 145.82 92.8201C145.576 92.7312 145.229 92.544 145.049 92.4039C144.868 92.2639 144.205 91.8247 143.575 91.4276C140.619 89.563 134.902 84.2893 134.894 83.4193C134.892 83.2538 134.758 83.1181 134.595 83.1181C134.433 83.1181 134.3 82.9555 134.3 82.7571C134.3 82.5584 134.201 82.3949 134.078 82.3937C133.813 82.3913 133.119 81.2254 133.119 80.7822C133.119 80.61 133.019 80.4684 132.897 80.4684C132.775 80.468 132.298 79.8451 131.836 79.0834C131.374 78.3221 130.876 77.5112 130.728 77.2811C130.58 77.051 130.46 76.6971 130.46 76.4952C130.46 76.2928 130.327 75.912 130.165 75.649C130.002 75.3859 129.737 74.9551 129.574 74.6917C129.411 74.429 129.278 73.9954 129.278 73.7284C129.278 73.4618 129.146 73.2436 128.983 73.2436C128.821 73.2436 128.688 72.9365 128.688 72.5612C128.688 72.1859 128.588 71.7983 128.467 71.6995C128.245 71.5178 127.116 67.8668 126.599 65.6574C125.216 59.7394 124.71 49.9509 125.362 41.6935C125.803 36.1167 126.355 33.0642 127.647 29.0494C128.981 24.9087 129.043 24.7461 130.125 22.6065C130.475 21.9158 130.873 21.1148 131.174 20.4991C131.271 20.3002 131.683 19.7045 132.09 19.1747C132.497 18.6448 133.059 17.8048 133.339 17.3081C133.619 16.8113 133.95 16.4048 134.074 16.4048C134.199 16.4048 134.3 16.2422 134.3 16.0437C134.3 15.8449 134.433 15.6823 134.595 15.6823C134.758 15.6823 134.891 15.5751 134.891 15.4441C134.891 14.8977 139.867 10.6319 142.112 9.2531C142.933 8.74905 143.649 8.25545 143.703 8.15603C143.757 8.05661 144.045 7.97528 144.343 7.97528C144.641 7.97528 144.929 7.89129 144.983 7.78838C145.141 7.48972 149.403 5.80768 150.002 5.80768C150.301 5.80768 150.546 5.69941 150.546 5.56686C150.546 5.43428 150.748 5.32601 150.994 5.32601C151.24 5.32601 151.971 5.19113 152.619 5.0266L153.796 4.72719V2.7384V0.75H152.811C152.27 0.75 151.757 0.806256 151.673 0.874851ZM181.918 13.1632C184.354 12.8096 191.728 13.6807 192.767 14.1496C194.644 14.997 197.073 15.8056 197.217 15.9235C197.299 15.9898 197.734 16.1994 198.186 16.3893C199.659 17.0086 204.54 21.3171 205.783 23.0965C206.027 23.4448 206.453 23.9391 206.729 24.1942C207.005 24.4497 207.44 25.0186 207.697 25.4586C207.953 25.8985 208.291 26.3238 208.45 26.404C208.608 26.4837 208.737 26.7499 208.737 26.9959C208.737 27.2419 208.837 27.4795 208.959 27.5235C209.278 27.6394 210.51 29.6341 210.51 30.0352C210.51 30.2213 210.642 30.3736 210.805 30.3736C210.967 30.3736 211.1 30.5918 211.1 30.8584C211.1 31.1254 211.218 31.5317 211.361 31.7618C212.63 33.7958 213.826 36.9323 214.252 39.3464C214.34 39.8439 214.531 40.3109 214.676 40.3843C214.821 40.4573 214.94 41.0313 214.94 41.6593C214.94 42.2874 215.059 42.9039 215.204 43.03C215.993 43.716 216.3 61.5977 215.582 65.0551C215.375 66.0486 215.134 67.349 215.045 67.9453C214.956 68.5412 214.763 69.1319 214.616 69.2577C214.47 69.3834 214.349 69.8381 214.349 70.2673C214.349 70.6966 214.217 71.1148 214.054 71.1969C213.892 71.2782 213.759 71.6964 213.759 72.1256C213.759 72.5549 213.642 73.0095 213.5 73.1353C213.357 73.2611 213.009 73.9601 212.725 74.6889C212.441 75.4173 212.093 76.1163 211.95 76.2421C211.808 76.3682 211.691 76.6658 211.691 76.9046C211.691 77.143 211.558 77.3378 211.396 77.3378C211.233 77.3378 211.1 77.533 211.1 77.7714C211.1 78.3098 210.44 79.5012 210.141 79.5036C210.018 79.5047 209.919 79.7226 209.919 79.9872C209.919 80.2522 209.786 80.4688 209.623 80.4688C209.461 80.4688 209.328 80.6858 209.328 80.9508C209.328 81.2158 209.195 81.4324 209.033 81.4324C208.87 81.4324 208.737 81.5408 208.737 81.6729C208.737 81.8796 206.827 84.223 206.381 84.5634C206.294 84.6297 205.834 85.1081 205.36 85.627C204.133 86.9672 200.156 90.1025 199.682 90.1025C199.463 90.1025 199.285 90.2021 199.285 90.3239C199.285 90.4457 198.848 90.7651 198.315 91.034C197.782 91.3026 196.951 91.7993 196.469 92.1369C195.987 92.475 195.426 92.7515 195.223 92.7515C195.021 92.7519 194.854 92.8602 194.854 92.9927C194.854 93.1252 194.659 93.2335 194.42 93.2335C194.181 93.2335 193.55 93.4311 193.017 93.6727C190.675 94.7331 185.369 95.596 184.132 95.8872C183.401 96.0594 179.645 96.4724 179.483 96.5573C179.32 96.6422 178 96.6089 177.269 96.7806C176.537 96.952 175.682 96.6771 175.276 96.7806C174.87 96.8842 173.616 96.6283 172.398 96.7806C171.179 96.933 169.998 96.4331 169.519 96.5573C168.892 96.7203 167.694 96.549 167.526 96.3339C167.189 95.9011 167.822 32.4378 168.165 27.8449C168.67 21.0648 170.183 17.2762 171.069 16.8295C171.118 17.1818 171.037 16.598 171.069 16.8295C171.069 16.5679 172.521 15.6314 174.172 14.5347C175.097 13.9204 178.992 12.9975 179.963 13.1632C180.207 13.2045 181.187 13.0773 181.918 13.1632Z" fill="#F4F4F4"/>
<defs>
<filter id="filter0_i" x="0.819824" y="33.5151" width="387.9" height="129.872" filterUnits="userSpaceOnUse" color-interpolation-filters="sRGB">
<feFlood flood-opacity="0" result="BackgroundImageFix"/>
<feBlend mode="normal" in="SourceGraphic" in2="BackgroundImageFix" result="shape"/>
<feColorMatrix in="SourceAlpha" type="matrix" values="0 0 0 0 0 0 0 0 0 0 0 0 0 0 0 0 0 0 127 0" result="hardAlpha"/>
<feOffset dx="2" dy="2"/>
<feGaussianBlur stdDeviation="1"/>
<feComposite in2="hardAlpha" operator="arithmetic" k2="-1" k3="1"/>
<feColorMatrix type="matrix" values="0 0 0 0 0 0 0 0 0 0 0 0 0 0 0 0 0 0 0.25 0"/>
<feBlend mode="normal" in2="shape" result="effect1_innerShadow"/>
</filter>
</defs>
</svg>
