<svg width="273" height="124" viewBox="0 0 273 124" fill="none" xmlns="http://www.w3.org/2000/svg">
<g filter="url(#filter0_i)">
<path d="M10.885 64.7101L11.385 65.2101L12.385 65.7101L53.7372 83.2652C53.7372 83.2652 56.0891 88.8162 53.7372 91.0131C51.3853 93.2101 2.48304 68.4425 2.88435 67.708C0.142905 65.7183 -0.116268 63.7769 2.88435 61.7435C5.88497 59.7101 51.8853 36.7101 53.7372 38.5C55.5891 40.2898 53.7372 46.2479 53.7372 46.2479L12.385 63.7101L11.385 64.2101L10.885 64.7101ZM172.131 111.927C172.131 111.927 165.462 116.643 166.173 111.927C166.884 107.21 199.405 25.5118 199.405 25.5118C199.405 25.5118 205.384 21.7101 205.309 25.5118C205.233 29.3136 172.131 111.927 172.131 111.927ZM256.384 65.71L256.884 65.21V64.71L256.384 64.21L255.884 63.71L218.889 45.9404C218.889 45.9404 216.393 39.5441 218.889 38.3771C221.384 37.2101 268.121 59.3343 270.849 61.71C273.576 64.0858 273.706 65.3185 270.849 67.5851C270.849 67.5851 221.384 92.7101 218.889 90.89C216.393 89.0699 218.889 83.2652 218.889 83.2652L255.884 66.21L256.384 65.71Z" fill="#352B11" fill-opacity="0.1"/>
</g>
<path d="M118.455 121.902H108.387V123.021H118.455V121.902Z" fill="#352B11"/>
<path fill-rule="evenodd" clip-rule="evenodd" d="M107.141 0.798091C107.082 0.846757 106.199 0.957382 105.179 1.04408C103.087 1.22187 99.5057 1.78997 98.9202 2.03651C98.7073 2.12649 97.8769 2.36542 97.0746 2.56795C95.3239 3.00992 95.3185 3.01154 92.7246 4.04912C89.9577 5.15598 89.8861 5.18859 89.8861 5.33727C89.8861 5.40849 89.7839 5.46695 89.6597 5.46695C89.4702 5.46695 87.7242 6.37999 87.3856 6.65618C87.3282 6.70291 86.8125 7.04489 86.2396 7.4162C85.6668 7.7875 84.9492 8.30344 84.6453 8.56303C84.3414 8.82234 84.0352 9.03463 83.9644 9.03463C83.8122 9.03463 82.385 10.2141 82.385 10.3402C82.385 10.388 82.1244 10.63 81.8065 10.8776C81.488 11.1255 80.8553 11.7102 80.4 12.1775C79.9444 12.6445 79.458 13.125 79.3186 13.2455C79.1798 13.3656 78.9014 13.6907 78.701 13.9677C78.5004 14.2444 78.2625 14.4711 78.1727 14.4711C78.0828 14.4711 78.0092 14.5383 78.0092 14.6203C78.0092 14.7826 76.6998 16.636 76.3494 16.9696C76.231 17.0827 76.1339 17.247 76.1339 17.3348C76.1339 17.423 75.8527 17.9306 75.5088 18.4635C75.1651 18.9963 74.8838 19.5392 74.8838 19.6699C74.8838 19.8009 74.7901 19.9075 74.6754 19.9075C74.5606 19.9075 74.4672 20.0569 74.4672 20.2394C74.4672 20.5526 74.3597 20.8125 73.7272 22.0313C73.5814 22.3117 73.3511 22.8848 73.2151 23.3055C73.0791 23.7258 72.893 24.1464 72.802 24.2399C72.7111 24.3331 72.5852 24.7537 72.5222 25.1743C72.4595 25.5946 72.3045 26.3592 72.178 26.873C71.6029 29.2097 71.4686 30.8074 71.4702 35.2828C71.4722 39.7159 71.6194 41.5327 72.1654 43.8622C72.2857 44.376 72.4377 45.1405 72.5034 45.5609C72.5686 45.9815 72.7077 46.4785 72.8127 46.6654C72.9173 46.8521 73.1367 47.435 73.3002 47.9603C73.4633 48.4859 73.69 49.059 73.8033 49.2345C73.917 49.4099 74.1215 49.8974 74.2587 50.318C74.3958 50.7384 74.5922 51.2152 74.6958 51.3776C74.7991 51.5399 74.8838 51.7881 74.8838 51.9294C74.8838 52.071 74.9773 52.1866 75.0921 52.1866C75.2068 52.1866 75.3005 52.2941 75.3005 52.4253C75.3005 52.6439 75.6593 53.3035 76.5103 54.6501C77.0787 55.5493 77.2774 55.8373 77.3891 55.9243C77.4495 55.971 77.7305 56.3723 78.014 56.8162C78.2975 57.26 78.6 57.6233 78.6859 57.6233C78.7724 57.6233 78.8426 57.738 78.8426 57.8782C78.8426 58.0181 78.9364 58.1329 79.0511 58.1329C79.1658 58.1329 79.2593 58.2476 79.2593 58.3878C79.2593 58.5277 79.3466 58.6425 79.4538 58.6425C79.5604 58.6425 79.7012 58.7763 79.7658 58.94C79.8305 59.1031 80.1414 59.4664 80.4568 59.7471C80.7722 60.0272 81.3067 60.5625 81.6442 60.9361C82.3735 61.7435 85.4899 64.2916 86.6311 65.0136C87.0741 65.2937 87.7808 65.7664 88.2003 66.0641C89.0264 66.6493 91.6659 68.1563 91.8649 68.1563C91.9321 68.1563 92.1666 68.2929 92.3857 68.4591C92.6051 68.6259 93.1405 68.866 93.5751 68.993C94.01 69.1198 94.4127 69.2746 94.47 69.3373C94.6869 69.5737 96.6226 70.3649 96.9845 70.3649C97.1924 70.3649 97.4205 70.4413 97.4913 70.5347C97.5621 70.6282 97.8022 70.7046 98.0244 70.7046C98.2469 70.7046 98.4288 70.781 98.4288 70.8745C98.4288 70.9682 98.5976 71.0443 98.8041 71.0443C99.0103 71.0443 99.2681 71.1076 99.3769 71.1848C99.4858 71.2621 99.9501 71.4152 100.408 71.5251C100.867 71.6351 101.98 71.9161 102.883 72.1492C103.786 72.3826 104.682 72.5735 104.873 72.5735C105.065 72.5735 105.311 72.642 105.419 72.726C105.528 72.8099 106.039 72.9269 106.555 72.986C107.071 73.0447 106.121 73.0808 106.923 73.176C107.725 73.2708 107.105 73.4402 107.907 73.4908C108.709 73.5417 108.308 73.7124 108.393 73.821C108.477 73.9291 108.548 80.9172 108.549 89.3502L108.393 118.546L113.235 121.902L118.554 118.546V89.3284C118.554 77.252 118.61 73.9366 118.815 73.7986C118.958 73.7021 119.731 73.582 120.534 73.5314C122.699 73.3948 126.517 73.1894 127.071 73.0184C127.478 72.8922 132.489 72.508 133.162 72.3882C133.448 72.337 137.305 71.5198 137.535 71.4429C137.764 71.3659 138.242 71.3267 138.643 71.2145C139.326 71.0231 139.592 70.9405 140.779 70.551C141.684 70.2535 145.416 68.7647 145.519 68.6597C145.577 68.6015 145.928 68.4459 146.301 68.3139C146.673 68.1818 146.978 68.0155 146.978 67.945C146.978 67.8745 147.088 67.8166 147.224 67.8166C147.359 67.8166 148.143 67.3959 148.966 66.8824C149.789 66.3683 150.52 65.9477 150.589 65.9477C150.736 65.9477 153.376 63.9378 154.384 63.0596C156.229 61.4508 156.673 61.0243 157.568 60.0017C158.099 59.3944 158.606 58.872 158.694 58.8406C158.783 58.8096 158.854 58.7108 158.854 58.6209C158.854 58.5314 159.085 58.2549 159.367 58.0069C159.649 57.759 159.989 57.342 160.122 57.0801C160.255 56.8181 160.428 56.6038 160.508 56.6038C160.587 56.6038 160.781 56.3362 160.938 56.0094C161.095 55.6819 161.301 55.4147 161.394 55.4147C161.487 55.4147 161.563 55.2619 161.563 55.075C161.563 54.888 161.657 54.7349 161.772 54.7349C161.886 54.7349 161.98 54.5824 161.98 54.3952C161.98 54.2085 162.074 54.0555 162.188 54.0555C162.303 54.0555 162.397 53.9091 162.397 53.7297C162.397 53.5506 162.47 53.3788 162.561 53.3477C162.65 53.3164 163.085 52.6027 163.527 51.7621C163.969 50.9211 164.505 49.9089 164.718 49.5126C164.931 49.1166 165.105 48.6051 165.105 48.3759C165.105 48.147 165.199 47.9122 165.314 47.8545C165.428 47.7969 165.522 47.5674 165.522 47.3449C165.522 47.1224 165.606 46.898 165.707 46.8468C165.81 46.7953 165.94 46.5042 165.998 46.1998C166.057 45.895 166.251 45.2256 166.43 44.7115C167.518 41.5898 167.997 35.0032 167.451 30.6958C167.089 27.8505 166.444 24.7489 166.142 24.4097C166.059 24.3163 165.929 23.9721 165.853 23.6452C165.551 22.3419 165.468 22.1161 165.29 22.1161C165.189 22.1161 165.105 21.8858 165.105 21.6042C165.105 21.3227 164.997 20.9211 164.865 20.7121C164.359 19.9151 164.272 19.7348 164.272 19.4852C164.272 19.3439 164.178 19.228 164.064 19.228C163.949 19.228 163.855 19.1418 163.855 19.0366C163.855 18.8228 162.392 16.3033 162.191 16.1701C162.12 16.1234 161.901 15.8015 161.703 15.4548C161.505 15.1081 161.034 14.4937 160.655 14.0892C160.276 13.6847 159.88 13.234 159.775 13.0878C159.111 12.1641 154.112 7.67551 153.748 7.67551C153.684 7.67551 153.331 7.40803 152.963 7.08102C152.595 6.75376 152.222 6.48628 152.134 6.48628C152.047 6.48628 151.7 6.27261 151.365 6.01112C151.03 5.74991 150.491 5.42509 150.169 5.28916C149.846 5.15327 149.463 4.95074 149.319 4.83902C149.173 4.72731 148.681 4.46472 148.224 4.2557C147.768 4.0464 147.395 3.8129 147.395 3.73678C147.395 3.6604 147.207 3.59817 146.978 3.59817C146.749 3.59817 146.561 3.54026 146.561 3.46985C146.561 3.39916 146.256 3.23853 145.884 3.11268C145.511 2.98683 144.809 2.73891 144.323 2.5614C143.838 2.38417 143.317 2.23904 143.167 2.23904C143.017 2.23904 142.801 2.16373 142.689 2.07158C141.597 1.18191 128.733 0.507773 125.222 0.998156C122.819 1.33386 119.447 2.33663 119.214 2.78486C119.176 2.85852 118.965 2.9186 118.745 2.9186C118.525 2.9186 118.346 2.99498 118.346 3.08847C118.346 3.182 118.205 3.25837 118.033 3.25837C117.861 3.25837 117.721 3.31845 117.721 3.39158C117.721 3.46496 117.462 3.64952 117.146 3.80176C116.399 4.16136 113.345 6.5643 113.345 6.79235C113.345 6.88859 113.264 6.99323 113.165 7.02421C112.949 7.09191 111.27 9.24664 110.87 9.96916C110.715 10.2494 110.505 10.6115 110.404 10.7738C110.302 10.936 110.22 11.2837 110.22 11.5468C110.22 11.8097 110.136 12.0973 110.033 12.1862C109.93 12.2748 109.792 12.6534 109.726 13.0272C109.661 13.4009 109.509 14.2036 109.391 14.8109C108.786 17.9024 108.718 20.5691 108.639 44.287C108.557 68.7465 108.32 69.1979 108.32 69.1979L108.34 69.0303L108.353 68.8461L108.365 68.6074L108.373 68.4499L108.38 68.2923L108.386 68.1347C108.386 68.1347 108.397 67.9268 108.397 67.8333C108.334 67.8333 108.08 67.8166 107.907 67.8166C107.733 67.8166 107.429 67.7458 107.23 67.6593C107.031 67.5725 106.727 67.4584 106.555 67.4055C106.383 67.3526 105.586 66.963 104.784 66.5399C103.982 66.1162 103.185 65.7185 103.013 65.6561C102.841 65.5934 102.596 65.4613 102.469 65.3625C102.341 65.2638 101.874 64.954 101.429 64.6738C99.3439 63.3585 95.311 59.6385 95.3054 59.0248C95.3046 58.9081 95.2097 58.8124 95.0949 58.8124C94.9805 58.8124 94.8867 58.6976 94.8867 58.5577C94.8867 58.4175 94.8165 58.3022 94.7303 58.3013C94.5434 58.2997 94.0533 57.4772 94.0533 57.1646C94.0533 57.0431 93.9828 56.9432 93.8969 56.9432C93.811 56.943 93.474 56.5036 93.1486 55.9663C92.8228 55.4292 92.4713 54.8572 92.3672 54.6949C92.2629 54.5326 92.1781 54.283 92.1781 54.1405C92.1781 53.9978 92.0843 53.7291 91.9696 53.5436C91.8548 53.3581 91.6676 53.0541 91.5529 52.8683C91.4381 52.6831 91.3444 52.3772 91.3444 52.1889C91.3444 52.0008 91.2509 51.8469 91.1362 51.8469C91.0214 51.8469 90.9277 51.6303 90.9277 51.3655C90.9277 51.1008 90.8577 50.8274 90.7724 50.7577C90.6154 50.6295 89.8189 48.0541 89.4546 46.4956C88.4784 42.321 88.1222 35.4163 88.582 29.5915C88.8929 25.6576 89.2819 23.5044 90.1939 20.6723C91.1345 17.7515 91.1784 17.6368 91.9416 16.1276C92.1884 15.6403 92.4694 15.0753 92.6815 14.641C92.7498 14.5007 93.0408 14.0805 93.3274 13.7067C93.6145 13.333 94.0114 12.7404 94.2089 12.39C94.4065 12.0396 94.6399 11.7529 94.7275 11.7529C94.8151 11.7529 94.8867 11.6382 94.8867 11.4982C94.8867 11.3579 94.9805 11.2432 95.0949 11.2432C95.2097 11.2432 95.3034 11.1676 95.3034 11.0752C95.3034 10.6898 98.8133 7.68068 100.397 6.70809C100.976 6.35254 101.481 6.00435 101.52 5.93422C101.558 5.86409 101.761 5.80672 101.971 5.80672C102.181 5.80672 102.384 5.74747 102.423 5.67488C102.534 5.46421 105.54 4.2777 105.963 4.2777C106.174 4.2777 106.347 4.20133 106.347 4.10783C106.347 4.0143 106.489 3.93793 106.663 3.93793C106.836 3.93793 107.352 3.84278 107.809 3.72673L108.639 3.51553V2.11263V0.710022H107.944C107.562 0.710022 107.201 0.749705 107.141 0.798091ZM128.476 9.4663C130.194 9.21687 135.397 9.83128 136.129 10.1621C137.453 10.7598 139.167 11.3302 139.268 11.4134C139.326 11.4601 139.633 11.608 139.951 11.742C140.99 12.1788 144.434 15.218 145.311 16.4732C145.483 16.7189 145.783 17.0676 145.978 17.2475C146.173 17.4277 146.48 17.8291 146.661 18.1394C146.841 18.4498 147.08 18.7498 147.192 18.8063C147.303 18.8625 147.395 19.0503 147.395 19.2238C147.395 19.3973 147.465 19.565 147.551 19.596C147.776 19.6777 148.645 21.0848 148.645 21.3678C148.645 21.499 148.738 21.6065 148.853 21.6065C148.968 21.6065 149.061 21.7604 149.061 21.9485C149.061 22.1368 149.144 22.4234 149.245 22.5857C150.14 24.0205 150.984 26.233 151.285 27.9359C151.347 28.2868 151.482 28.6162 151.584 28.668C151.686 28.7194 151.77 29.1244 151.77 29.5674C151.77 30.0104 151.854 30.4453 151.956 30.5343C152.512 31.0181 152.729 43.6319 152.223 46.0708C152.077 46.7715 151.907 47.6888 151.844 48.1095C151.781 48.5298 151.645 48.9465 151.541 49.0352C151.438 49.1239 151.353 49.4446 151.353 49.7474C151.353 50.0502 151.26 50.3452 151.145 50.4031C151.03 50.4605 150.937 50.7555 150.937 51.0583C150.937 51.361 150.854 51.6818 150.754 51.7705C150.653 51.8592 150.408 52.3523 150.208 52.8664C150.007 53.3802 149.762 53.8733 149.661 53.962C149.561 54.051 149.478 54.2609 149.478 54.4293C149.478 54.5975 149.385 54.7349 149.27 54.7349C149.155 54.7349 149.061 54.8726 149.061 55.0408C149.061 55.4206 148.596 56.261 148.384 56.2626C148.298 56.2635 148.228 56.4171 148.228 56.6038C148.228 56.7907 148.134 56.9435 148.019 56.9435C147.905 56.9435 147.811 57.0966 147.811 57.2835C147.811 57.4705 147.718 57.6233 147.603 57.6233C147.488 57.6233 147.395 57.6997 147.395 57.7929C147.395 57.9387 146.047 59.5917 145.733 59.8318C145.671 59.8786 145.347 60.2161 145.012 60.5821C144.147 61.5275 141.341 63.7391 141.007 63.7391C140.853 63.7391 140.727 63.8094 140.727 63.8953C140.727 63.9812 140.419 64.2065 140.042 64.3962C139.666 64.5857 139.08 64.936 138.74 65.1742C138.4 65.4126 138.005 65.6077 137.862 65.6077C137.719 65.608 137.601 65.6844 137.601 65.7778C137.601 65.8713 137.464 65.9477 137.295 65.9477C137.127 65.9477 136.681 66.0871 136.305 66.2575C134.653 67.0055 130.91 67.6142 130.038 67.8196C129.522 67.9411 126.873 68.2324 126.758 68.2923C126.644 68.3522 125.712 68.3287 125.197 68.4499C124.681 68.5708 124.077 68.3768 123.791 68.4499C123.505 68.5229 122.62 68.3424 121.761 68.4499C120.901 68.5573 120.068 68.2047 119.73 68.2923C119.287 68.4073 118.443 68.2864 118.325 68.1347C118.087 67.8294 118.533 23.0625 118.775 19.8227C119.131 15.0401 120.199 12.3676 120.824 12.0525C120.858 12.301 120.801 11.8892 120.824 12.0525C120.824 11.8679 121.848 11.2073 123.012 10.4337C123.665 10.0004 126.412 9.34941 127.097 9.4663C127.269 9.49538 127.961 9.40568 128.476 9.4663Z" fill="#352B11"/>
<defs>
<filter id="filter0_i" x="0.72998" y="23.8221" width="274.213" height="92.2008" filterUnits="userSpaceOnUse" color-interpolation-filters="sRGB">
<feFlood flood-opacity="0" result="BackgroundImageFix"/>
<feBlend mode="normal" in="SourceGraphic" in2="BackgroundImageFix" result="shape"/>
<feColorMatrix in="SourceAlpha" type="matrix" values="0 0 0 0 0 0 0 0 0 0 0 0 0 0 0 0 0 0 127 0" result="hardAlpha"/>
<feOffset dx="2" dy="2"/>
<feGaussianBlur stdDeviation="1"/>
<feComposite in2="hardAlpha" operator="arithmetic" k2="-1" k3="1"/>
<feColorMatrix type="matrix" values="0 0 0 0 0 0 0 0 0 0 0 0 0 0 0 0 0 0 0.25 0"/>
<feBlend mode="normal" in2="shape" result="effect1_innerShadow"/>
</filter>
</defs>
</svg>
