<!-- Generated by IcoMoon.io -->
<svg version="1.1" xmlns="http://www.w3.org/2000/svg" width="36" height="32" viewBox="0 0 36 32">
<title>socailmedia</title>
<path fill="#d4af37" d="M12.889 24.672c-0.329 0.314-0.851 0.301-1.164-0.029s-0.301-0.851 0.029-1.165c0.353-0.243 2.12-1.461 5.299-3.653-0.053-2.758-0.083-4.29-0.089-4.596-0.009-0.454 0.352-0.83 0.806-0.839s0.83 0.352 0.839 0.806c0.006 0.314 0.036 1.884 0.092 4.71 3.128 2.143 4.866 3.334 5.214 3.572 0.329 0.314 0.343 0.835 0.029 1.165s-0.835 0.343-1.165 0.029c-0.33-0.221-1.978-1.326-4.945-3.315-2.967 1.989-4.616 3.094-4.945 3.315zM14.75 3.781c-0.035 0.023-0.060 0.053-0.077 0.088-0.018 0.040-0.027 0.087-0.025 0.142 0.005 0.162 0.090 0.375 0.255 0.62 0 0 0.001 0.001 0.002 0.003 0.321 0.51 0.499 0.794 0.535 0.851 0.214 0.341 0.439 0.688 0.718 0.944 0.268 0.245 0.594 0.412 1.024 0.412 0.466 0.002 0.807-0.171 1.084-0.43 0.288-0.269 0.516-0.639 0.74-1.008 0.060-0.1 0.542-0.893 0.602-0.992 0.125-0.286 0.162-0.463 0.119-0.551-0.032-0.064-0.149-0.082-0.342-0.065-0.034 0.003-0.066-0.005-0.092-0.021-0.030 0.002-0.060 0.001-0.091-0.002 0.002-0.010 0.018-0.091 0.020-0.101-0.001-0.004-0.002-0.010-0.002-0.015-0.003-0.036 0.006-0.069 0.024-0.097 0.014-0.069 0.123-0.622 0.137-0.691-1.102-0.013-1.855-0.205-2.747-0.775-0.292-0.187-0.381-0.401-0.674-0.38-0.221 0.043-0.407 0.142-0.555 0.301-0.142 0.153-0.249 0.361-0.318 0.627 0.013 0.108 0.122 0.972 0.136 1.080-0.079 0.016-0.157 0.013-0.232-0.008-0.104 0.007-0.184 0.031-0.24 0.068zM27.286 23.18c-0.035 0.024-0.061 0.053-0.077 0.089-0.018 0.039-0.027 0.087-0.025 0.142 0.004 0.162 0.090 0.375 0.255 0.619 0 0.001 0 0.002 0.002 0.004 0.321 0.51 0.499 0.794 0.535 0.85 0.214 0.341 0.439 0.689 0.718 0.944 0.268 0.245 0.593 0.411 1.024 0.412 0.466 0.001 0.807-0.171 1.084-0.43 0.288-0.27 0.515-0.64 0.739-1.009 0.061-0.099 0.542-0.893 0.603-0.992 0.125-0.286 0.162-0.463 0.119-0.551-0.032-0.065-0.149-0.083-0.341-0.065-0.034 0.003-0.066-0.005-0.093-0.021-0.030 0.001-0.061 0.001-0.091-0.002 0.002-0.010 0.018-0.091 0.020-0.101-0.001-0.005-0.002-0.010-0.002-0.015-0.003-0.036 0.006-0.070 0.024-0.098 0.013-0.069 0.122-0.622 0.137-0.691-1.101-0.013-1.855-0.206-2.747-0.775-0.293-0.187-0.381-0.401-0.674-0.38-0.221 0.043-0.407 0.142-0.555 0.301-0.142 0.153-0.249 0.361-0.319 0.627 0.014 0.108 0.123 0.972 0.136 1.079-0.080 0.016-0.157 0.014-0.232-0.007-0.104 0.007-0.184 0.030-0.24 0.068zM28.945 29.95l0.482-1.67c-0.142-0.155-0.221-0.241-0.236-0.258-0.106-0.155-0.129-0.291-0.071-0.408 0.128-0.253 0.393-0.205 0.64-0.205 0.259 0 0.578-0.049 0.659 0.275 0.027 0.108-0.007 0.222-0.083 0.338-0.016 0.017-0.095 0.103-0.236 0.258l0.481 1.67c0.52-1.688 0.809-2.627 0.866-2.814 0.626 0.563 2.476 0.675 3.164 1.059 0.217 0.122 0.414 0.276 0.572 0.485 0.24 0.317 0.387 0.731 0.427 1.256 0.014 0.14 0.13 1.255 0.144 1.395-0.035 0.372-0.246 0.586-0.661 0.618-1.075 0-9.677 0-10.752 0-0.415-0.031-0.626-0.246-0.661-0.618 0.015-0.14 0.13-1.255 0.143-1.395 0.040-0.525 0.188-0.939 0.428-1.256 0.158-0.209 0.354-0.363 0.572-0.485 0.689-0.384 2.539-0.497 3.164-1.059 0.127 0.375 0.446 1.314 0.956 2.814zM32.538 23.123c0.086 0.174 0.051 0.437-0.115 0.815h-0c-0.003 0.006-0.006 0.012-0.009 0.017-0.061 0.101-0.549 0.904-0.61 1.004-0.235 0.387-0.473 0.775-0.792 1.073-0.33 0.308-0.736 0.515-1.292 0.513-0.519-0.001-0.91-0.199-1.231-0.493-0.31-0.283-0.546-0.649-0.771-1.006-0.053-0.085-0.481-0.765-0.534-0.85-0.196-0.292-0.298-0.559-0.304-0.778-0.003-0.103 0.015-0.197 0.053-0.279 0.040-0.086 0.101-0.159 0.185-0.214 0.039-0.026 0.082-0.049 0.131-0.067-0.035-0.461-0.048-1.041-0.025-1.527 0.011-0.115 0.034-0.231 0.066-0.346 0.137-0.488 0.479-0.881 0.903-1.151 0.15-0.096 0.313-0.174 0.487-0.237 1.027-0.372 2.388-0.169 3.118 0.62 0.297 0.321 0.483 0.747 0.524 1.311-0.002 0.092-0.013 0.555-0.033 1.387 0.134 0.069 0.218 0.139 0.253 0.208zM3.52 23.18c-0.035 0.024-0.060 0.053-0.077 0.089-0.018 0.040-0.027 0.087-0.025 0.142 0.004 0.162 0.090 0.375 0.255 0.619 0 0.001 0.001 0.002 0.002 0.004 0.321 0.51 0.499 0.794 0.535 0.851 0.215 0.34 0.439 0.688 0.718 0.944 0.268 0.245 0.594 0.411 1.024 0.412 0.466 0.001 0.807-0.171 1.084-0.43 0.288-0.27 0.515-0.64 0.739-1.009 0.060-0.099 0.542-0.893 0.603-0.992 0.125-0.285 0.162-0.463 0.119-0.551-0.032-0.065-0.148-0.082-0.341-0.065-0.034 0.003-0.066-0.005-0.092-0.021-0.030 0.001-0.060 0.001-0.091-0.002 0.002-0.010 0.018-0.091 0.020-0.101-0.001-0.004 0.074-1.007 0.072-1.030-0.003-0.036-0.072-0.464-0.175-0.627s-0.556-0.301-1.029-0.301c-0.472 0-0.686 0.29-0.943 0.301-0.257-0.035-0.894-0.321-1.187-0.301-0.222 0.043-0.408 0.142-0.556 0.301-0.142 0.153-0.248 0.361-0.318 0.627 0.013 0.108 0.122 0.972 0.136 1.080-0.080 0.016-0.157 0.013-0.232-0.008-0.104 0.007-0.184 0.031-0.24 0.068zM5.178 29.95l0.482-1.67c-0.142-0.155-0.22-0.241-0.236-0.258-0.106-0.155-0.129-0.291-0.071-0.408 0.128-0.253 0.393-0.205 0.64-0.205 0.259 0 0.578-0.049 0.659 0.275 0.027 0.108-0.007 0.222-0.083 0.338-0.016 0.017-0.094 0.103-0.236 0.258l0.481 1.67c0.52-1.688 0.809-2.626 0.866-2.814 0.626 0.562 2.476 0.675 3.164 1.059 0.217 0.122 0.414 0.276 0.572 0.485 0.24 0.317 0.388 0.731 0.428 1.256 0.014 0.14 0.129 1.255 0.143 1.395-0.035 0.372-0.246 0.586-0.661 0.618-1.075 0-9.677 0-10.752 0-0.415-0.031-0.626-0.246-0.661-0.618 0.015-0.14 0.129-1.255 0.144-1.395 0.040-0.525 0.187-0.939 0.427-1.256 0.158-0.209 0.355-0.363 0.572-0.485 0.689-0.384 2.539-0.497 3.164-1.059 0 0 0.319 0.938 0.956 2.814zM8.771 23.123c0.086 0.175 0.051 0.437-0.115 0.816l-0.001-0.001c-0.003 0.006-0.006 0.012-0.009 0.018-0.061 0.1-0.549 0.903-0.61 1.004-0.235 0.387-0.473 0.775-0.792 1.073-0.33 0.309-0.736 0.515-1.292 0.513-0.519-0.001-0.91-0.199-1.231-0.493-0.309-0.283-0.546-0.649-0.771-1.006-0.053-0.085-0.481-0.765-0.534-0.85-0.196-0.292-0.298-0.559-0.304-0.778-0.003-0.103 0.015-0.197 0.053-0.279 0.040-0.087 0.101-0.159 0.184-0.214 0.039-0.026 0.083-0.049 0.131-0.067-0.035-0.461-0.048-1.041-0.025-1.527 0.011-0.116 0.034-0.231 0.066-0.347 0.137-0.488 0.479-0.881 0.903-1.151 0.149-0.095 0.313-0.174 0.486-0.237 1.027-0.372 2.389-0.169 3.118 0.62 0.297 0.321 0.483 0.747 0.524 1.311-0.002 0.092-0.013 0.554-0.033 1.387 0.134 0.069 0.218 0.139 0.253 0.208zM16.409 10.551l0.482-1.669c-0.142-0.155-0.22-0.241-0.236-0.258-0.106-0.155-0.129-0.291-0.071-0.408 0.128-0.253 0.393-0.206 0.64-0.206 0.259 0 0.578-0.049 0.659 0.275 0.027 0.109-0.007 0.222-0.083 0.339-0.016 0.017-0.095 0.103-0.236 0.258l0.481 1.669c0.52-1.688 0.418-2.79 0.475-2.978 0.772 0.343 2.866 0.839 3.555 1.223 0.217 0.121 0.415 0.276 0.572 0.484 0.24 0.317 0.388 0.731 0.427 1.257 0.015 0.139 0.129 1.255 0.144 1.394-0.035 0.372-0.246 0.586-0.662 0.618-1.075 0-9.676 0-10.751 0-0.415-0.032-0.626-0.246-0.661-0.618 0.014-0.139 0.129-1.255 0.143-1.394 0.040-0.526 0.188-0.94 0.428-1.257 0.158-0.209 0.354-0.363 0.572-0.484 0.688-0.384 2.888-0.709 3.488-1.223 0 0-0.005 1.102 0.633 2.978zM20.002 3.725c0.086 0.174 0.051 0.437-0.115 0.815h-0.001c-0.003 0.006 0.004 3.739 0.001 3.744-0.061 0.1-1.477-0.812-1.538-0.712-0.082-0.257 0.445-1.237 0.127-0.938-0.33 0.309-0.736 0.514-1.292 0.513-0.519-0.001-0.903-0.22-1.223-0.513-0.31-0.283 0.086 0.681-0.012 0.938-0.053-0.085-1.246 0.645-1.3 0.56-0.196-0.292-0.3-3.893-0.306-4.112-0.003-0.104 0.015-0.197 0.053-0.279 0.040-0.086 0.101-0.159 0.185-0.214 0.039-0.026 0.082-0.049 0.13-0.067-0.035-0.461-0.048-1.041-0.025-1.527 0.012-0.115 0.034-0.231 0.066-0.346 0.137-0.488 0.479-0.881 0.903-1.152 0.15-0.095 0.314-0.174 0.487-0.236 1.027-0.372 2.389-0.169 3.117 0.62 0.297 0.321 0.483 0.747 0.524 1.31-0.002 0.092-0.013 0.555-0.033 1.387 0.134 0.069 0.218 0.139 0.253 0.208z"></path>
</svg>
