<svg width="168" height="126" viewBox="0 0 168 126" fill="none" xmlns="http://www.w3.org/2000/svg">
<path fill-rule="evenodd" clip-rule="evenodd" d="M64.0642 1.01367H123.71L137.306 25.2154H165.3C166.788 25.2154 168 26.468 168 27.9191V122.358C168 123.806 166.75 125.059 165.3 125.059H2.70375C1.25265 125.059 0 123.843 0 122.358V27.9191C0 26.4308 1.21537 25.2154 2.70375 25.2154H15.2914V16.5311H30.8461V25.2154H47.7406C51.2563 18.2767 54.7722 11.3349 58.2881 4.39913C60.4243 0.16711 59.2494 1.01341 64.0642 1.01341V1.01367ZM150.492 37.1704C154.944 37.1704 158.556 40.7824 158.556 45.2347C158.556 49.6869 154.944 53.2989 150.492 53.2989C146.04 53.2989 142.428 49.6869 142.428 45.2349C142.428 40.7824 146.04 37.1704 150.492 37.1704ZM91.1153 46.5742C104.615 46.5742 115.562 57.5218 115.562 71.018C115.562 84.5141 104.615 95.462 91.1153 95.462C77.616 95.462 66.6684 84.5141 66.6684 71.018C66.6684 57.5218 77.616 46.574 91.1153 46.574V46.5742ZM91.1153 30.6473C113.41 30.6473 131.489 48.7257 131.489 71.018C131.489 93.31 113.411 111.392 91.1153 111.392C68.8233 111.392 50.7447 93.31 50.7447 71.018C50.7447 48.7257 68.823 30.6473 91.1153 30.6473Z" fill="#D4AF37"/>
</svg>
