<svg width="168" height="171" viewBox="0 0 168 171" fill="none" xmlns="http://www.w3.org/2000/svg">
<path fill-rule="evenodd" clip-rule="evenodd" d="M56.4073 0.00146484H160.734C162.721 0.00146484 164.533 0.816628 165.855 2.12959L165.861 2.13727L165.868 2.14239L165.873 2.14879C167.186 3.46815 168 5.27635 168 7.25475V106.952C168 108.948 167.182 110.763 165.867 112.076C164.551 113.388 162.733 114.205 160.732 114.205H124.105C124.08 111.992 123.955 109.805 123.725 107.649H160.734C160.921 107.649 161.094 107.568 161.223 107.44C161.353 107.312 161.432 107.137 161.432 106.952V25.9945C161.205 26.0355 160.972 26.056 160.734 26.056H56.4073C56.1688 26.056 55.9341 26.0342 55.7071 25.9945V46.7678C53.4913 46.7703 51.2999 46.8817 49.1392 47.0902V7.25731C49.1392 5.25971 49.956 3.44511 51.2717 2.13215C51.3486 2.05537 51.4294 1.98243 51.5128 1.9146C52.8066 0.730889 54.5261 0.00402423 56.4073 0.00402423V0.00146484ZM98.9167 139.274C99.1049 138.936 99.29 138.596 99.4719 138.254L99.4809 138.238C99.7001 137.823 99.9143 137.408 100.117 136.997C100.348 136.533 100.575 136.061 100.798 135.581C101.029 135.083 101.244 134.602 101.445 134.137L101.531 133.981C101.836 133.251 102.124 132.517 102.393 131.784C102.664 131.046 102.917 130.296 103.155 129.536L103.16 129.519C103.393 128.765 103.61 128 103.807 127.224C104.005 126.446 104.183 125.658 104.337 124.863C104.46 124.23 104.573 123.608 104.672 122.999C104.769 122.395 104.859 121.769 104.94 121.12L104.941 121.11C105.008 120.55 105.067 119.981 105.117 119.404C105.156 118.945 105.188 118.491 105.214 118.047H91.5435C91.4537 119.825 91.2562 121.596 90.9536 123.356C90.6305 125.231 90.1868 127.099 89.6251 128.956C89.0738 130.777 88.407 132.592 87.6299 134.4C86.931 136.024 86.136 137.648 85.2487 139.271L98.9154 139.275L98.9167 139.274ZM94.7646 145.573H81.3505C80.2233 147.185 79.0052 148.79 77.6998 150.384C76.3534 152.029 74.9044 153.671 73.3592 155.31C71.9346 156.82 70.4176 158.336 68.8071 159.857C67.4966 161.095 66.136 162.326 64.7281 163.549L65.8514 163.342C66.6233 163.186 67.4068 163.007 68.1993 162.806C68.993 162.605 69.7726 162.387 70.5382 162.15C71.3063 161.913 72.0744 161.653 72.8386 161.37C73.6041 161.088 74.3581 160.786 75.098 160.464C75.8687 160.133 76.615 159.794 77.3356 159.446C78.0657 159.094 78.7878 158.726 79.5014 158.341C80.2157 157.958 80.9132 157.56 81.5954 157.151C82.2814 156.739 82.9521 156.314 83.6048 155.881C84.2619 155.442 84.9084 154.988 85.5436 154.519C86.177 154.051 86.7938 153.569 87.3965 153.076C88.613 152.077 89.7796 151.019 90.8921 149.906C91.3293 149.468 91.7563 149.028 92.1705 148.586C92.5872 148.141 92.9924 147.693 93.381 147.245C93.6977 146.881 94.0119 146.508 94.3183 146.131L94.7633 145.575L94.7646 145.573ZM46.8952 163.542C45.4795 162.314 44.1177 161.08 42.8111 159.845C41.2133 158.335 39.7002 156.824 38.273 155.31C36.7266 153.671 35.2789 152.029 33.9325 150.384C32.6258 148.79 31.4089 147.185 30.2818 145.573H16.8985L17.3434 146.128C17.6499 146.504 17.9628 146.877 18.2795 147.241C19.0719 148.149 19.9016 149.036 20.7659 149.899L20.7851 149.921C21.3416 150.473 21.9097 151.014 22.4905 151.54C23.6496 152.592 24.8607 153.586 26.1194 154.518C26.7529 154.986 27.3992 155.44 28.057 155.878C28.7033 156.312 29.3765 156.741 30.0753 157.162C30.7562 157.572 31.4461 157.966 32.1385 158.339C32.8605 158.728 33.5888 159.099 34.3184 159.448C35.0468 159.796 35.7944 160.134 36.5586 160.458C36.6253 160.49 36.6625 160.517 36.724 160.554C37.4549 160.857 38.1897 161.144 38.9245 161.411C39.6643 161.68 40.4158 161.935 41.1787 162.17L41.1954 162.177C41.9507 162.41 42.7175 162.625 43.4946 162.822C44.2742 163.019 45.0628 163.195 45.8591 163.349L46.8965 163.542H46.8952ZM12.6797 139.305H26.349C25.4578 137.672 24.6589 136.036 23.9562 134.401C23.1779 132.586 22.5123 130.764 21.961 128.938C21.4006 127.082 20.9582 125.217 20.6363 123.344C20.3359 121.602 20.1402 119.843 20.0503 118.077H6.38876C6.41697 118.523 6.45159 118.976 6.49135 119.436C6.54264 120.025 6.60291 120.598 6.66702 121.155C6.74524 121.802 6.83115 122.428 6.92733 123.032C7.02222 123.632 7.13378 124.253 7.25944 124.893L7.26842 124.944C7.42486 125.718 7.60438 126.5 7.80442 127.288C8.00574 128.078 8.22501 128.856 8.46223 129.619C8.70074 130.384 8.96105 131.152 9.24444 131.916C9.52654 132.677 9.82788 133.426 10.1497 134.16L10.1638 134.194C10.3575 134.652 10.5652 135.119 10.7832 135.591L10.7922 135.61C10.9999 136.059 11.2205 136.519 11.4525 136.985C11.6718 137.427 11.8898 137.851 12.1065 138.255C12.295 138.611 12.4886 138.961 12.681 139.306L12.6797 139.305ZM6.38107 111.807H20.1773C20.3324 110.074 20.5928 108.332 20.9556 106.584C21.3429 104.721 21.8456 102.862 22.4611 101.004L22.4713 100.975C23.0766 99.1583 23.7895 97.3437 24.6102 95.5342C25.3578 93.8847 26.1964 92.2326 27.1235 90.5818H12.6797C12.4822 90.935 12.2886 91.2844 12.1052 91.6299C11.8885 92.0356 11.6705 92.4591 11.4513 92.9019L11.4423 92.9185C11.2115 93.3779 10.9909 93.8374 10.7793 94.2955C10.5588 94.7741 10.3511 95.2437 10.1549 95.7083L10.11 95.7978L10.0574 95.8785C9.75351 96.6066 9.46756 97.336 9.19955 98.068C8.92899 98.8115 8.67253 99.5614 8.43915 100.316C8.20321 101.077 7.98522 101.847 7.78775 102.629C7.59156 103.407 7.4146 104.194 7.25944 104.989C7.13378 105.627 7.01965 106.25 6.9222 106.854C6.82346 107.464 6.7337 108.089 6.65676 108.733C6.58752 109.301 6.52597 109.873 6.47724 110.449C6.43749 110.911 6.40415 111.364 6.37979 111.807H6.38107ZM16.8408 84.3113H31.1076C32.2283 82.7194 33.4298 81.1275 34.7108 79.5406C36.0354 77.8988 37.4485 76.257 38.9475 74.6164C40.3427 73.0897 41.8212 71.5567 43.3817 70.0185C44.6691 68.749 46.0079 67.4808 47.3966 66.2152L46.8054 66.315L45.8078 66.5044C45.0134 66.664 44.2232 66.8441 43.4381 67.0445C42.6431 67.2454 41.8609 67.4655 41.0928 67.7022C40.3247 67.9402 39.5579 68.2 38.7924 68.4828C38.0256 68.7657 37.2716 69.0677 36.533 69.3889C35.7776 69.7134 35.0294 70.0543 34.289 70.4113C33.5597 70.7634 32.8385 71.1316 32.1257 71.5157C31.4089 71.9022 30.7062 72.3027 30.0202 72.7135C29.338 73.1217 28.6725 73.5427 28.0249 73.974C27.3674 74.4123 26.7205 74.8663 26.0848 75.3356C25.4514 75.804 24.8333 76.2851 24.2306 76.7791C23.6331 77.2679 23.0394 77.7811 22.4508 78.3173C21.8763 78.8381 21.3044 79.3845 20.7351 79.9527L20.7133 79.9732C20.2863 80.398 19.8683 80.8293 19.4618 81.2631C19.045 81.7085 18.6385 82.1589 18.2461 82.6132C17.9269 82.9805 17.6101 83.3541 17.3011 83.7355L16.8382 84.3139L16.8408 84.3113ZM64.2588 66.26C65.6501 67.5256 66.9875 68.7874 68.2647 70.0453C69.7754 71.5292 71.2463 73.053 72.6758 74.6151C74.1748 76.2544 75.5866 77.8962 76.9061 79.5381C78.1871 81.13 79.3822 82.7207 80.4926 84.3113H94.7312L94.2799 83.7483C93.976 83.3746 93.6644 83.0061 93.3502 82.6439C92.9604 82.1935 92.5552 81.7456 92.1384 81.3002C91.7396 80.8754 91.3126 80.4352 90.8613 79.9834C90.3007 79.423 89.7265 78.8765 89.1392 78.3441C88.5506 77.8092 87.9582 77.2973 87.3657 76.8098C86.7618 76.3145 86.1424 75.8334 85.509 75.3637C84.8755 74.8954 84.2292 74.4411 83.574 74.0047C82.9239 73.5683 82.2571 73.1435 81.5749 72.7314C80.1979 71.9017 78.7819 71.1381 77.3318 70.4433C76.6073 70.0952 75.8533 69.7561 75.0737 69.426C75.007 69.3927 74.9711 69.3748 74.9121 69.3313C74.1773 69.0267 73.4426 68.7413 72.7091 68.4739C71.9692 68.2051 71.2178 67.9505 70.4561 67.7137L70.4381 67.7074C69.6803 67.4732 68.9135 67.2569 68.1377 67.0611C67.3594 66.864 66.5733 66.6874 65.7783 66.5339L64.7794 66.347L64.2601 66.2587L64.2588 66.26ZM98.9154 90.5818H84.478C85.4038 92.2313 86.2412 93.8809 86.9875 95.5304C87.812 97.3501 88.5288 99.1775 89.1366 101.005C89.7534 102.862 90.2573 104.724 90.6433 106.586C91.0062 108.334 91.2665 110.075 91.4216 111.807H105.208C105.179 111.364 105.145 110.911 105.105 110.448C105.054 109.863 104.995 109.288 104.929 108.73C104.851 108.083 104.765 107.457 104.67 106.853C104.575 106.253 104.465 105.634 104.341 104.994L104.332 104.943C104.175 104.172 103.996 103.39 103.795 102.598C103.593 101.809 103.374 101.031 103.137 100.267C102.899 99.5 102.639 98.7335 102.356 97.9708C102.074 97.2093 101.775 96.4658 101.461 95.7415L101.44 95.7006C101.245 95.2386 101.036 94.769 100.818 94.2955L100.811 94.275C100.598 93.815 100.378 93.3585 100.15 92.9057C99.922 92.4502 99.7053 92.0304 99.4975 91.6414C99.3129 91.2959 99.118 90.9427 98.9154 90.5831V90.5818ZM44.6037 60.3581C45.5219 60.1738 46.4349 60.0113 47.3389 59.8769C48.2403 59.7413 49.1623 59.6287 50.1035 59.5352C51.046 59.4431 51.991 59.3727 52.9361 59.3267C53.8953 59.2806 54.8506 59.2563 55.7969 59.2563C57.7062 59.2563 59.5976 59.3497 61.4788 59.5352C62.42 59.6274 63.3458 59.7413 64.2562 59.8769C65.1602 60.0113 66.0783 60.1725 67.0067 60.3594C67.8954 60.5321 68.7827 60.7318 69.6675 60.9544C70.5446 61.1745 71.4191 61.4202 72.2911 61.6864C73.1579 61.9539 74.0145 62.2431 74.8582 62.5528C75.6994 62.8612 76.5368 63.1926 77.3715 63.5458C77.4728 63.5791 77.5305 63.6072 77.6229 63.661C78.4271 64.0067 79.2232 64.371 80.0105 64.7538C80.8273 65.1492 81.6223 65.5575 82.3943 65.9746L82.4135 65.9849C83.2047 66.4136 83.9843 66.8589 84.7511 67.3196L84.7704 67.3324C85.5487 67.7995 86.3104 68.2819 87.0541 68.7733C87.7799 69.2532 88.498 69.7561 89.2071 70.2795C89.9175 70.8042 90.6164 71.3493 91.3024 71.9111C91.9923 72.4768 92.6706 73.0603 93.3335 73.6618C94.0132 74.276 94.6671 74.8967 95.2954 75.5237L95.3224 75.5506C95.9443 76.1648 96.5547 76.7996 97.1497 77.4522C97.7408 78.0997 98.3204 78.7703 98.8884 79.46C99.4437 80.1357 99.9874 80.8331 100.52 81.5523C101.053 82.2741 101.567 83.0061 102.058 83.7457L102.069 83.7623C102.572 84.5084 103.049 85.257 103.501 86.0031C103.962 86.7658 104.413 87.5502 104.847 88.3513C105.272 89.1332 105.682 89.9343 106.076 90.7469C106.477 91.5761 106.855 92.4028 107.211 93.2269C107.575 94.0703 107.917 94.9251 108.238 95.7927C108.556 96.6552 108.853 97.5318 109.128 98.4199C109.401 99.3016 109.651 100.183 109.875 101.065C110.098 101.94 110.305 102.837 110.491 103.752C110.678 104.666 110.838 105.576 110.974 106.482C111.11 107.387 111.224 108.312 111.318 109.256C111.41 110.197 111.481 111.14 111.527 112.084C111.573 113.043 111.597 113.996 111.597 114.942C111.597 115.885 111.573 116.836 111.528 117.791C111.482 118.729 111.413 119.669 111.322 120.608C111.227 121.555 111.11 122.483 110.974 123.392L110.973 123.403C110.838 124.299 110.678 125.205 110.492 126.124C110.32 127.012 110.12 127.899 109.898 128.782C109.678 129.657 109.431 130.531 109.162 131.4C108.895 132.261 108.606 133.116 108.295 133.962C107.988 134.8 107.654 135.635 107.3 136.466C107.27 136.571 107.235 136.634 107.18 136.729C106.83 137.546 106.458 138.358 106.067 139.161C105.674 139.966 105.264 140.764 104.834 141.548C104.405 142.335 103.957 143.112 103.493 143.878C103.035 144.636 102.556 145.387 102.061 146.133C101.579 146.861 101.071 147.583 100.544 148.295C100.014 149.01 99.4719 149.702 98.9205 150.373L98.9038 150.392C98.3319 151.088 97.7472 151.763 97.1561 152.413L97.1368 152.432C96.5316 153.097 95.9161 153.741 95.2954 154.359L95.257 154.397C94.6351 155.024 94.0016 155.63 93.3579 156.215C92.7103 156.802 92.041 157.379 91.3511 157.945C90.6642 158.507 89.9625 159.052 89.2469 159.578C88.5301 160.106 87.8004 160.615 87.0605 161.107C86.3194 161.607 85.5667 162.086 84.8063 162.545C84.03 163.013 83.2429 163.463 82.4456 163.894C81.6557 164.319 80.8504 164.731 80.0323 165.124C79.2052 165.522 78.3807 165.897 77.56 166.249C76.7124 166.613 75.8533 166.955 74.9813 167.275C74.1143 167.594 73.2391 167.889 72.3565 168.162C71.4768 168.433 70.5972 168.681 69.7201 168.904C68.8366 169.128 67.9338 169.334 67.0131 169.521C66.0976 169.708 65.1846 169.869 64.278 170.005C63.3714 170.14 62.4443 170.254 61.4993 170.346C59.6051 170.532 57.7028 170.625 55.7995 170.625C54.8544 170.625 53.9017 170.601 52.9464 170.556C52.0064 170.51 51.0652 170.441 50.1253 170.35C49.1803 170.258 48.2532 170.143 47.344 170.006C46.4242 169.867 45.508 169.706 44.596 169.522C43.7061 169.351 42.8175 169.151 41.9327 168.93C41.0556 168.71 40.1824 168.464 39.3117 168.195C38.4487 167.929 37.596 167.641 36.7561 167.335C35.9001 167.022 35.0523 166.687 34.2133 166.331C34.1235 166.292 34.0658 166.27 33.9786 166.223C33.1811 165.88 32.3796 165.513 31.5795 165.125C30.7803 164.738 29.9898 164.333 29.2085 163.911C28.4186 163.483 27.6384 163.038 26.8683 162.576C26.0832 162.105 25.3085 161.617 24.5448 161.112C23.8177 160.63 23.0984 160.127 22.3892 159.602C21.6801 159.077 20.9813 158.533 20.2965 157.972C19.602 157.403 18.9218 156.817 18.2564 156.215C17.5704 155.594 16.919 154.976 16.3035 154.362L16.274 154.328C15.6444 153.706 15.034 153.073 14.4454 152.428C13.8569 151.783 13.2773 151.114 12.7092 150.425C12.1488 149.743 11.6026 149.042 11.0717 148.321C10.5447 147.607 10.0343 146.879 9.54321 146.141C9.04183 145.401 8.56225 144.65 8.10191 143.891C7.63772 143.126 7.18763 142.339 6.75165 141.535C6.32303 140.743 5.91216 139.941 5.51937 139.131C5.11929 138.304 4.74229 137.48 4.38838 136.66C4.02293 135.814 3.68055 134.956 3.35998 134.087C3.04325 133.228 2.74704 132.353 2.47391 131.468C2.20207 130.591 1.9533 129.712 1.73018 128.836C1.5045 127.954 1.29805 127.053 1.11212 126.134C0.739302 124.314 0.462374 122.475 0.28247 120.625C0.188863 119.685 0.119619 118.741 0.073456 117.798C0.026011 116.841 0.00292969 115.888 0.00292969 114.945C0.00292969 113.04 0.0965373 111.154 0.28247 109.278C0.374795 108.335 0.490202 107.411 0.626125 106.505C0.760767 105.607 0.923618 104.692 1.11083 103.761C1.28266 102.876 1.48142 101.992 1.70325 101.11C1.92381 100.233 2.17129 99.3567 2.44186 98.4865C2.70857 97.6214 2.99709 96.7653 3.30612 95.9233C3.6152 95.0822 3.94614 94.2492 4.29862 93.4253C4.32298 93.3485 4.33965 93.3127 4.37556 93.2359L4.41659 93.1655C4.76794 92.344 5.14109 91.5288 5.53347 90.7226C5.92585 89.9189 6.33619 89.123 6.76576 88.3372C7.20302 87.5336 7.65182 86.7555 8.10704 86.0056C8.56482 85.2468 9.0444 84.4943 9.53936 83.7496C10.0228 83.024 10.5293 82.3035 11.0563 81.5933C11.5782 80.8869 12.1219 80.1933 12.6836 79.5112C13.2519 78.8212 13.8368 78.1449 14.4377 77.4829C15.0438 76.8154 15.6663 76.163 16.3048 75.5263L16.3291 75.5045C16.951 74.8749 17.5883 74.2645 18.2333 73.6771C19.5461 72.4841 20.92 71.3599 22.3495 70.309L22.3739 70.2923C23.0823 69.7708 23.8036 69.2668 24.5371 68.781C25.2783 68.2819 26.0323 67.8008 26.7952 67.3401C27.562 66.8781 28.3481 66.4289 29.1559 65.9938C29.942 65.5703 30.7434 65.1595 31.5589 64.7666C32.3822 64.3699 33.2105 63.9924 34.0402 63.6379L34.0633 63.629C34.9198 63.2591 35.7726 62.92 36.6189 62.6103C37.4793 62.2943 38.3551 61.9986 39.2425 61.7248C41.0007 61.1826 42.7848 60.7282 44.5884 60.3632L44.6037 60.3606V60.3581ZM58.9411 69.9059V84.3101H72.7194C71.8486 83.2032 70.9524 82.1165 70.0317 81.0507C68.9263 79.771 67.7594 78.4887 66.5336 77.2039C65.2961 75.9076 63.9908 74.6036 62.6213 73.2958C61.4467 72.1735 60.2195 71.0435 58.9398 69.9059H58.9411ZM58.9411 90.5805V111.805H85.1256C84.955 110.174 84.6768 108.533 84.2946 106.881C83.8817 105.106 83.3457 103.322 82.6866 101.532C82.0109 99.6945 81.2043 97.8492 80.2695 95.9987C79.3591 94.1982 78.3268 92.39 77.1728 90.5805H58.9411ZM58.9411 118.076V139.303H77.9947C79.1077 137.53 80.0951 135.756 80.9543 133.984C81.839 132.156 82.5905 130.326 83.206 128.498C83.8086 126.705 84.2844 124.907 84.6306 123.106C84.9525 121.433 85.164 119.755 85.2628 118.077H58.9424L58.9411 118.076ZM58.9411 145.571V160.241C60.2788 159.12 61.5938 157.972 62.8854 156.798C64.3319 155.481 65.7078 154.166 67.0106 152.85C68.3134 151.537 69.547 150.226 70.7074 148.919C71.6961 147.806 72.6386 146.689 73.531 145.571H58.9411ZM52.6578 160.244V145.571H38.064C38.9714 146.713 39.9091 147.831 40.8761 148.923C42.0302 150.227 43.2599 151.535 44.5601 152.845C45.863 154.159 47.2414 155.476 48.6917 156.794C49.956 157.943 51.2781 159.093 52.6566 160.244H52.6578ZM52.6578 139.305V118.077H26.3374C26.4375 119.752 26.6503 121.429 26.9747 123.104C27.3235 124.907 27.8018 126.706 28.4071 128.499C29.0238 130.329 29.7778 132.159 30.6613 133.988C31.5205 135.765 32.5027 137.538 33.6042 139.306H52.6578V139.305ZM52.6578 111.807V90.5818H34.4262C33.2734 92.3913 32.2411 94.1982 31.3294 96C30.3933 97.8505 29.5868 99.6958 28.9123 101.533C28.2532 103.324 27.7159 105.108 27.3043 106.883C26.9222 108.532 26.6439 110.174 26.4734 111.807H52.6578ZM52.6578 84.3113V69.9071C51.382 71.0422 50.1574 72.1696 48.9866 73.2881C47.6507 74.5639 46.3441 75.8699 45.0679 77.2052C43.8699 78.4582 42.7036 79.7408 41.5698 81.052C40.6312 82.1397 39.7349 83.2262 38.8821 84.3113H52.6578ZM119.122 89.32H146.848C148.377 89.32 149.617 90.665 149.617 92.3248C149.617 93.9832 148.377 95.3295 146.848 95.3295H121.243C120.632 93.2941 119.924 91.2887 119.123 89.32H119.122ZM112.079 76.2928C112.304 76.2288 112.54 76.1955 112.782 76.1955H146.846C148.376 76.1955 149.616 77.5405 149.616 79.2003C149.616 80.8587 148.376 82.205 146.846 82.205H115.734C114.617 80.1741 113.396 78.2013 112.078 76.2941L112.079 76.2928ZM66.1566 33.5678H149.288V66.0489H103.403C93.4413 56.3859 80.5362 49.7277 66.1578 47.5458V33.569L66.1566 33.5678ZM97.6241 9.3688C100.231 9.3688 102.346 11.4777 102.346 14.0806C102.346 16.6835 100.232 18.7937 97.6241 18.7937C95.0159 18.7937 92.9014 16.6835 92.9014 14.0806C92.9014 11.4777 95.0159 9.3688 97.6241 9.3688ZM81.1133 9.3688C83.7215 9.3688 85.836 11.4777 85.836 14.0806C85.836 16.6835 83.7215 18.7937 81.1133 18.7937C78.5051 18.7937 76.3918 16.6835 76.3918 14.0806C76.3918 11.4777 78.5051 9.3688 81.1133 9.3688ZM64.6037 9.3688C67.2119 9.3688 69.3251 11.4777 69.3251 14.0806C69.3251 16.6835 67.2106 18.7937 64.6037 18.7937C61.9955 18.7937 59.8823 16.6835 59.8823 14.0806C59.8823 11.4777 61.9955 9.3688 64.6037 9.3688Z" fill="#D4AF37"/>
</svg>
