<svg width="168" height="142" viewBox="0 0 168 142" fill="none" xmlns="http://www.w3.org/2000/svg">
<path d="M45.8876 17.7728C48.2632 22.4663 48.7777 28.8897 46.6384 33.9874C45.7774 36.0402 44.499 37.8698 42.7744 39.2637C42.0131 39.8832 41.16 40.4266 40.2176 40.8938C28.5495 46.6898 16.3774 38.5812 9.9225 28.7899C3.98475 19.7836 1.3965 8.53281 0 0.825806C14.1908 10.9872 36.9337 0.0724316 45.8876 17.7728ZM90.1976 56.5913C97.5424 63.5581 156.298 119.274 163.643 126.238C167.48 129.876 169.662 132.953 166.438 138.525C164.834 140.163 163.144 141.043 161.364 141.161C159.587 141.279 157.72 140.639 155.77 139.237C150.184 135.186 122.257 114.942 71.988 78.4996C81.3514 69.4459 87.4204 62.1458 90.1976 56.5913ZM54.3952 36.0717C57.5794 37.8173 83.055 51.7954 86.2391 53.5437C81.6454 62.6866 75.7969 70.5196 67.7644 76.0767C59.3959 64.8338 54.6892 58.0508 45.1631 47.3854C48.5887 45.5427 53.2901 41.0172 54.3952 36.0717Z" fill="#D4AF37"/>
</svg>
