<svg width="202" height="194" viewBox="0 0 202 194" fill="none" xmlns="http://www.w3.org/2000/svg">
<path fill-rule="evenodd" clip-rule="evenodd" d="M141.727 103.838C157.934 89.7164 181.091 93.2839 193.448 111.805C205.805 130.327 202.683 156.79 186.476 170.91C170.268 185.032 147.112 181.465 134.754 162.943C131.562 158.158 129.406 152.843 128.238 147.348L104.926 150.655C102.64 151.005 100.538 149.173 100.231 146.561C99.9245 143.949 101.528 141.547 103.814 141.196L127.199 137.879C127.073 125.011 132.083 112.239 141.727 103.837L141.727 103.838ZM104.957 4.2079C122.464 -5.70015 143.686 2.4865 152.357 22.4935C161.028 42.5005 153.864 66.7524 136.356 76.6611C122.77 84.3503 106.948 81.1404 96.4897 69.9678L79.7739 86.8049C78.0577 88.5593 75.4206 88.3926 73.8853 86.4307C72.35 84.4695 72.496 81.456 74.2128 79.7015L91.1155 62.6763C90.3304 61.3105 89.6074 59.8764 88.9567 58.3749C80.2864 38.3679 87.4503 14.116 104.958 4.20721L104.957 4.2079ZM7.22837 138.135C3.53485 140.052 2.44037 144.841 3.11214 149.956C3.42088 152.284 4.08602 154.656 5.03035 156.917C5.97529 159.177 7.19159 161.263 8.62738 162.978C11.9145 166.947 16.3147 168.968 20.8615 166.348C21.2191 166.158 21.5966 166.133 21.9325 166.248C22.0151 166.202 22.0682 166.16 22.1791 166.109C23.3351 165.492 24.3802 164.927 25.3426 164.409C26.4166 163.839 27.4405 163.344 28.4065 162.858C29.1549 162.507 30.0226 162.906 30.3266 163.728C30.3634 163.79 30.3712 163.855 30.379 163.921L31.0701 166.022C32.8321 171.434 34.5459 176.687 36.507 180.83C36.5437 180.891 36.791 181.489 37.0629 182.048C38.2563 184.672 39.5595 187.479 40.9754 189.03C42.22 190.375 43.7408 190.605 45.7959 188.208C46.1722 187.681 46.5521 187.186 46.9314 186.692C48.1495 185.129 49.3387 183.571 49.6161 181.487C49.241 181.044 48.6018 180.842 47.9626 180.642C45.8321 179.972 43.7348 179.33 43.6733 174.421L43.6769 173.717C43.6799 172.277 43.6504 171.546 43.5575 171.26C43.5093 171.1 43.1535 170.821 42.4751 170.291L42.2176 170.098C40.8891 169.035 40.2457 167.328 40.0455 165.419C39.8019 163.148 40.139 160.585 40.587 158.708C40.7209 158.118 41.1092 157.69 41.6146 157.51C56.3054 152.799 65.7994 154.323 73.3589 155.582C73.6869 155.631 74.015 155.68 74.3141 155.733C66.9005 149.099 60.1961 138.37 55.1482 127.048C49.7915 115.105 46.285 102.47 45.6856 93.328C40.938 104.278 32.416 121.842 8.83663 136.177C8.80769 136.182 8.78296 136.219 8.75402 136.223L8.56105 136.32C8.31441 136.46 8.28185 136.431 8.2318 136.506C8.18235 136.58 8.23964 136.571 8.17331 136.749C8.17693 136.782 8.19381 136.679 7.96949 137.249C7.8121 137.642 7.55159 137.917 7.25129 138.098L7.22656 138.135H7.22837ZM68.8175 126.009C69.3102 130.114 66.6611 138.058 64.4927 138.532C69.2668 146.35 74.7398 152.922 80.4625 156.442C80.7827 156.426 81.0456 156.418 81.3327 156.373C81.8465 156.259 82.3192 156.051 82.8179 155.571C83.831 154.007 84.3219 151.756 84.4015 148.999C84.583 140.505 80.6326 127.839 75.1324 115.918C69.628 103.965 62.5853 92.8546 56.6093 87.4664C54.4119 85.5018 52.4274 84.3406 50.8438 84.3206C50.4338 84.3179 50.1998 84.3213 50.0925 84.4047C49.9851 84.4881 49.7789 84.7217 49.5063 85.1324C49.3821 85.3191 49.2338 85.5431 49.0884 85.8001C49.0673 85.8704 49.0715 85.9035 49.0504 85.9738C47.3011 92.1372 49.5992 104.459 54.3649 117.332C56.6256 115.672 67.5765 115.429 68.8459 126.005L68.8169 126.01L68.8175 126.009ZM80.717 159.782C80.4088 159.897 80.0886 159.913 79.7485 159.766C79.482 159.741 79.1871 159.72 78.8916 159.7C76.9397 159.537 75.0003 159.239 72.9096 158.897C65.7729 157.74 56.8113 156.266 43.1734 160.477C42.9038 161.891 42.7519 163.555 42.8966 165.005C43.0226 166.055 43.3012 166.916 43.853 167.364L44.1105 167.558C45.2749 168.48 45.8556 168.924 46.2446 169.968C46.5847 170.851 46.5841 171.822 46.6034 173.692L46.5998 174.396C46.6209 176.768 47.6858 177.103 48.7224 177.443C50.0907 177.864 51.4589 178.286 52.3357 180.223C52.4865 180.501 52.5546 180.825 52.5401 181.195C52.3749 184.701 50.7274 186.832 49.0764 188.932C48.7212 189.389 48.3413 189.884 48.015 190.336L47.9409 190.449C44.3336 194.795 41.4192 194.181 38.9299 191.493C37.1468 189.563 35.7544 186.502 34.4187 183.666C34.3011 183.417 34.1829 183.168 33.8663 182.481C31.8564 178.178 30.0986 172.798 28.292 167.259L28.1062 166.686C27.584 166.969 27.0286 167.223 26.5064 167.505C25.433 168.075 24.3838 168.608 23.3966 169.164C23.2567 169.219 23.1783 169.298 23.1247 169.34C22.4704 169.744 22.2026 169.953 21.5598 169.72C15.851 172.655 10.4521 170.121 6.47942 165.323C4.83558 163.338 3.43656 160.948 2.36981 158.404C1.30307 155.861 0.566172 153.132 0.218228 150.476C-0.599472 144.146 0.820647 138.168 5.4989 135.427C5.67378 134.932 5.78956 134.679 6.07057 134.334C6.3763 133.951 6.65128 133.808 7.1952 133.455L7.38817 133.358C7.41712 133.354 7.44184 133.316 7.44184 133.316C31.6798 118.609 39.4461 100.361 43.8789 89.9624C45.1115 87.0585 46.0956 84.763 47.1618 83.1567C47.6828 82.3725 48.091 81.8736 48.6922 81.5118C49.2929 81.15 49.9501 81.0136 50.8607 81.0384C53.1498 81.0811 55.6909 82.4903 58.3828 84.9126C64.6856 90.584 72.0093 102.085 77.6759 114.415C83.3751 126.773 87.4823 140.016 87.2857 149.116C87.2109 152.641 86.5151 155.628 85.0153 157.77C84.9659 157.845 84.9158 157.92 84.8338 157.966C83.8443 158.991 82.8487 159.482 81.7892 159.681C81.4153 159.74 81.042 159.798 80.6929 159.819L80.7176 159.782H80.717ZM110.277 40.0658L119.911 29.8222C119.722 29.4018 119.566 28.958 119.447 28.5046C119.446 28.5025 119.445 28.4984 119.445 28.4963C118.371 24.3996 120.407 20.0823 123.992 18.855C127.578 17.6277 131.356 19.9548 132.43 24.0523C133.504 28.1497 131.467 32.467 127.882 33.6943C126.464 34.1794 125.016 34.1105 123.717 33.5951L113.591 44.3618C113.63 44.4893 113.668 44.6195 113.702 44.7497C113.761 44.9771 113.811 45.2059 113.851 45.4354L126.397 47.8576C127.232 46.2224 128.592 44.9317 130.304 44.3459C133.889 43.1193 137.668 45.4451 138.741 49.5439C139.815 53.6407 137.778 57.9579 134.192 59.1853C130.607 60.4126 126.83 58.0847 125.756 53.9873C125.715 53.8309 125.678 53.673 125.646 53.5173L112.959 51.0675C112.118 52.6125 110.8 53.8274 109.154 54.3911C105.568 55.6184 101.79 53.2913 100.716 49.1938C99.6423 45.0964 101.679 40.7791 105.265 39.5518C107 38.9584 108.78 39.1969 110.277 40.0658H110.277ZM171.375 124.196L179.668 122.978C182.196 122.607 184.529 124.667 184.854 127.555L185.896 136.821C186.221 139.71 184.418 142.377 181.891 142.748L178.321 143.272C179.092 145.506 179.943 147.49 182.048 149.127C178.316 148.602 175.286 146.876 172.89 144.069L172.273 144.159C172.033 144.194 171.779 144.209 171.517 144.207C172.74 142.742 173.51 141.016 173.317 139.299L172.882 135.438L172.489 131.934L171.839 126.152C171.761 125.463 171.603 124.807 171.377 124.195L171.375 124.196ZM148.353 123.433L161.201 121.547L161.202 121.552C164.705 121.038 167.926 123.88 168.376 127.884L168.38 127.883V127.884L168.376 127.884L169.555 138.371L169.559 138.37V138.371L169.555 138.372C169.794 140.51 168.704 142.563 167.119 144.118C165.643 145.567 163.692 146.618 162.05 146.858L162.05 146.864H162.049L162.049 146.858L161.917 146.878C160.943 148.698 159.755 150.306 158.345 151.689C156.784 153.219 154.964 154.465 152.872 155.415L152.871 155.411C152.477 155.587 152.012 155.514 151.672 155.174C151.187 154.689 151.138 153.845 151.562 153.29C152.398 152.196 152.911 151.11 153.247 150.001C153.433 149.384 153.568 148.748 153.674 148.093L151.165 148.462L151.164 148.456C149.411 148.713 147.729 148.13 146.431 146.986C145.134 145.84 144.216 144.128 143.99 142.123L143.986 142.124V142.123L143.991 142.123L142.812 131.636L142.807 131.636V131.635L142.811 131.634C142.362 127.63 144.848 123.951 148.353 123.437L148.352 123.432H148.353V123.433Z" fill="#D4AF37"/>
</svg>
