<svg width="56" height="71" viewBox="0 0 56 71" fill="none" xmlns="http://www.w3.org/2000/svg">
<rect x="21.1079" y="70.1417" width="5.78027" height="0.567586" fill="white"/>
<g filter="url(#filter0_i)">
<path fill-rule="evenodd" clip-rule="evenodd" d="M20.4792 0.0508903C20.445 0.0790057 19.9382 0.142933 19.3527 0.193038C18.1516 0.295761 16.0954 0.624035 15.7594 0.766496C15.6371 0.818486 15.1603 0.95655 14.6998 1.07357C13.6946 1.32896 13.6915 1.3299 12.2024 1.92943C10.6138 2.56902 10.5727 2.58787 10.5727 2.67378C10.5727 2.71494 10.5141 2.74871 10.4427 2.74871C10.334 2.74871 9.33163 3.2763 9.13717 3.43588C9.10425 3.4629 8.80815 3.66049 8.47933 3.87505C8.15032 4.0896 7.73843 4.38772 7.56387 4.53772C7.38951 4.68756 7.21361 4.81024 7.17304 4.81024C7.08557 4.81024 6.26619 5.49176 6.26619 5.56464C6.26619 5.59228 6.11671 5.73207 5.93412 5.87516C5.75133 6.01841 5.38806 6.35627 5.12661 6.62627C4.86516 6.89611 4.58591 7.17381 4.50591 7.24339C4.42609 7.31282 4.26627 7.50067 4.15124 7.66072C4.03602 7.82062 3.89956 7.95161 3.84788 7.95161C3.79639 7.95161 3.75409 7.99041 3.75409 8.03784C3.75409 8.13161 3.00228 9.20251 2.80112 9.39539C2.73317 9.46073 2.67748 9.5556 2.67748 9.60633C2.67748 9.65722 2.51594 9.95063 2.31861 10.2585C2.12127 10.5665 1.95973 10.8802 1.95973 10.9557C1.95973 11.0313 1.90595 11.093 1.84011 11.093C1.77427 11.093 1.72049 11.1792 1.72049 11.2848C1.72049 11.4657 1.65886 11.6159 1.29577 12.3202C1.21213 12.4821 1.07988 12.8134 1.00179 13.0564C0.923696 13.2993 0.816896 13.5423 0.764644 13.5964C0.712393 13.6502 0.640044 13.8932 0.60387 14.1362C0.567887 14.3792 0.478887 14.8209 0.406347 15.1179C0.0761847 16.468 -0.000948235 17.3913 8.75609e-06 19.9773C0.00115715 22.5389 0.0855636 23.5888 0.399074 24.9347C0.468169 25.2317 0.555446 25.6734 0.593152 25.9164C0.630666 26.1594 0.710478 26.4465 0.770769 26.5545C0.830868 26.6624 0.956808 26.9992 1.05059 27.3028C1.14419 27.6064 1.27434 27.9377 1.33941 28.039C1.40468 28.1405 1.5222 28.4221 1.60086 28.6651C1.67953 28.9081 1.79245 29.1836 1.85179 29.2773C1.91112 29.3711 1.95973 29.5147 1.95973 29.5963C1.95973 29.678 2.01352 29.7449 2.07936 29.7449C2.1452 29.7449 2.19898 29.807 2.19898 29.8828C2.19898 30.0091 2.40493 30.3903 2.89357 31.1684C3.2199 31.6879 3.33397 31.8544 3.39809 31.9046C3.43274 31.9316 3.59408 32.1635 3.75677 32.42C3.91965 32.6765 4.09325 32.8863 4.14263 32.8863C4.1922 32.8863 4.23259 32.9526 4.23259 33.0336C4.23259 33.1145 4.28637 33.1808 4.35221 33.1808C4.41805 33.1808 4.47184 33.2471 4.47184 33.3281C4.47184 33.409 4.52198 33.4753 4.58342 33.4753C4.64467 33.4753 4.72544 33.5526 4.76257 33.6471C4.7997 33.7415 4.97828 33.9514 5.15934 34.1135C5.3404 34.2754 5.64721 34.5847 5.84091 34.8007C6.25969 35.2672 8.04888 36.7395 8.70403 37.1567C8.9584 37.3186 9.36397 37.5918 9.60494 37.7638C10.0792 38.1019 11.5945 38.9727 11.7088 38.9727C11.7473 38.9727 11.882 39.0516 12.0078 39.1477C12.1337 39.244 12.4411 39.3828 12.6907 39.4562C12.9402 39.5294 13.1715 39.6189 13.2044 39.655C13.329 39.7917 14.4402 40.2489 14.6479 40.2489C14.7673 40.2489 14.8983 40.293 14.939 40.3471C14.9796 40.4011 15.1174 40.4452 15.2451 40.4452C15.3727 40.4452 15.4772 40.4894 15.4772 40.5434C15.4772 40.5974 15.5741 40.6416 15.6926 40.6416C15.811 40.6416 15.959 40.678 16.0216 40.7226C16.084 40.7672 16.3506 40.8558 16.6138 40.9193C16.8769 40.9829 17.5162 41.1451 18.0345 41.2799C18.5528 41.4148 19.0669 41.5251 19.177 41.5251C19.287 41.5251 19.4281 41.5647 19.4907 41.6132C19.5531 41.6617 19.8465 41.7293 20.1426 41.7634C20.4387 41.7975 19.8933 41.8182 20.354 41.8731C20.8145 41.9281 20.4582 42.0258 20.9185 42.0552C21.379 42.0846 21.1491 42.1832 21.1976 42.2459C21.2462 42.3084 21.2866 46.3463 21.2875 51.2192L21.1976 68.0894L23.9774 70.0286L27.0314 68.0894V51.2067C27.0314 44.2284 27.0633 42.3128 27.1809 42.233C27.2632 42.1772 27.7072 42.1078 28.1679 42.0786C29.4106 41.9998 31.6031 41.8811 31.9208 41.7821C32.1549 41.7092 35.0317 41.4873 35.4177 41.418C35.5821 41.3885 37.7967 40.9163 37.9283 40.8718C38.0598 40.8274 38.3344 40.8046 38.5646 40.7397C38.9568 40.6292 39.1092 40.5816 39.7907 40.3563C40.3102 40.1845 42.4531 39.3242 42.5122 39.2636C42.5452 39.23 42.7471 39.14 42.9609 39.0637C43.1747 38.9873 43.3496 38.8914 43.3496 38.8505C43.3496 38.8098 43.4131 38.7764 43.4908 38.7764C43.5686 38.7764 44.0187 38.5334 44.4911 38.2365C44.9636 37.9395 45.383 37.6965 45.423 37.6965C45.5072 37.6965 47.0231 36.5352 47.6013 36.0277C48.6605 35.098 48.9156 34.8516 49.4294 34.2607C49.7346 33.9098 50.0256 33.6079 50.0763 33.5898C50.1268 33.5719 50.1682 33.5147 50.1682 33.4629C50.1682 33.4111 50.3006 33.2513 50.4625 33.1081C50.6243 32.9648 50.8193 32.7239 50.8957 32.5725C50.972 32.4211 51.0717 32.2973 51.1173 32.2973C51.1628 32.2973 51.2741 32.1427 51.3644 31.9538C51.4547 31.7647 51.5724 31.6101 51.626 31.6101C51.6794 31.6101 51.7233 31.5218 51.7233 31.4138C51.7233 31.3059 51.777 31.2174 51.8429 31.2174C51.9087 31.2174 51.9625 31.1292 51.9625 31.0211C51.9625 30.9132 52.0163 30.8248 52.0821 30.8248C52.148 30.8248 52.2018 30.7401 52.2018 30.6366C52.2018 30.5331 52.2441 30.4337 52.2957 30.4158C52.3474 30.3977 52.597 29.9854 52.8506 29.4996C53.1044 29.0136 53.412 28.4287 53.5343 28.1998C53.6568 27.971 53.7569 27.6754 53.7569 27.543C53.7569 27.4106 53.8106 27.275 53.8765 27.2417C53.9423 27.2083 53.9961 27.0757 53.9961 26.9472C53.9961 26.8186 54.044 26.689 54.1025 26.6593C54.1611 26.6296 54.2361 26.4614 54.2696 26.2855C54.3029 26.1094 54.4143 25.7225 54.5171 25.4255C55.1418 23.6217 55.4173 19.8158 55.1034 17.3267C54.8959 15.6827 54.5253 13.8905 54.3521 13.6945C54.3045 13.6405 54.2298 13.4416 54.1862 13.2527C54.0126 12.4997 53.9647 12.3692 53.8629 12.3692C53.8045 12.3692 53.7569 12.236 53.7569 12.0734C53.7569 11.9107 53.6947 11.6787 53.6185 11.5579C53.3283 11.0972 53.2784 10.9931 53.2784 10.8489C53.2784 10.7672 53.2246 10.7003 53.1588 10.7003C53.0929 10.7003 53.0391 10.6505 53.0391 10.5897C53.0391 10.4661 52.1993 9.01026 52.0837 8.93329C52.0431 8.90628 51.917 8.72031 51.8035 8.52005C51.6898 8.31963 51.4191 7.96465 51.2017 7.73093C50.9843 7.49721 50.7571 7.23679 50.6966 7.15229C50.3153 6.61857 47.4455 4.02489 47.2363 4.02489C47.2 4.02489 46.9973 3.87034 46.786 3.68138C46.5746 3.49227 46.3605 3.33771 46.3099 3.33771C46.2596 3.33771 46.0609 3.21426 45.8684 3.06316C45.6758 2.91221 45.3667 2.72452 45.1817 2.64598C44.9964 2.56745 44.7767 2.45043 44.6934 2.38588C44.61 2.32132 44.3275 2.16959 44.0652 2.04881C43.8032 1.92786 43.5888 1.79294 43.5888 1.74896C43.5888 1.70483 43.4813 1.66886 43.3496 1.66886C43.2181 1.66886 43.1104 1.6354 43.1104 1.59472C43.1104 1.55388 42.9354 1.46106 42.7216 1.38833C42.5078 1.31561 42.1045 1.17236 41.8257 1.0698C41.5468 0.967387 41.248 0.883513 41.1617 0.883513C41.0756 0.883513 40.952 0.840005 40.8871 0.786758C40.2606 0.272672 32.8751 -0.116859 30.8593 0.166493C29.4797 0.360473 27.5439 0.9399 27.4102 1.19891C27.3883 1.24147 27.2672 1.27618 27.141 1.27618C27.0149 1.27618 26.9117 1.32032 26.9117 1.37435C26.9117 1.42838 26.831 1.47252 26.7324 1.47252C26.6336 1.47252 26.5529 1.50723 26.5529 1.54948C26.5529 1.59189 26.4043 1.69854 26.2231 1.7865C25.7942 1.9943 24.0408 3.38279 24.0408 3.51457C24.0408 3.57018 23.9943 3.63065 23.9372 3.64855C23.8134 3.68766 22.8495 4.93275 22.6198 5.35024C22.5306 5.51218 22.4103 5.72139 22.3521 5.81516C22.2939 5.90893 22.2464 6.10982 22.2464 6.26187C22.2464 6.41375 22.1982 6.57993 22.139 6.63129C22.0799 6.6825 22.0009 6.90129 21.9631 7.11726C21.9254 7.33323 21.8387 7.79706 21.7706 8.14795C21.4234 9.93429 21.3844 11.4751 21.3388 25.1802C21.2919 39.3137 21.1558 39.5746 21.1558 39.5746L21.1671 39.4776L21.1744 39.3713L21.1819 39.2333L21.1862 39.1423L21.1901 39.0513L21.1937 38.9602C21.1937 38.9602 21.2 38.8402 21.2 38.7861C21.1639 38.7861 21.018 38.7764 20.9185 38.7764C20.819 38.7764 20.644 38.7354 20.5298 38.6854C20.4155 38.6353 20.2413 38.5694 20.1426 38.5389C20.0438 38.5083 19.5864 38.2832 19.1259 38.0386C18.6652 37.7939 18.2077 37.5641 18.109 37.528C18.0102 37.4917 17.8697 37.4154 17.7966 37.3584C17.7235 37.3014 17.455 37.1223 17.1998 36.9604C16.0026 36.2005 13.6873 34.0508 13.684 33.6962C13.6834 33.6288 13.6291 33.5735 13.5633 33.5735C13.4974 33.5735 13.4436 33.5072 13.4436 33.4263C13.4436 33.3453 13.4032 33.2787 13.3539 33.2782C13.2465 33.2772 12.9651 32.802 12.9651 32.6213C12.9651 32.5511 12.9247 32.4935 12.8754 32.4935C12.826 32.4933 12.6327 32.2393 12.4457 31.929C12.2587 31.6186 12.0569 31.288 11.9972 31.1942C11.9373 31.1004 11.8885 30.9562 11.8885 30.8739C11.8885 30.7915 11.8347 30.6361 11.7689 30.529C11.7031 30.4217 11.5955 30.2461 11.5296 30.1389C11.4638 30.0317 11.41 29.855 11.41 29.7462C11.41 29.6375 11.3562 29.5486 11.2904 29.5486C11.2246 29.5486 11.1708 29.4234 11.1708 29.2704C11.1708 29.1174 11.1306 28.9594 11.0816 28.9192C10.9914 28.8451 10.5342 27.357 10.325 26.4564C9.76457 24.0443 9.55997 20.0544 9.82409 16.6886C10.0025 14.4155 10.2258 13.1713 10.7495 11.5348C11.2894 9.84712 11.3147 9.78084 11.7528 8.90879C11.8945 8.62717 12.0558 8.30078 12.1775 8.04978C12.2168 7.96873 12.3839 7.72591 12.5485 7.50994C12.7133 7.29397 12.941 6.95156 13.0545 6.74909C13.168 6.54663 13.302 6.38092 13.3521 6.38092C13.4025 6.38092 13.4436 6.31464 13.4436 6.23375C13.4436 6.1527 13.4974 6.08642 13.5633 6.08642C13.6291 6.08642 13.6829 6.04276 13.6829 5.98935C13.6829 5.76663 15.6979 4.02788 16.6072 3.46588C16.9397 3.26044 17.2297 3.05923 17.2517 3.01871C17.2735 2.97818 17.3903 2.94504 17.5108 2.94504C17.6314 2.94504 17.7482 2.9108 17.77 2.86886C17.8337 2.74714 19.5598 2.06153 19.8025 2.06153C19.9238 2.06153 20.0229 2.01739 20.0229 1.96336C20.0229 1.90933 20.1045 1.86519 20.2042 1.86519C20.3039 1.86519 20.6 1.81022 20.8622 1.74315L21.3388 1.62111V0.810476V0H20.9401C20.7208 0 20.5133 0.0229321 20.4792 0.0508903ZM32.7278 5.05966C33.7141 4.91554 36.7007 5.27056 37.1214 5.46171C37.8814 5.80711 38.8651 6.13668 38.9235 6.18475C38.9564 6.21176 39.1329 6.29721 39.3157 6.37464C39.9123 6.62705 41.889 8.38324 42.3926 9.10843C42.4914 9.25042 42.6636 9.45194 42.7754 9.55592C42.8874 9.66005 43.0636 9.89189 43.1674 10.0713C43.2711 10.2506 43.4084 10.424 43.4725 10.4565C43.5364 10.4891 43.5888 10.5976 43.5888 10.698C43.5888 10.7982 43.6292 10.8951 43.6786 10.913C43.8078 10.9601 44.3066 11.7733 44.3066 11.9368C44.3066 12.0126 44.3604 12.0747 44.4262 12.0747C44.4921 12.0747 44.5458 12.1636 44.5458 12.2723C44.5458 12.3811 44.5933 12.5467 44.6515 12.6404C45.1654 13.4696 45.6496 14.748 45.8223 15.732C45.8579 15.9348 45.9352 16.1252 45.994 16.155C46.0527 16.1849 46.1009 16.4187 46.1009 16.6748C46.1009 16.9308 46.149 17.1821 46.2076 17.2334C46.5272 17.513 46.6516 24.8017 46.3607 26.2109C46.277 26.6158 46.1792 27.1459 46.1432 27.3889C46.1073 27.6319 46.0292 27.8727 45.9696 27.9239C45.9103 27.9752 45.8617 28.1604 45.8617 28.3354C45.8617 28.5104 45.8079 28.6808 45.7421 28.7142C45.6762 28.7475 45.6225 28.918 45.6225 29.0929C45.6225 29.2679 45.5752 29.4531 45.5176 29.5045C45.4598 29.5557 45.3187 29.8406 45.2039 30.1376C45.0888 30.4346 44.9478 30.7195 44.89 30.7707C44.8324 30.8221 44.7851 30.9435 44.7851 31.0407C44.7851 31.138 44.7313 31.2174 44.6655 31.2174C44.5996 31.2174 44.5458 31.2969 44.5458 31.3941C44.5458 31.6136 44.2785 32.0992 44.1571 32.1002C44.1077 32.1006 44.0673 32.1894 44.0673 32.2973C44.0673 32.4054 44.0136 32.4936 43.9477 32.4936C43.8819 32.4936 43.8281 32.5821 43.8281 32.69C43.8281 32.798 43.7743 32.8863 43.7085 32.8863C43.6426 32.8863 43.5888 32.9304 43.5888 32.9843C43.5888 33.0687 42.8154 34.0238 42.6347 34.1625C42.5995 34.1895 42.4133 34.3846 42.2209 34.5962C41.7244 35.1423 40.1136 36.4204 39.9218 36.4204C39.8332 36.4204 39.7609 36.4609 39.7609 36.5105C39.7609 36.5601 39.584 36.6904 39.3679 36.8C39.152 36.9095 38.8156 37.1119 38.6203 37.2495C38.4253 37.3873 38.1983 37.5 38.116 37.5C38.0339 37.5002 37.9665 37.5443 37.9665 37.5984C37.9665 37.6524 37.8875 37.6965 37.7908 37.6965C37.694 37.6965 37.4383 37.777 37.2226 37.8754C36.274 38.3077 34.1251 38.6594 33.6244 38.7782C33.3283 38.8484 31.8071 39.0167 31.7414 39.0513C31.6756 39.0858 31.1409 39.0722 30.8448 39.1423C30.5487 39.2122 30.2022 39.1 30.0378 39.1423C29.8734 39.1845 29.3656 39.0802 28.8722 39.1423C28.3787 39.2045 27.9004 39.0007 27.7065 39.0513C27.4523 39.1177 26.9673 39.0479 26.8995 38.9602C26.7629 38.7838 27.0193 12.9161 27.1581 11.044C27.3627 8.28036 27.9755 6.73611 28.3342 6.55406C28.3541 6.69764 28.3211 6.4597 28.3342 6.55406C28.3342 6.44741 28.9222 6.06569 29.5907 5.61867C29.9653 5.3683 31.5428 4.99212 31.9359 5.05966C32.0347 5.07647 32.4317 5.02463 32.7278 5.05966Z" fill="white"/>
</g>
<defs>
<filter id="filter0_i" x="0" y="0" width="55.2337" height="74.0286" filterUnits="userSpaceOnUse" color-interpolation-filters="sRGB">
<feFlood flood-opacity="0" result="BackgroundImageFix"/>
<feBlend mode="normal" in="SourceGraphic" in2="BackgroundImageFix" result="shape"/>
<feColorMatrix in="SourceAlpha" type="matrix" values="0 0 0 0 0 0 0 0 0 0 0 0 0 0 0 0 0 0 127 0" result="hardAlpha"/>
<feOffset dy="4"/>
<feGaussianBlur stdDeviation="2"/>
<feComposite in2="hardAlpha" operator="arithmetic" k2="-1" k3="1"/>
<feColorMatrix type="matrix" values="0 0 0 0 0 0 0 0 0 0 0 0 0 0 0 0 0 0 0.25 0"/>
<feBlend mode="normal" in2="shape" result="effect1_innerShadow"/>
</filter>
</defs>
</svg>
