<svg width="269" height="124" viewBox="0 0 269 124" fill="none" xmlns="http://www.w3.org/2000/svg">
<path d="M8.79014 64.8206L51.5877 83.2678V91.0158L0.734863 67.7106V61.7462L51.5877 38.5026V46.2506L8.79014 64.8206ZM169.981 111.929H164.024L197.256 25.5145H203.159L169.981 111.929ZM260.459 64.5746L216.739 45.943V38.3798L268.699 61.623V67.5878L216.739 90.8926V83.2678L260.459 64.5746Z" fill="#352B11"/>
<path d="M116.306 121.905H106.238V123.023H116.306V121.905Z" fill="#352B11"/>
<path fill-rule="evenodd" clip-rule="evenodd" d="M104.992 0.800777C104.932 0.849443 104.05 0.960067 103.03 1.04677C100.938 1.22455 97.3563 1.79265 96.7708 2.0392C96.5578 2.12917 95.7275 2.36811 94.9252 2.57064C93.1745 3.0126 93.1691 3.01423 90.5752 4.0518C87.8083 5.15867 87.7367 5.19127 87.7367 5.33996C87.7367 5.41118 87.6345 5.46964 87.5103 5.46964C87.3208 5.46964 85.5748 6.38268 85.2362 6.65886C85.1788 6.7056 84.6631 7.04758 84.0902 7.41888C83.5174 7.79019 82.7998 8.30612 82.4959 8.56571C82.192 8.82502 81.8858 9.03732 81.815 9.03732C81.6628 9.03732 80.2356 10.2168 80.2356 10.3429C80.2356 10.3907 79.975 10.6327 79.6571 10.8803C79.3386 11.1282 78.7059 11.7129 78.2506 12.1802C77.795 12.6471 77.3086 13.1277 77.1692 13.2481C77.0304 13.3683 76.752 13.6934 76.5516 13.9704C76.3509 14.2471 76.1131 14.4738 76.0232 14.4738C75.9334 14.4738 75.8598 14.5409 75.8598 14.623C75.8598 14.7853 74.5504 16.6387 74.2 16.9723C74.0816 17.0854 73.9845 17.2496 73.9845 17.3375C73.9845 17.4257 73.7033 17.9333 73.3593 18.4662C73.0157 18.999 72.7344 19.5419 72.7344 19.6726C72.7344 19.8036 72.6407 19.9102 72.5259 19.9102C72.4112 19.9102 72.3177 20.0596 72.3177 20.2421C72.3177 20.5552 72.2103 20.8152 71.5778 22.034C71.432 22.3144 71.2017 22.8875 71.0657 23.3081C70.9297 23.7285 70.7436 24.1491 70.6526 24.2426C70.5617 24.3357 70.4357 24.7564 70.3728 25.177C70.3101 25.5973 70.155 26.3619 70.0286 26.8757C69.4535 29.2124 69.3191 30.8101 69.3208 35.2855C69.3228 39.7186 69.47 41.5354 70.016 43.8649C70.1363 44.3787 70.2883 45.1432 70.354 45.5635C70.4192 45.9842 70.5583 46.4812 70.6633 46.6681C70.7679 46.8548 70.9873 47.4377 71.1508 47.963C71.3139 48.4885 71.5406 49.0617 71.6539 49.2371C71.7676 49.4126 71.9721 49.9001 72.1092 50.3207C72.2464 50.7411 72.4428 51.2179 72.5464 51.3802C72.6496 51.5426 72.7344 51.7908 72.7344 51.9321C72.7344 52.0737 72.8279 52.1893 72.9426 52.1893C73.0574 52.1893 73.1511 52.2968 73.1511 52.428C73.1511 52.6466 73.5099 53.3062 74.3609 54.6528C74.9293 55.552 75.128 55.8399 75.2397 55.927C75.3001 55.9737 75.5811 56.375 75.8646 56.8189C76.1481 57.2627 76.4506 57.626 76.5365 57.626C76.623 57.626 76.6932 57.7407 76.6932 57.8809C76.6932 58.0208 76.7869 58.1356 76.9017 58.1356C77.0164 58.1356 77.1099 58.2503 77.1099 58.3905C77.1099 58.5304 77.1972 58.6452 77.3044 58.6452C77.411 58.6452 77.5518 58.7789 77.6164 58.9427C77.6811 59.1058 77.992 59.4691 78.3074 59.7497C78.6228 60.0299 79.1573 60.5652 79.4948 60.9388C80.2241 61.7462 83.3405 64.2942 84.4817 65.0163C84.9247 65.2964 85.6314 65.7691 86.0509 66.0668C86.877 66.652 89.5165 68.159 89.7155 68.159C89.7827 68.159 90.0172 68.2955 90.2363 68.4618C90.4557 68.6286 90.9911 68.8687 91.4257 68.9957C91.8606 69.1225 92.2633 69.2773 92.3206 69.3399C92.5375 69.5764 94.4732 70.3676 94.8351 70.3676C95.043 70.3676 95.2711 70.444 95.3419 70.5374C95.4127 70.6309 95.6528 70.7073 95.875 70.7073C96.0975 70.7073 96.2794 70.7837 96.2794 70.8772C96.2794 70.9709 96.4481 71.047 96.6547 71.047C96.8609 71.047 97.1187 71.1103 97.2275 71.1875C97.3364 71.2648 97.8007 71.4178 98.2591 71.5278C98.7175 71.6378 99.831 71.9188 100.734 72.1519C101.637 72.3853 102.532 72.5761 102.724 72.5761C102.915 72.5761 103.161 72.6447 103.27 72.7287C103.379 72.8126 103.89 72.9296 104.406 72.9886C104.921 73.0474 103.971 73.0835 104.774 73.1787C105.576 73.2735 104.955 73.4428 105.757 73.4935C106.559 73.5444 106.159 73.7151 106.243 73.8237C106.328 73.9317 106.398 80.9199 106.4 89.3529L106.243 118.548L111.085 121.905L116.405 118.548V89.3311C116.405 77.2547 116.461 73.9393 116.665 73.8013C116.809 73.7048 117.582 73.5847 118.385 73.5341C120.549 73.3975 124.368 73.1921 124.921 73.0211C125.329 72.8949 130.34 72.5107 131.013 72.3909C131.299 72.3397 135.156 71.5225 135.385 71.4455C135.614 71.3686 136.093 71.3294 136.494 71.2172C137.177 71.0258 137.442 70.9432 138.629 70.5537C139.534 70.2562 143.267 68.7674 143.37 68.6624C143.427 68.6042 143.779 68.4486 144.151 68.3165C144.524 68.1844 144.828 68.0182 144.828 67.9477C144.828 67.8772 144.939 67.8192 145.074 67.8192C145.21 67.8192 145.994 67.3986 146.817 66.8851C147.64 66.371 148.37 65.9504 148.44 65.9504C148.587 65.9504 151.227 63.9405 152.234 63.0623C154.079 61.4535 154.524 61.027 155.418 60.0044C155.95 59.3971 156.457 58.8746 156.545 58.8433C156.633 58.8122 156.705 58.7135 156.705 58.6236C156.705 58.5341 156.936 58.2576 157.218 58.0096C157.5 57.7617 157.839 57.3447 157.972 57.0828C158.105 56.8208 158.279 56.6065 158.358 56.6065C158.438 56.6065 158.632 56.3389 158.789 56.0121C158.946 55.6846 159.151 55.4174 159.244 55.4174C159.338 55.4174 159.414 55.2646 159.414 55.0776C159.414 54.8907 159.507 54.7376 159.622 54.7376C159.737 54.7376 159.831 54.5851 159.831 54.3979C159.831 54.2112 159.924 54.0581 160.039 54.0581C160.154 54.0581 160.247 53.9118 160.247 53.7324C160.247 53.5533 160.321 53.3815 160.411 53.3504C160.501 53.319 160.936 52.6054 161.377 51.7648C161.82 50.9238 162.355 49.9116 162.568 49.5153C162.782 49.1193 162.956 48.6078 162.956 48.3786C162.956 48.1497 163.05 47.9149 163.164 47.8572C163.279 47.7996 163.373 47.5701 163.373 47.3476C163.373 47.1251 163.456 46.9007 163.558 46.8495C163.66 46.798 163.791 46.5069 163.849 46.2024C163.907 45.8977 164.101 45.2283 164.28 44.7142C165.368 41.5925 165.848 35.0059 165.301 30.6984C164.94 27.8532 164.295 24.7516 163.993 24.4124C163.91 24.319 163.78 23.9747 163.704 23.6479C163.402 22.3446 163.318 22.1188 163.141 22.1188C163.039 22.1188 162.956 21.8885 162.956 21.6069C162.956 21.3254 162.848 20.9238 162.715 20.7148C162.21 19.9177 162.123 19.7375 162.123 19.4879C162.123 19.3466 162.029 19.2307 161.914 19.2307C161.799 19.2307 161.706 19.1445 161.706 19.0393C161.706 18.8255 160.243 16.306 160.042 16.1728C159.971 16.126 159.751 15.8042 159.554 15.4575C159.356 15.1108 158.884 14.4964 158.505 14.0919C158.127 13.6874 157.731 13.2367 157.625 13.0905C156.961 12.1668 151.963 7.67819 151.598 7.67819C151.535 7.67819 151.182 7.41071 150.814 7.08371C150.446 6.75645 150.073 6.48897 149.985 6.48897C149.897 6.48897 149.551 6.2753 149.216 6.01381C148.88 5.75259 148.342 5.42777 148.02 5.29185C147.697 5.15595 147.314 4.95343 147.169 4.84171C147.024 4.72999 146.532 4.46741 146.075 4.25839C145.618 4.04909 145.245 3.81558 145.245 3.73946C145.245 3.66309 145.058 3.60085 144.828 3.60085C144.599 3.60085 144.412 3.54295 144.412 3.47254C144.412 3.40185 144.107 3.24121 143.735 3.11537C143.362 2.98952 142.66 2.7416 142.174 2.56409C141.688 2.38686 141.168 2.24173 141.017 2.24173C140.867 2.24173 140.652 2.16642 140.539 2.07427C139.448 1.18459 126.584 0.510459 123.073 1.00084C120.67 1.33655 117.298 2.33931 117.064 2.78755C117.027 2.86121 116.816 2.92129 116.596 2.92129C116.376 2.92129 116.196 2.99766 116.196 3.09116C116.196 3.18469 116.056 3.26106 115.884 3.26106C115.712 3.26106 115.571 3.32114 115.571 3.39427C115.571 3.46764 115.313 3.6522 114.997 3.80444C114.25 4.16405 111.196 6.56699 111.196 6.79504C111.196 6.89128 111.115 6.99592 111.015 7.0269C110.8 7.09459 109.121 9.24933 108.721 9.97185C108.565 10.2521 108.356 10.6142 108.254 10.7764C108.153 10.9387 108.07 11.2864 108.07 11.5495C108.07 11.8124 107.986 12.0999 107.883 12.1889C107.78 12.2775 107.642 12.6561 107.577 13.0299C107.511 13.4036 107.36 14.2063 107.241 14.8136C106.637 17.9051 106.569 20.5718 106.489 44.2897C106.408 68.7492 106.171 69.2006 106.171 69.2006L106.19 69.033L106.203 68.8488L106.216 68.6101L106.224 68.4525L106.23 68.295L106.237 68.1374C106.237 68.1374 106.248 67.9295 106.248 67.836C106.185 67.836 105.931 67.8192 105.757 67.8192C105.584 67.8192 105.279 67.7484 105.08 67.662C104.881 67.5752 104.578 67.461 104.406 67.4081C104.234 67.3552 103.437 66.9657 102.635 66.5426C101.832 66.1189 101.035 65.7212 100.864 65.6588C100.692 65.5961 100.447 65.464 100.319 65.3652C100.192 65.2664 99.7243 64.9566 99.2799 64.6765C97.1945 63.3612 93.1616 59.6412 93.156 59.0274C93.1551 58.9107 93.0603 58.815 92.9455 58.815C92.8311 58.815 92.7373 58.7003 92.7373 58.5604C92.7373 58.4202 92.6671 58.3049 92.5809 58.304C92.3939 58.3024 91.9039 57.4799 91.9039 57.1673C91.9039 57.0458 91.8334 56.9459 91.7475 56.9459C91.6616 56.9456 91.3246 56.5063 90.9992 55.969C90.6734 55.4319 90.3219 54.8599 90.2178 54.6976C90.1134 54.5353 90.0286 54.2857 90.0286 54.1432C90.0286 54.0005 89.9349 53.7318 89.8202 53.5463C89.7054 53.3608 89.5182 53.0568 89.4035 52.871C89.2887 52.6857 89.195 52.3799 89.195 52.1915C89.195 52.0035 89.1015 51.8496 88.9868 51.8496C88.872 51.8496 88.7783 51.6329 88.7783 51.3682C88.7783 51.1035 88.7083 50.8301 88.623 50.7604C88.466 50.6322 87.6695 48.0567 87.3051 46.4982C86.329 42.3237 85.9728 35.419 86.4326 29.5941C86.7435 25.6603 87.1325 23.5071 88.0445 20.675C88.9851 17.7542 89.029 17.6395 89.7922 16.1302C90.039 15.643 90.32 15.078 90.5321 14.6437C90.6004 14.5034 90.8914 14.0832 91.178 13.7094C91.4651 13.3357 91.8619 12.7431 92.0595 12.3927C92.2571 12.0423 92.4905 11.7556 92.5781 11.7556C92.6657 11.7556 92.7373 11.6409 92.7373 11.5009C92.7373 11.3606 92.8311 11.2459 92.9455 11.2459C93.0603 11.2459 93.154 11.1703 93.154 11.0779C93.154 10.6925 96.6639 7.68337 98.2479 6.71078C98.8269 6.35523 99.332 6.00704 99.3703 5.93691C99.4084 5.86678 99.6116 5.8094 99.8217 5.8094C100.032 5.8094 100.235 5.75016 100.273 5.67757C100.384 5.4669 103.391 4.28039 103.813 4.28039C104.025 4.28039 104.197 4.20401 104.197 4.11052C104.197 4.01699 104.339 3.94062 104.513 3.94062C104.687 3.94062 105.202 3.84547 105.659 3.72941L106.489 3.51821V2.11532V0.712708H105.795C105.413 0.712708 105.052 0.752391 104.992 0.800777ZM126.327 9.46899C128.045 9.21955 133.247 9.83397 133.98 10.1648C135.304 10.7625 137.017 11.3329 137.119 11.416C137.176 11.4628 137.483 11.6107 137.802 11.7447C138.841 12.1815 142.284 15.2207 143.161 16.4759C143.333 16.7216 143.633 17.0703 143.828 17.2502C144.023 17.4304 144.33 17.8317 144.511 18.1421C144.692 18.4524 144.931 18.7524 145.042 18.809C145.154 18.8652 145.245 19.053 145.245 19.2265C145.245 19.4 145.315 19.5677 145.402 19.5987C145.627 19.6804 146.495 21.0875 146.495 21.3705C146.495 21.5017 146.589 21.6092 146.704 21.6092C146.818 21.6092 146.912 21.7631 146.912 21.9511C146.912 22.1395 146.995 22.426 147.096 22.5884C147.991 24.0232 148.835 26.2357 149.135 27.9385C149.197 28.2895 149.332 28.6189 149.435 28.6706C149.537 28.7221 149.621 29.1271 149.621 29.5701C149.621 30.0131 149.704 30.448 149.806 30.537C150.363 31.0208 150.58 43.6345 150.073 46.0734C149.927 46.7742 149.757 47.6915 149.695 48.1121C149.632 48.5325 149.496 48.9492 149.392 49.0379C149.289 49.1266 149.204 49.4473 149.204 49.7501C149.204 50.0529 149.11 50.3479 148.996 50.4058C148.881 50.4632 148.787 50.7581 148.787 51.0609C148.787 51.3637 148.705 51.6844 148.604 51.7732C148.504 51.8619 148.258 52.355 148.058 52.869C147.858 53.3829 147.612 53.876 147.511 53.9647C147.411 54.0537 147.329 54.2635 147.329 54.432C147.329 54.6002 147.235 54.7376 147.12 54.7376C147.006 54.7376 146.912 54.8753 146.912 55.0435C146.912 55.4232 146.446 56.2636 146.235 56.2653C146.149 56.2662 146.079 56.4198 146.079 56.6065C146.079 56.7934 145.985 56.9462 145.87 56.9462C145.756 56.9462 145.662 57.0993 145.662 57.2862C145.662 57.4732 145.568 57.626 145.453 57.626C145.339 57.626 145.245 57.7024 145.245 57.7955C145.245 57.9413 143.898 59.5944 143.583 59.8345C143.522 59.8813 143.197 60.2188 142.863 60.5848C141.997 61.5302 139.192 63.7418 138.858 63.7418C138.703 63.7418 138.577 63.8121 138.577 63.898C138.577 63.9839 138.269 64.2092 137.893 64.3989C137.517 64.5884 136.931 64.9387 136.591 65.1769C136.251 65.4153 135.856 65.6104 135.712 65.6104C135.569 65.6107 135.452 65.6871 135.452 65.7805C135.452 65.874 135.314 65.9504 135.146 65.9504C134.977 65.9504 134.532 66.0898 134.156 66.2602C132.504 67.0082 128.761 67.6169 127.889 67.8223C127.373 67.9438 124.723 68.2351 124.609 68.295C124.494 68.3549 123.563 68.3314 123.047 68.4525C122.531 68.5734 121.928 68.3795 121.641 68.4525C121.355 68.5256 120.471 68.3451 119.611 68.4525C118.752 68.56 117.919 68.2074 117.581 68.295C117.138 68.41 116.293 68.2891 116.175 68.1374C115.937 67.8321 116.384 23.0652 116.625 19.8254C116.982 15.0427 118.049 12.3703 118.674 12.0552C118.709 12.3037 118.651 11.8919 118.674 12.0552C118.674 11.8706 119.698 11.21 120.863 10.4364C121.515 10.0031 124.263 9.35209 124.948 9.46899C125.12 9.49806 125.811 9.40837 126.327 9.46899Z" fill="#352B11"/>
</svg>
