<svg width="168" height="150" viewBox="0 0 168 150" fill="none" xmlns="http://www.w3.org/2000/svg">
<path d="M60.4168 115.649C58.8733 117.119 56.4294 117.059 54.9594 115.513C53.4894 113.969 53.5498 111.523 55.0959 110.053C56.7496 108.914 65.0315 103.204 79.9363 92.9299C79.6869 80.0018 79.5478 72.8198 79.5189 71.3839C79.4769 69.2551 81.17 67.4937 83.2989 67.4517C85.4278 67.4097 87.1891 69.1028 87.2311 71.2317C87.26 72.7043 87.4018 80.0622 87.6617 93.3106C102.325 103.356 110.473 108.937 112.103 110.053C113.647 111.523 113.71 113.967 112.24 115.513C110.77 117.056 108.326 117.119 106.78 115.649C105.233 114.612 97.508 109.433 83.5981 100.109C69.6909 109.433 61.9629 114.612 60.4168 115.649ZM69.1423 17.7237C68.9795 17.8339 68.8588 17.9731 68.7826 18.1384C68.696 18.3248 68.6566 18.5479 68.6645 18.8052C68.6881 19.5664 69.0871 20.5613 69.8589 21.7111C69.8589 21.7111 69.8615 21.7163 69.8694 21.7268C71.3735 24.1182 72.2083 25.4491 72.3763 25.7142C73.3816 27.3128 74.4343 28.9403 75.7441 30.1373C77.0015 31.2871 78.5266 32.0667 80.5453 32.0693C82.7293 32.0772 84.3279 31.2661 85.6246 30.0533C86.9765 28.7907 88.0423 27.0556 89.0923 25.3283C89.3731 24.8611 91.6333 21.1414 91.9141 20.6768C92.5021 19.3381 92.6754 18.5059 92.4733 18.0938C92.321 17.7919 91.775 17.7079 90.872 17.7893C90.7145 17.8051 90.5649 17.7657 90.4389 17.6896C90.2971 17.6974 90.1554 17.6922 90.011 17.6817C90.0215 17.6344 90.095 17.2564 90.1055 17.2092C90.1003 17.1882 90.0976 17.1646 90.095 17.1409C90.0793 16.9729 90.1239 16.8154 90.2079 16.6842C90.2735 16.3613 90.7828 13.7704 90.8484 13.4449C85.685 13.3819 82.1518 12.4816 77.9728 9.81193C76.6025 8.93518 76.1878 7.93243 74.8123 8.02956C73.7754 8.22906 72.9039 8.69368 72.2109 9.43918C71.5468 10.1558 71.0454 11.1297 70.7199 12.3792C70.7829 12.8858 71.2921 16.9336 71.3551 17.4402C70.9824 17.5137 70.6201 17.5032 70.2684 17.4034C69.7801 17.4376 69.4048 17.5478 69.1423 17.7237ZM127.903 108.656C127.74 108.767 127.619 108.906 127.543 109.071C127.457 109.255 127.417 109.481 127.425 109.738C127.446 110.499 127.848 111.494 128.62 112.641C128.62 112.644 128.622 112.649 128.63 112.659C130.134 115.051 130.969 116.379 131.137 116.644C132.142 118.243 133.195 119.873 134.505 121.07C135.762 122.22 137.287 122.997 139.306 123.002C141.49 123.007 143.089 122.199 144.385 120.986C145.737 119.721 146.8 117.988 147.85 116.258C148.134 115.794 150.391 112.074 150.675 111.609C151.263 110.268 151.436 109.439 151.234 109.026C151.082 108.722 150.536 108.638 149.635 108.722C149.475 108.735 149.326 108.698 149.2 108.622C149.058 108.627 148.916 108.625 148.772 108.614C148.782 108.567 148.856 108.189 148.866 108.142C148.861 108.118 148.858 108.097 148.856 108.074C148.84 107.906 148.885 107.748 148.969 107.617C149.032 107.294 149.543 104.7 149.609 104.378C144.446 104.315 140.912 103.414 136.733 100.745C135.361 99.8678 134.948 98.8651 133.573 98.9622C132.536 99.1617 131.665 99.6263 130.972 100.372C130.307 101.088 129.806 102.062 129.478 103.312C129.544 103.818 130.053 107.866 130.116 108.37C129.743 108.446 129.381 108.436 129.029 108.336C128.541 108.368 128.165 108.478 127.903 108.656ZM135.678 140.39L137.936 132.562C137.272 131.835 136.901 131.433 136.828 131.352C136.329 130.625 136.222 129.987 136.497 129.441C137.096 128.257 138.337 128.478 139.495 128.478C140.708 128.478 142.204 128.247 142.585 129.767C142.711 130.273 142.55 130.806 142.196 131.352C142.123 131.433 141.752 131.835 141.091 132.562L143.346 140.39C145.782 132.476 147.136 128.076 147.407 127.197C150.339 129.835 159.012 130.362 162.238 132.163C163.256 132.733 164.18 133.457 164.921 134.436C166.047 135.922 166.737 137.862 166.924 140.324C166.992 140.978 167.533 146.207 167.598 146.861C167.435 148.604 166.446 149.609 164.501 149.756C159.461 149.756 119.141 149.756 114.101 149.756C112.156 149.609 111.166 148.604 111.003 146.861C111.071 146.207 111.61 140.978 111.675 140.324C111.864 137.862 112.555 135.922 113.681 134.436C114.421 133.455 115.342 132.733 116.363 132.163C119.592 130.362 128.263 129.835 131.195 127.197C131.791 128.955 133.287 133.355 135.678 140.39ZM152.52 108.391C152.924 109.208 152.759 110.441 151.979 112.213H151.977C151.964 112.242 151.951 112.268 151.935 112.295C151.649 112.767 149.362 116.531 149.076 117.001C147.976 118.815 146.858 120.634 145.364 122.031C143.818 123.477 141.913 124.443 139.306 124.435C136.873 124.43 135.04 123.501 133.536 122.125C132.085 120.8 130.977 119.085 129.922 117.411C129.672 117.012 127.667 113.825 127.417 113.426C126.499 112.056 126.021 110.804 125.992 109.777C125.979 109.294 126.06 108.853 126.239 108.467C126.428 108.063 126.714 107.724 127.105 107.465C127.286 107.341 127.491 107.236 127.717 107.152C127.554 104.992 127.493 102.272 127.598 99.9938C127.651 99.4531 127.756 98.9123 127.908 98.3716C128.549 96.0826 130.155 94.2398 132.142 92.9746C132.843 92.5257 133.61 92.1582 134.423 91.8642C139.238 90.1212 145.619 91.0741 149.037 94.7701C150.431 96.2768 151.302 98.2718 151.491 100.913C151.481 101.346 151.428 103.514 151.336 107.415C151.964 107.74 152.36 108.066 152.52 108.391ZM16.4979 108.656C16.3351 108.767 16.2144 108.906 16.1383 109.071C16.0516 109.257 16.0123 109.481 16.0201 109.738C16.0411 110.499 16.4401 111.494 17.2145 112.641C17.2145 112.644 17.2171 112.649 17.225 112.659C18.7291 115.051 19.5639 116.379 19.7319 116.647C20.7373 118.243 21.7899 119.873 23.0998 121.07C24.3571 122.22 25.8823 122.997 27.9009 123.002C30.0849 123.007 31.6835 122.199 32.9803 120.986C34.3321 119.721 35.3953 117.988 36.4453 116.258C36.7288 115.794 38.9863 112.074 39.2698 111.609C39.8578 110.271 40.031 109.439 39.8263 109.026C39.6766 108.722 39.1306 108.641 38.2276 108.722C38.0701 108.738 37.9205 108.698 37.7945 108.622C37.6528 108.627 37.511 108.625 37.3666 108.614C37.3745 108.567 37.4506 108.189 37.4585 108.142C37.4559 108.121 37.805 103.423 37.7945 103.312C37.7788 103.144 37.4585 101.138 36.9761 100.372C36.4938 99.606 34.3678 98.9622 32.1532 98.9622C29.9385 98.9622 28.9379 100.321 27.7321 100.372C26.5264 100.207 23.5434 98.8651 22.1679 98.9622C21.1284 99.1617 20.2569 99.6263 19.5639 100.372C18.8998 101.088 18.401 102.062 18.0729 103.312C18.1359 103.818 18.6451 107.866 18.7108 108.373C18.3354 108.446 17.9731 108.436 17.6214 108.336C17.1358 108.368 16.7604 108.48 16.4979 108.656ZM24.2731 140.39L26.5306 132.562C25.8665 131.835 25.499 131.433 25.4229 131.352C24.9241 130.625 24.8165 129.99 25.0921 129.441C25.6906 128.257 26.9323 128.478 28.0899 128.478C29.3026 128.478 30.7989 128.247 31.1795 129.767C31.3055 130.273 31.1454 130.806 30.791 131.352C30.7175 131.433 30.35 131.835 29.6859 132.562L31.9408 140.39C34.3768 132.476 35.7313 128.079 36.0016 127.199C38.9338 129.835 47.6068 130.365 50.8329 132.163C51.8514 132.733 52.7754 133.457 53.5156 134.436C54.6418 135.922 55.3321 137.862 55.5211 140.324C55.5868 140.978 56.1275 146.207 56.1931 146.861C56.0304 148.604 55.0408 149.609 53.0956 149.756C48.0556 149.756 7.73564 149.756 2.69564 149.756C0.75052 149.609 -0.23648 148.604 -0.401855 146.861C-0.333605 146.207 0.20452 140.978 0.27277 140.324C0.46177 137.862 1.14952 135.922 2.27564 134.436C3.01852 133.457 3.93989 132.733 4.95839 132.163C8.18714 130.365 16.8601 129.835 19.7896 127.199C19.7896 127.199 21.2833 131.596 24.2731 140.39ZM41.1151 108.391C41.5194 109.21 41.354 110.441 40.5744 112.216L40.5718 112.213C40.5586 112.242 40.5455 112.271 40.5298 112.297C40.2436 112.767 37.9573 116.531 37.6711 117.001C36.5713 118.815 35.453 120.634 33.9594 122.031C32.4133 123.48 30.5075 124.443 27.9009 124.435C25.4675 124.43 23.6353 123.501 22.1311 122.125C20.6821 120.8 19.5718 119.085 18.5165 117.411C18.2671 117.012 16.2616 113.825 16.0123 113.426C15.0935 112.056 14.6158 110.804 14.5869 109.777C14.5738 109.294 14.6551 108.853 14.8336 108.47C15.02 108.063 15.3088 107.724 15.6973 107.465C15.881 107.341 16.0858 107.236 16.3115 107.152C16.1488 104.992 16.0884 102.272 16.1934 99.9964C16.2459 99.4531 16.3509 98.9123 16.5031 98.3716C17.1436 96.0826 18.7501 94.2398 20.7373 92.9746C21.4381 92.5283 22.2046 92.1582 23.0158 91.8642C27.83 90.1212 34.214 91.0741 37.6318 94.7701C39.023 96.2768 39.8971 98.2718 40.0861 100.915C40.0756 101.348 40.0231 103.514 39.9313 107.415C40.5586 107.74 40.955 108.066 41.1151 108.391ZM76.9175 49.4573L79.175 41.6322C78.5109 40.9051 78.1434 40.5008 78.0673 40.4221C77.5685 39.6949 77.4609 39.0571 77.7365 38.5111C78.335 37.3246 79.5766 37.5451 80.7343 37.5451C81.947 37.5451 83.4433 37.3167 83.8239 38.8339C83.9499 39.3432 83.7898 39.8734 83.4354 40.4221C83.3619 40.5008 82.9918 40.9051 82.3303 41.6322L84.5851 49.4573C87.0211 41.5429 86.5431 36.3782 86.8135 35.4988C90.4307 37.1065 100.249 39.4324 103.477 41.2332C104.496 41.8002 105.42 42.5273 106.16 43.5038C107.286 44.9896 107.977 46.9321 108.163 49.3943C108.231 50.0479 108.769 55.2769 108.838 55.9306C108.672 57.6736 107.685 58.6789 105.737 58.8259C100.7 58.8259 60.38 58.8259 55.34 58.8259C53.3949 58.6763 52.4053 57.6736 52.2425 55.9306C52.3081 55.2769 52.8463 50.0479 52.9145 49.3943C53.1035 46.9294 53.7939 44.9896 54.92 43.5038C55.6603 42.5247 56.5816 41.8002 57.6028 41.2332C60.8289 39.4324 71.1388 37.9103 73.9522 35.4988C73.9522 35.4988 73.9276 40.6636 76.9175 49.4573ZM93.7595 17.4612C94.1638 18.2776 93.9984 19.5113 93.2188 21.2832H93.2161C93.203 21.3094 93.2345 38.8077 93.2188 38.8339C92.9326 39.3038 86.2958 35.0263 86.0096 35.4988C85.6246 34.2931 88.0974 29.7016 86.6038 31.1007C85.0576 32.5471 83.1519 33.5104 80.5453 33.5052C78.1119 33.4999 76.3138 32.4762 74.8123 31.1007C73.3606 29.7751 75.2176 34.2931 74.756 35.4988C74.5067 35.0998 68.9139 38.5205 68.6645 38.1241C67.7458 36.7539 67.2601 19.8736 67.2313 18.8472C67.2181 18.3616 67.2995 17.9232 67.478 17.5373C67.667 17.1331 67.9531 16.7944 68.3443 16.5346C68.5254 16.4112 68.7301 16.3062 68.9559 16.2222C68.7931 14.0618 68.7328 11.3423 68.8378 9.06381C68.8929 8.52306 68.9953 7.98231 69.1475 7.44156C69.788 5.15256 71.3945 3.30981 73.3816 2.04193C74.0825 1.59568 74.8516 1.22556 75.6628 0.93418C80.477 -0.80882 86.861 0.144055 90.2761 3.84006C91.67 5.34418 92.5415 7.34181 92.7305 9.98256C92.72 10.4157 92.6702 12.5839 92.5757 16.4847C93.203 16.8102 93.5994 17.1357 93.7595 17.4612Z" fill="#D4AF37"/>
</svg>
