<svg aria-hidden="true" style="position: absolute; width: 0; height: 0; overflow: hidden;" version="1.1" xmlns="http://www.w3.org/2000/svg" xmlns:xlink="http://www.w3.org/1999/xlink">
<defs>
<symbol id="icon-socailmedia" viewBox="0 0 36 32">
<path fill="#d4af37" style="fill: var(--color1, #d4af37)" d="M12.889 24.672c-0.329 0.314-0.851 0.301-1.164-0.029s-0.301-0.851 0.029-1.165c0.353-0.243 2.12-1.461 5.299-3.653-0.053-2.758-0.083-4.29-0.089-4.596-0.009-0.454 0.352-0.83 0.806-0.839s0.83 0.352 0.839 0.806c0.006 0.314 0.036 1.884 0.092 4.71 3.128 2.143 4.866 3.334 5.214 3.572 0.329 0.314 0.343 0.835 0.029 1.165s-0.835 0.343-1.165 0.029c-0.33-0.221-1.978-1.326-4.945-3.315-2.967 1.989-4.616 3.094-4.945 3.315zM14.75 3.781c-0.035 0.023-0.060 0.053-0.077 0.088-0.018 0.040-0.027 0.087-0.025 0.142 0.005 0.162 0.090 0.375 0.255 0.62 0 0 0.001 0.001 0.002 0.003 0.321 0.51 0.499 0.794 0.535 0.851 0.214 0.341 0.439 0.688 0.718 0.944 0.268 0.245 0.594 0.412 1.024 0.412 0.466 0.002 0.807-0.171 1.084-0.43 0.288-0.269 0.516-0.639 0.74-1.008 0.060-0.1 0.542-0.893 0.602-0.992 0.125-0.286 0.162-0.463 0.119-0.551-0.032-0.064-0.149-0.082-0.342-0.065-0.034 0.003-0.066-0.005-0.092-0.021-0.030 0.002-0.060 0.001-0.091-0.002 0.002-0.010 0.018-0.091 0.020-0.101-0.001-0.004-0.002-0.010-0.002-0.015-0.003-0.036 0.006-0.069 0.024-0.097 0.014-0.069 0.123-0.622 0.137-0.691-1.102-0.013-1.855-0.205-2.747-0.775-0.292-0.187-0.381-0.401-0.674-0.38-0.221 0.043-0.407 0.142-0.555 0.301-0.142 0.153-0.249 0.361-0.318 0.627 0.013 0.108 0.122 0.972 0.136 1.080-0.079 0.016-0.157 0.013-0.232-0.008-0.104 0.007-0.184 0.031-0.24 0.068zM27.286 23.18c-0.035 0.024-0.061 0.053-0.077 0.089-0.018 0.039-0.027 0.087-0.025 0.142 0.004 0.162 0.090 0.375 0.255 0.619 0 0.001 0 0.002 0.002 0.004 0.321 0.51 0.499 0.794 0.535 0.85 0.214 0.341 0.439 0.689 0.718 0.944 0.268 0.245 0.593 0.411 1.024 0.412 0.466 0.001 0.807-0.171 1.084-0.43 0.288-0.27 0.515-0.64 0.739-1.009 0.061-0.099 0.542-0.893 0.603-0.992 0.125-0.286 0.162-0.463 0.119-0.551-0.032-0.065-0.149-0.083-0.341-0.065-0.034 0.003-0.066-0.005-0.093-0.021-0.030 0.001-0.061 0.001-0.091-0.002 0.002-0.010 0.018-0.091 0.020-0.101-0.001-0.005-0.002-0.010-0.002-0.015-0.003-0.036 0.006-0.070 0.024-0.098 0.013-0.069 0.122-0.622 0.137-0.691-1.101-0.013-1.855-0.206-2.747-0.775-0.293-0.187-0.381-0.401-0.674-0.38-0.221 0.043-0.407 0.142-0.555 0.301-0.142 0.153-0.249 0.361-0.319 0.627 0.014 0.108 0.123 0.972 0.136 1.079-0.080 0.016-0.157 0.014-0.232-0.007-0.104 0.007-0.184 0.030-0.24 0.068zM28.945 29.95l0.482-1.67c-0.142-0.155-0.221-0.241-0.236-0.258-0.106-0.155-0.129-0.291-0.071-0.408 0.128-0.253 0.393-0.205 0.64-0.205 0.259 0 0.578-0.049 0.659 0.275 0.027 0.108-0.007 0.222-0.083 0.338-0.016 0.017-0.095 0.103-0.236 0.258l0.481 1.67c0.52-1.688 0.809-2.627 0.866-2.814 0.626 0.563 2.476 0.675 3.164 1.059 0.217 0.122 0.414 0.276 0.572 0.485 0.24 0.317 0.387 0.731 0.427 1.256 0.014 0.14 0.13 1.255 0.144 1.395-0.035 0.372-0.246 0.586-0.661 0.618-1.075 0-9.677 0-10.752 0-0.415-0.031-0.626-0.246-0.661-0.618 0.015-0.14 0.13-1.255 0.143-1.395 0.040-0.525 0.188-0.939 0.428-1.256 0.158-0.209 0.354-0.363 0.572-0.485 0.689-0.384 2.539-0.497 3.164-1.059 0.127 0.375 0.446 1.314 0.956 2.814zM32.538 23.123c0.086 0.174 0.051 0.437-0.115 0.815h-0c-0.003 0.006-0.006 0.012-0.009 0.017-0.061 0.101-0.549 0.904-0.61 1.004-0.235 0.387-0.473 0.775-0.792 1.073-0.33 0.308-0.736 0.515-1.292 0.513-0.519-0.001-0.91-0.199-1.231-0.493-0.31-0.283-0.546-0.649-0.771-1.006-0.053-0.085-0.481-0.765-0.534-0.85-0.196-0.292-0.298-0.559-0.304-0.778-0.003-0.103 0.015-0.197 0.053-0.279 0.040-0.086 0.101-0.159 0.185-0.214 0.039-0.026 0.082-0.049 0.131-0.067-0.035-0.461-0.048-1.041-0.025-1.527 0.011-0.115 0.034-0.231 0.066-0.346 0.137-0.488 0.479-0.881 0.903-1.151 0.15-0.096 0.313-0.174 0.487-0.237 1.027-0.372 2.388-0.169 3.118 0.62 0.297 0.321 0.483 0.747 0.524 1.311-0.002 0.092-0.013 0.555-0.033 1.387 0.134 0.069 0.218 0.139 0.253 0.208zM3.52 23.18c-0.035 0.024-0.060 0.053-0.077 0.089-0.018 0.040-0.027 0.087-0.025 0.142 0.004 0.162 0.090 0.375 0.255 0.619 0 0.001 0.001 0.002 0.002 0.004 0.321 0.51 0.499 0.794 0.535 0.851 0.215 0.34 0.439 0.688 0.718 0.944 0.268 0.245 0.594 0.411 1.024 0.412 0.466 0.001 0.807-0.171 1.084-0.43 0.288-0.27 0.515-0.64 0.739-1.009 0.060-0.099 0.542-0.893 0.603-0.992 0.125-0.285 0.162-0.463 0.119-0.551-0.032-0.065-0.148-0.082-0.341-0.065-0.034 0.003-0.066-0.005-0.092-0.021-0.030 0.001-0.060 0.001-0.091-0.002 0.002-0.010 0.018-0.091 0.020-0.101-0.001-0.004 0.074-1.007 0.072-1.030-0.003-0.036-0.072-0.464-0.175-0.627s-0.556-0.301-1.029-0.301c-0.472 0-0.686 0.29-0.943 0.301-0.257-0.035-0.894-0.321-1.187-0.301-0.222 0.043-0.408 0.142-0.556 0.301-0.142 0.153-0.248 0.361-0.318 0.627 0.013 0.108 0.122 0.972 0.136 1.080-0.080 0.016-0.157 0.013-0.232-0.008-0.104 0.007-0.184 0.031-0.24 0.068zM5.178 29.95l0.482-1.67c-0.142-0.155-0.22-0.241-0.236-0.258-0.106-0.155-0.129-0.291-0.071-0.408 0.128-0.253 0.393-0.205 0.64-0.205 0.259 0 0.578-0.049 0.659 0.275 0.027 0.108-0.007 0.222-0.083 0.338-0.016 0.017-0.094 0.103-0.236 0.258l0.481 1.67c0.52-1.688 0.809-2.626 0.866-2.814 0.626 0.562 2.476 0.675 3.164 1.059 0.217 0.122 0.414 0.276 0.572 0.485 0.24 0.317 0.388 0.731 0.428 1.256 0.014 0.14 0.129 1.255 0.143 1.395-0.035 0.372-0.246 0.586-0.661 0.618-1.075 0-9.677 0-10.752 0-0.415-0.031-0.626-0.246-0.661-0.618 0.015-0.14 0.129-1.255 0.144-1.395 0.040-0.525 0.187-0.939 0.427-1.256 0.158-0.209 0.355-0.363 0.572-0.485 0.689-0.384 2.539-0.497 3.164-1.059 0 0 0.319 0.938 0.956 2.814zM8.771 23.123c0.086 0.175 0.051 0.437-0.115 0.816l-0.001-0.001c-0.003 0.006-0.006 0.012-0.009 0.018-0.061 0.1-0.549 0.903-0.61 1.004-0.235 0.387-0.473 0.775-0.792 1.073-0.33 0.309-0.736 0.515-1.292 0.513-0.519-0.001-0.91-0.199-1.231-0.493-0.309-0.283-0.546-0.649-0.771-1.006-0.053-0.085-0.481-0.765-0.534-0.85-0.196-0.292-0.298-0.559-0.304-0.778-0.003-0.103 0.015-0.197 0.053-0.279 0.040-0.087 0.101-0.159 0.184-0.214 0.039-0.026 0.083-0.049 0.131-0.067-0.035-0.461-0.048-1.041-0.025-1.527 0.011-0.116 0.034-0.231 0.066-0.347 0.137-0.488 0.479-0.881 0.903-1.151 0.149-0.095 0.313-0.174 0.486-0.237 1.027-0.372 2.389-0.169 3.118 0.62 0.297 0.321 0.483 0.747 0.524 1.311-0.002 0.092-0.013 0.554-0.033 1.387 0.134 0.069 0.218 0.139 0.253 0.208zM16.409 10.551l0.482-1.669c-0.142-0.155-0.22-0.241-0.236-0.258-0.106-0.155-0.129-0.291-0.071-0.408 0.128-0.253 0.393-0.206 0.64-0.206 0.259 0 0.578-0.049 0.659 0.275 0.027 0.109-0.007 0.222-0.083 0.339-0.016 0.017-0.095 0.103-0.236 0.258l0.481 1.669c0.52-1.688 0.418-2.79 0.475-2.978 0.772 0.343 2.866 0.839 3.555 1.223 0.217 0.121 0.415 0.276 0.572 0.484 0.24 0.317 0.388 0.731 0.427 1.257 0.015 0.139 0.129 1.255 0.144 1.394-0.035 0.372-0.246 0.586-0.662 0.618-1.075 0-9.676 0-10.751 0-0.415-0.032-0.626-0.246-0.661-0.618 0.014-0.139 0.129-1.255 0.143-1.394 0.040-0.526 0.188-0.94 0.428-1.257 0.158-0.209 0.354-0.363 0.572-0.484 0.688-0.384 2.888-0.709 3.488-1.223 0 0-0.005 1.102 0.633 2.978zM20.002 3.725c0.086 0.174 0.051 0.437-0.115 0.815h-0.001c-0.003 0.006 0.004 3.739 0.001 3.744-0.061 0.1-1.477-0.812-1.538-0.712-0.082-0.257 0.445-1.237 0.127-0.938-0.33 0.309-0.736 0.514-1.292 0.513-0.519-0.001-0.903-0.22-1.223-0.513-0.31-0.283 0.086 0.681-0.012 0.938-0.053-0.085-1.246 0.645-1.3 0.56-0.196-0.292-0.3-3.893-0.306-4.112-0.003-0.104 0.015-0.197 0.053-0.279 0.040-0.086 0.101-0.159 0.185-0.214 0.039-0.026 0.082-0.049 0.13-0.067-0.035-0.461-0.048-1.041-0.025-1.527 0.012-0.115 0.034-0.231 0.066-0.346 0.137-0.488 0.479-0.881 0.903-1.152 0.15-0.095 0.314-0.174 0.487-0.236 1.027-0.372 2.389-0.169 3.117 0.62 0.297 0.321 0.483 0.747 0.524 1.31-0.002 0.092-0.013 0.555-0.033 1.387 0.134 0.069 0.218 0.139 0.253 0.208z"></path>
</symbol>
<symbol id="icon-marketing" viewBox="0 0 33 32">
<path fill="#d4af37" style="fill: var(--color1, #d4af37)" d="M23.378 17.128v-0c-1.591 1.386-2.417 3.493-2.396 5.615l-3.857 0.547c-0.377 0.058-0.642 0.454-0.591 0.885s0.397 0.733 0.774 0.675l3.845-0.546c0.193 0.906 0.548 1.783 1.075 2.572 2.038 3.055 5.858 3.644 8.531 1.314s3.188-6.694 1.15-9.749c-2.038-3.055-5.858-3.643-8.531-1.314zM17.313 0.694l0-0c-2.888 1.634-4.070 5.635-2.639 8.935 0.107 0.248 0.227 0.484 0.356 0.71l-2.788 2.808c-0.283 0.289-0.307 0.786-0.054 1.11s0.688 0.351 0.971 0.062l2.757-2.777c1.725 1.843 4.335 2.372 6.576 1.104 2.888-1.634 4.070-5.635 2.639-8.935s-4.931-4.651-7.819-3.016zM1.192 22.785c-0.609 0.316-0.79 1.106-0.679 1.95 0.051 0.384 0.161 0.775 0.316 1.148s0.356 0.717 0.593 1c0.542 0.655 1.268 0.988 2.018 0.556 0.059-0.031 0.121-0.035 0.177-0.017 0.014-0.008 0.022-0.015 0.041-0.023 0.191-0.102 0.363-0.195 0.522-0.28 0.177-0.094 0.346-0.176 0.505-0.256 0.123-0.058 0.267 0.008 0.317 0.143 0.006 0.010 0.007 0.021 0.009 0.032l0.114 0.347c0.291 0.893 0.573 1.759 0.897 2.443 0.006 0.010 0.047 0.109 0.092 0.201 0.197 0.433 0.412 0.896 0.645 1.152 0.205 0.222 0.456 0.26 0.795-0.136 0.062-0.087 0.125-0.169 0.187-0.25 0.201-0.258 0.397-0.515 0.443-0.859-0.062-0.073-0.167-0.106-0.273-0.139-0.351-0.11-0.697-0.216-0.707-1.026l0.001-0.116c0-0.238-0.004-0.358-0.020-0.405-0.008-0.026-0.067-0.072-0.179-0.16l-0.042-0.032c-0.219-0.175-0.325-0.457-0.358-0.772-0.040-0.375 0.015-0.797 0.089-1.107 0.022-0.097 0.086-0.168 0.17-0.198 2.423-0.777 3.989-0.526 5.236-0.318 0.054 0.008 0.108 0.016 0.158 0.025-1.223-1.094-2.329-2.864-3.161-4.732-0.884-1.97-1.462-4.054-1.561-5.562-0.783 1.806-2.189 4.703-6.078 7.068-0.005 0.001-0.009 0.007-0.014 0.008l-0.032 0.016c-0.041 0.023-0.046 0.018-0.054 0.031s0.001 0.011-0.010 0.040c0.001 0.005 0.003-0.012-0.034 0.082-0.026 0.065-0.069 0.11-0.118 0.14l-0.004 0.006h0zM11.351 20.785c0.081 0.677-0.356 1.987-0.713 2.066 0.787 1.29 1.69 2.374 2.634 2.954 0.053-0.003 0.096-0.004 0.144-0.011 0.085-0.019 0.163-0.053 0.245-0.132 0.167-0.258 0.248-0.629 0.261-1.084 0.030-1.401-0.622-3.49-1.529-5.457-0.908-1.972-2.070-3.804-3.055-4.693-0.362-0.324-0.69-0.516-0.951-0.519-0.068-0-0.106 0-0.124 0.014s-0.052 0.052-0.097 0.12c-0.021 0.031-0.045 0.068-0.069 0.11-0.003 0.012-0.003 0.017-0.006 0.029-0.289 1.017 0.091 3.049 0.877 5.172 0.373-0.274 2.179-0.314 2.389 1.431l-0.005 0.001 0-0zM13.314 26.356c-0.051 0.019-0.104 0.022-0.16-0.003-0.044-0.004-0.093-0.008-0.141-0.011-0.322-0.027-0.642-0.076-0.987-0.132-1.177-0.191-2.655-0.434-4.905 0.261-0.044 0.233-0.070 0.508-0.046 0.747 0.021 0.173 0.067 0.315 0.158 0.389l0.042 0.032c0.192 0.152 0.288 0.225 0.352 0.398 0.056 0.146 0.056 0.306 0.059 0.614l-0.001 0.116c0.003 0.391 0.179 0.447 0.35 0.503 0.226 0.069 0.451 0.139 0.596 0.459 0.025 0.046 0.036 0.099 0.034 0.16-0.027 0.578-0.299 0.93-0.571 1.276-0.059 0.075-0.121 0.157-0.175 0.232l-0.012 0.019c-0.595 0.717-1.076 0.616-1.486 0.172-0.294-0.318-0.524-0.823-0.744-1.291-0.019-0.041-0.039-0.082-0.091-0.195-0.332-0.71-0.621-1.597-0.919-2.511l-0.031-0.095c-0.086 0.047-0.178 0.089-0.264 0.135-0.177 0.094-0.35 0.182-0.513 0.274-0.023 0.009-0.036 0.022-0.045 0.029-0.108 0.067-0.152 0.101-0.258 0.063-0.942 0.484-1.832 0.066-2.487-0.725-0.271-0.327-0.502-0.722-0.678-1.141s-0.297-0.87-0.355-1.308c-0.135-1.044 0.099-2.030 0.871-2.482 0.029-0.082 0.048-0.123 0.094-0.18 0.050-0.063 0.096-0.087 0.185-0.145l0.032-0.016c0.005-0.001 0.009-0.007 0.009-0.007 3.998-2.426 5.279-5.436 6.010-7.151 0.203-0.479 0.366-0.858 0.542-1.123 0.086-0.129 0.153-0.212 0.252-0.271s0.207-0.082 0.358-0.078c0.378 0.007 0.797 0.239 1.241 0.639 1.040 0.935 2.248 2.833 3.182 4.866 0.94 2.038 1.618 4.223 1.585 5.724-0.012 0.581-0.127 1.074-0.374 1.427-0.008 0.012-0.016 0.025-0.030 0.032-0.163 0.169-0.327 0.25-0.502 0.283-0.062 0.010-0.123 0.019-0.181 0.023l0.004-0.006h-0zM18.19 6.609l1.589-1.69c-0.031-0.069-0.057-0.143-0.077-0.217-0-0-0-0.001-0-0.001-0.177-0.676 0.159-1.388 0.75-1.59s1.215 0.181 1.392 0.857-0.159 1.388-0.75 1.59c-0.234 0.080-0.473 0.069-0.687-0.016l-1.67 1.776c0.006 0.021 0.013 0.043 0.018 0.064 0.010 0.037 0.018 0.075 0.025 0.113l2.069 0.4c0.138-0.27 0.362-0.483 0.644-0.579 0.591-0.202 1.215 0.181 1.392 0.857s-0.159 1.388-0.75 1.59c-0.591 0.202-1.214-0.182-1.392-0.857-0.007-0.026-0.013-0.052-0.018-0.078l-2.093-0.404c-0.139 0.255-0.356 0.455-0.628 0.548-0.591 0.202-1.215-0.181-1.392-0.857s0.159-1.388 0.75-1.59c0.286-0.098 0.58-0.059 0.827 0.085v0zM28.268 20.486l1.368-0.201c0.417-0.061 0.802 0.279 0.855 0.755l0.172 1.528c0.054 0.477-0.244 0.916-0.661 0.978l-0.589 0.086c0.127 0.369 0.268 0.696 0.615 0.966-0.616-0.087-1.115-0.371-1.511-0.834l-0.102 0.015c-0.040 0.006-0.081 0.008-0.125 0.008 0.202-0.242 0.329-0.526 0.297-0.81l-0.072-0.637-0.065-0.578-0.107-0.954c-0.013-0.114-0.039-0.222-0.076-0.323l-0 0zM24.471 20.36l2.119-0.31c0.578-0.085 1.109 0.384 1.183 1.044l0.001-0v0h-0.001l0.194 1.73 0.001-0v0l-0.001 0c0.039 0.353-0.14 0.691-0.402 0.948-0.243 0.239-0.565 0.412-0.836 0.452v0.001h-0v-0.001l-0.022 0.003c-0.161 0.3-0.357 0.565-0.589 0.794-0.258 0.252-0.558 0.458-0.903 0.615l-0-0.001c-0.065 0.029-0.142 0.017-0.198-0.039-0.080-0.080-0.088-0.219-0.018-0.311 0.138-0.18 0.223-0.36 0.278-0.543 0.031-0.102 0.053-0.207 0.070-0.315l-0.414 0.061-0-0.001c-0.289 0.042-0.567-0.054-0.781-0.242s-0.365-0.471-0.403-0.802l-0.001 0v-0h0.001l-0.194-1.73h-0.001v-0l0.001-0c-0.074-0.66 0.336-1.267 0.914-1.352l-0-0.001h0v0z"></path>
</symbol>
<symbol id="icon-desarrollo" viewBox="0 0 31 32">
<path fill="#d4af37" style="fill: var(--color1, #d4af37)" d="M10.556 0v0c-0.352 0-0.674 0.136-0.916 0.358-0.016 0.013-0.031 0.026-0.045 0.041-0.246 0.246-0.399 0.585-0.399 0.959v7.454c0.404-0.039 0.814-0.060 1.229-0.060v-3.887c0.042 0.007 0.086 0.011 0.131 0.011h19.523c0.045 0 0.088-0.004 0.131-0.011v15.15c0 0.035-0.015 0.067-0.039 0.091s-0.056 0.039-0.091 0.039h-6.926c0.043 0.403 0.066 0.813 0.071 1.227h6.854c0.374 0 0.715-0.153 0.961-0.398s0.399-0.585 0.399-0.959v-18.657c0-0.37-0.152-0.709-0.398-0.956l-0.001-0.001-0.001-0.001-0.001-0.001c-0.247-0.246-0.586-0.398-0.958-0.398h-19.523zM18.511 26.063c0.035-0.063 0.070-0.127 0.104-0.191l0.002-0.003c0.041-0.078 0.081-0.155 0.119-0.232 0.043-0.087 0.086-0.175 0.127-0.265 0.043-0.093 0.083-0.183 0.121-0.27l0.016-0.029c0.057-0.137 0.111-0.274 0.161-0.411s0.098-0.278 0.143-0.421l0.001-0.003c0.044-0.141 0.084-0.284 0.121-0.429s0.070-0.293 0.099-0.442c0.023-0.118 0.044-0.235 0.063-0.349s0.035-0.23 0.050-0.352l0-0.002c0.013-0.105 0.024-0.211 0.033-0.319 0.007-0.086 0.013-0.171 0.018-0.254h-2.558c-0.017 0.333-0.054 0.664-0.11 0.994-0.060 0.351-0.143 0.7-0.249 1.048-0.103 0.341-0.228 0.68-0.373 1.019-0.131 0.304-0.28 0.608-0.446 0.912l2.558 0.001zM17.734 27.242h-2.51c-0.211 0.302-0.439 0.602-0.683 0.9-0.252 0.308-0.523 0.615-0.812 0.922-0.267 0.283-0.55 0.566-0.852 0.851-0.245 0.232-0.5 0.462-0.763 0.691l0.21-0.039c0.144-0.029 0.291-0.063 0.439-0.1s0.294-0.078 0.438-0.123c0.144-0.044 0.287-0.093 0.43-0.146s0.284-0.109 0.423-0.17c0.144-0.062 0.284-0.125 0.419-0.191 0.137-0.066 0.272-0.135 0.405-0.207s0.264-0.146 0.392-0.223c0.128-0.077 0.254-0.157 0.376-0.238 0.123-0.082 0.244-0.167 0.363-0.255s0.234-0.178 0.347-0.27c0.228-0.187 0.446-0.385 0.654-0.593 0.082-0.082 0.162-0.164 0.239-0.247s0.154-0.167 0.227-0.251c0.059-0.068 0.118-0.138 0.175-0.208l0.084-0.104zM8.776 30.604c-0.265-0.23-0.52-0.461-0.764-0.692-0.299-0.283-0.582-0.565-0.849-0.849-0.289-0.307-0.56-0.614-0.812-0.922-0.245-0.298-0.472-0.599-0.683-0.9h-2.504l0.083 0.104c0.057 0.070 0.116 0.14 0.175 0.208 0.148 0.17 0.304 0.336 0.465 0.497l0.004 0.004c0.104 0.103 0.21 0.205 0.319 0.303 0.217 0.197 0.444 0.383 0.679 0.557 0.119 0.088 0.239 0.173 0.363 0.255 0.121 0.081 0.247 0.162 0.378 0.24 0.127 0.077 0.257 0.15 0.386 0.22 0.135 0.073 0.271 0.142 0.408 0.208s0.276 0.128 0.419 0.189c0.012 0.006 0.019 0.011 0.031 0.018 0.137 0.057 0.274 0.11 0.412 0.16s0.279 0.098 0.422 0.142l0.003 0.001c0.141 0.044 0.285 0.084 0.43 0.121s0.293 0.070 0.442 0.099l0.194 0.036zM2.373 26.069h2.558c-0.167-0.306-0.316-0.612-0.448-0.918-0.146-0.34-0.27-0.681-0.373-1.022-0.105-0.347-0.188-0.696-0.248-1.047-0.056-0.326-0.093-0.655-0.11-0.986h-2.557c0.005 0.083 0.012 0.168 0.019 0.254 0.010 0.11 0.021 0.217 0.033 0.322 0.015 0.121 0.031 0.238 0.049 0.351s0.039 0.229 0.062 0.348l0.002 0.010c0.029 0.145 0.063 0.291 0.1 0.439s0.079 0.293 0.123 0.436c0.045 0.143 0.093 0.287 0.146 0.43s0.109 0.283 0.169 0.42l0.003 0.006c0.036 0.086 0.075 0.173 0.116 0.261l0.002 0.004c0.039 0.084 0.080 0.17 0.124 0.257 0.041 0.083 0.082 0.162 0.122 0.238 0.035 0.067 0.071 0.132 0.107 0.197l-0-0zM1.194 20.923h2.582c0.029-0.324 0.078-0.65 0.146-0.977 0.072-0.349 0.167-0.697 0.282-1.044l0.002-0.005c0.113-0.34 0.247-0.68 0.4-1.018 0.14-0.309 0.297-0.618 0.47-0.927h-2.703c-0.037 0.066-0.073 0.131-0.107 0.196-0.041 0.076-0.081 0.155-0.122 0.238l-0.002 0.003c-0.043 0.086-0.084 0.172-0.124 0.258-0.041 0.090-0.080 0.177-0.117 0.264l-0.008 0.017-0.010 0.015c-0.057 0.136-0.11 0.273-0.161 0.41-0.051 0.139-0.099 0.279-0.142 0.421-0.044 0.142-0.085 0.287-0.122 0.433s-0.070 0.293-0.099 0.442c-0.024 0.119-0.045 0.236-0.063 0.349-0.018 0.114-0.035 0.231-0.050 0.352-0.013 0.106-0.024 0.213-0.034 0.321-0.007 0.086-0.014 0.171-0.018 0.254h0zM3.151 15.778h2.67c0.21-0.298 0.435-0.596 0.674-0.893 0.248-0.307 0.512-0.614 0.793-0.921 0.261-0.286 0.538-0.573 0.83-0.86 0.241-0.238 0.491-0.475 0.751-0.712l-0.111 0.019-0.187 0.035c-0.149 0.030-0.297 0.064-0.443 0.101-0.149 0.038-0.295 0.079-0.439 0.123s-0.287 0.093-0.43 0.146c-0.144 0.053-0.285 0.109-0.423 0.17-0.141 0.061-0.281 0.125-0.42 0.191-0.136 0.066-0.271 0.135-0.405 0.207s-0.266 0.147-0.394 0.224c-0.128 0.076-0.252 0.155-0.373 0.236-0.123 0.082-0.244 0.167-0.363 0.255s-0.234 0.178-0.347 0.27c-0.112 0.091-0.223 0.188-0.333 0.288-0.107 0.097-0.215 0.2-0.321 0.306l-0.004 0.004c-0.080 0.079-0.158 0.16-0.234 0.241-0.078 0.083-0.154 0.168-0.228 0.253-0.060 0.069-0.119 0.139-0.177 0.21l-0.087 0.108 0.001-0.001zM12.025 12.4c0.26 0.237 0.511 0.473 0.75 0.708 0.283 0.278 0.558 0.563 0.825 0.855 0.28 0.307 0.545 0.614 0.792 0.921 0.24 0.298 0.463 0.596 0.671 0.893h2.665l-0.084-0.105c-0.057-0.070-0.115-0.139-0.174-0.207-0.073-0.084-0.149-0.168-0.227-0.251-0.075-0.079-0.155-0.162-0.239-0.246-0.105-0.105-0.212-0.207-0.322-0.307s-0.221-0.196-0.332-0.287c-0.113-0.093-0.229-0.183-0.347-0.271s-0.239-0.173-0.362-0.254c-0.122-0.082-0.246-0.161-0.374-0.238-0.258-0.155-0.523-0.298-0.794-0.428-0.136-0.065-0.277-0.129-0.423-0.19-0.012-0.006-0.019-0.010-0.030-0.018-0.137-0.057-0.275-0.11-0.412-0.16-0.138-0.050-0.279-0.098-0.422-0.142l-0.003-0.001c-0.142-0.044-0.285-0.084-0.43-0.121s-0.293-0.070-0.442-0.099l-0.187-0.035-0.097-0.017-0 0zM18.51 16.951h-2.702c0.173 0.309 0.33 0.617 0.47 0.926 0.154 0.341 0.288 0.683 0.402 1.024 0.115 0.348 0.21 0.696 0.282 1.044 0.068 0.327 0.117 0.653 0.146 0.977h2.58c-0.005-0.083-0.012-0.168-0.019-0.254-0.010-0.109-0.021-0.217-0.033-0.322-0.015-0.121-0.031-0.238-0.048-0.351s-0.038-0.228-0.062-0.348l-0.002-0.010c-0.029-0.144-0.063-0.291-0.101-0.439s-0.079-0.293-0.123-0.436c-0.045-0.144-0.093-0.287-0.146-0.43s-0.109-0.282-0.168-0.417l-0.004-0.008c-0.037-0.086-0.076-0.174-0.116-0.263l-0.001-0.004c-0.040-0.086-0.081-0.172-0.124-0.256s-0.083-0.164-0.122-0.237c-0.035-0.065-0.071-0.131-0.109-0.198v-0zM8.347 11.295c0.172-0.034 0.343-0.065 0.512-0.090s0.341-0.046 0.517-0.064c0.176-0.017 0.353-0.030 0.53-0.039 0.179-0.009 0.358-0.013 0.535-0.013 0.357 0 0.711 0.017 1.063 0.052 0.176 0.017 0.349 0.039 0.52 0.064 0.169 0.025 0.341 0.055 0.515 0.090 0.166 0.032 0.332 0.070 0.498 0.111 0.164 0.041 0.328 0.087 0.491 0.137s0.322 0.104 0.48 0.162c0.157 0.058 0.314 0.12 0.47 0.186 0.019 0.006 0.030 0.011 0.047 0.022 0.15 0.065 0.299 0.133 0.447 0.204 0.153 0.074 0.302 0.15 0.446 0.228l0.004 0.002c0.148 0.080 0.294 0.164 0.437 0.25l0.004 0.002c0.146 0.087 0.288 0.178 0.427 0.27 0.136 0.090 0.27 0.184 0.403 0.282s0.264 0.2 0.392 0.305c0.129 0.106 0.256 0.215 0.38 0.328 0.127 0.115 0.25 0.231 0.367 0.348l0.005 0.005c0.116 0.115 0.231 0.234 0.342 0.356s0.219 0.247 0.325 0.376c0.104 0.126 0.206 0.257 0.305 0.392s0.196 0.272 0.288 0.41l0.002 0.003c0.094 0.14 0.183 0.28 0.268 0.419 0.086 0.143 0.171 0.29 0.252 0.439 0.080 0.146 0.156 0.296 0.23 0.448 0.075 0.155 0.146 0.31 0.212 0.464 0.068 0.158 0.132 0.318 0.192 0.48s0.115 0.325 0.167 0.492c0.051 0.165 0.098 0.33 0.14 0.495 0.042 0.164 0.080 0.332 0.115 0.503s0.065 0.341 0.090 0.511c0.025 0.169 0.047 0.342 0.064 0.519s0.030 0.353 0.039 0.529c0.009 0.179 0.013 0.358 0.013 0.535s-0.005 0.354-0.013 0.533c-0.009 0.176-0.022 0.351-0.039 0.527-0.018 0.177-0.040 0.351-0.065 0.521l-0 0.002c-0.025 0.168-0.055 0.337-0.090 0.509-0.032 0.166-0.070 0.332-0.111 0.497-0.041 0.164-0.087 0.327-0.138 0.49-0.050 0.161-0.104 0.321-0.162 0.479-0.057 0.157-0.12 0.313-0.186 0.469-0.006 0.020-0.012 0.031-0.022 0.049-0.066 0.153-0.135 0.305-0.208 0.455s-0.15 0.3-0.231 0.447c-0.080 0.147-0.164 0.293-0.251 0.436-0.086 0.142-0.175 0.282-0.268 0.422-0.090 0.136-0.185 0.271-0.284 0.405s-0.201 0.263-0.304 0.389l-0.003 0.004c-0.107 0.13-0.216 0.257-0.327 0.378l-0.004 0.004c-0.113 0.124-0.228 0.245-0.345 0.361l-0.007 0.007c-0.116 0.117-0.235 0.231-0.355 0.34s-0.246 0.218-0.376 0.324c-0.129 0.105-0.26 0.207-0.394 0.306s-0.271 0.194-0.409 0.286c-0.139 0.094-0.28 0.183-0.422 0.269-0.145 0.088-0.293 0.172-0.442 0.252-0.148 0.080-0.299 0.157-0.452 0.23-0.155 0.074-0.309 0.145-0.463 0.211-0.159 0.068-0.319 0.132-0.483 0.192s-0.326 0.115-0.491 0.166c-0.165 0.051-0.329 0.097-0.493 0.139-0.165 0.042-0.334 0.080-0.507 0.115s-0.342 0.065-0.512 0.091c-0.17 0.025-0.343 0.047-0.52 0.064-0.354 0.035-0.71 0.052-1.067 0.052-0.177 0-0.355-0.005-0.534-0.013-0.176-0.009-0.352-0.022-0.528-0.039s-0.35-0.039-0.52-0.064c-0.172-0.026-0.344-0.056-0.514-0.091-0.167-0.032-0.333-0.069-0.498-0.111-0.164-0.041-0.328-0.087-0.49-0.138-0.162-0.050-0.321-0.104-0.478-0.161-0.16-0.059-0.319-0.121-0.476-0.188-0.017-0.007-0.028-0.011-0.044-0.020-0.149-0.064-0.299-0.133-0.449-0.205s-0.298-0.148-0.444-0.227c-0.148-0.080-0.294-0.163-0.438-0.25-0.147-0.088-0.292-0.179-0.435-0.274-0.136-0.090-0.271-0.184-0.403-0.283s-0.263-0.2-0.392-0.305c-0.13-0.106-0.257-0.216-0.382-0.329-0.128-0.116-0.25-0.232-0.365-0.347l-0.006-0.006c-0.118-0.116-0.232-0.235-0.342-0.356s-0.219-0.246-0.325-0.375c-0.105-0.128-0.207-0.259-0.306-0.394-0.099-0.134-0.194-0.27-0.286-0.408-0.094-0.138-0.184-0.279-0.27-0.421-0.087-0.143-0.171-0.29-0.253-0.441-0.080-0.148-0.157-0.298-0.231-0.45-0.075-0.155-0.145-0.309-0.212-0.462-0.068-0.158-0.132-0.319-0.192-0.482-0.059-0.161-0.115-0.325-0.166-0.49-0.051-0.164-0.097-0.329-0.139-0.493-0.042-0.165-0.081-0.334-0.116-0.506-0.070-0.341-0.122-0.685-0.155-1.031-0.018-0.176-0.030-0.353-0.039-0.529-0.009-0.179-0.013-0.357-0.013-0.534 0-0.357 0.018-0.709 0.052-1.061 0.017-0.176 0.039-0.349 0.064-0.519 0.025-0.168 0.056-0.339 0.091-0.514 0.032-0.166 0.069-0.331 0.111-0.496s0.088-0.328 0.138-0.491c0.050-0.162 0.104-0.322 0.162-0.48s0.12-0.313 0.186-0.467c0.005-0.014 0.008-0.021 0.014-0.035l0.008-0.013c0.066-0.154 0.136-0.306 0.209-0.457s0.15-0.299 0.231-0.446c0.082-0.15 0.166-0.296 0.251-0.436 0.086-0.142 0.175-0.283 0.268-0.422 0.090-0.136 0.185-0.271 0.284-0.404s0.199-0.262 0.305-0.39c0.106-0.129 0.216-0.256 0.328-0.38 0.113-0.125 0.23-0.247 0.349-0.366l0.005-0.004c0.116-0.118 0.236-0.232 0.356-0.342 0.246-0.223 0.503-0.434 0.77-0.63l0.005-0.003c0.133-0.098 0.268-0.192 0.405-0.283 0.139-0.093 0.28-0.183 0.423-0.27s0.291-0.171 0.442-0.252c0.147-0.079 0.297-0.156 0.45-0.23 0.154-0.074 0.309-0.145 0.464-0.211l0.004-0.002c0.16-0.069 0.32-0.133 0.478-0.191 0.161-0.059 0.325-0.114 0.491-0.166 0.329-0.101 0.663-0.187 1-0.255l0.003-0.001v-0zM11.030 13.082v2.696h2.578c-0.163-0.207-0.331-0.411-0.503-0.61-0.207-0.239-0.425-0.479-0.655-0.72-0.232-0.243-0.476-0.487-0.732-0.731-0.22-0.21-0.449-0.421-0.689-0.634h0zM11.030 16.951v3.972h4.9c-0.032-0.305-0.084-0.612-0.155-0.921-0.077-0.332-0.178-0.666-0.301-1.001-0.126-0.344-0.277-0.689-0.452-1.035-0.17-0.337-0.364-0.675-0.579-1.014h-3.412zM11.030 22.096v3.972h3.566c0.208-0.332 0.393-0.664 0.554-0.995 0.166-0.342 0.306-0.685 0.421-1.027 0.113-0.336 0.202-0.672 0.267-1.009 0.060-0.313 0.1-0.627 0.118-0.941l-4.926-0zM11.030 27.241v2.745c0.25-0.21 0.496-0.425 0.738-0.644 0.271-0.246 0.528-0.493 0.772-0.739s0.475-0.491 0.692-0.736c0.185-0.208 0.361-0.417 0.528-0.627h-2.73zM9.854 29.987v-2.746h-2.731c0.17 0.214 0.345 0.423 0.526 0.627 0.216 0.244 0.446 0.489 0.689 0.734s0.502 0.492 0.773 0.739c0.237 0.215 0.484 0.43 0.742 0.646h0zM9.854 26.069v-3.973h-4.925c0.019 0.313 0.059 0.627 0.119 0.941 0.065 0.337 0.155 0.674 0.268 1.010 0.115 0.342 0.256 0.685 0.422 1.027 0.161 0.333 0.345 0.664 0.551 0.995l3.566-0zM9.854 20.923v-3.972h-3.412c-0.216 0.339-0.409 0.677-0.58 1.014-0.175 0.346-0.326 0.692-0.452 1.035-0.123 0.335-0.224 0.669-0.301 1.001-0.072 0.309-0.124 0.616-0.155 0.921h4.9zM9.854 15.778v-2.696c-0.239 0.212-0.468 0.423-0.687 0.633-0.25 0.239-0.495 0.483-0.733 0.733-0.224 0.234-0.442 0.475-0.655 0.72-0.176 0.204-0.343 0.407-0.503 0.61h2.578zM22.292 16.715h5.189c0.286 0 0.518 0.252 0.518 0.562s-0.232 0.562-0.518 0.562h-4.792c-0.114-0.381-0.247-0.756-0.397-1.125h-0zM20.974 14.277c0.042-0.012 0.086-0.018 0.132-0.018h6.375c0.286 0 0.518 0.252 0.518 0.562s-0.232 0.562-0.518 0.562h-5.822c-0.209-0.38-0.438-0.749-0.684-1.106l0-0zM12.38 6.282h15.557v6.078h-8.587c-1.864-1.808-4.279-3.054-6.97-3.463v-2.616l-0-0zM18.269 1.753c0.488 0 0.884 0.395 0.884 0.882s-0.396 0.882-0.884 0.882c-0.488 0-0.884-0.395-0.884-0.882s0.396-0.882 0.884-0.882zM15.179 1.753c0.488 0 0.884 0.395 0.884 0.882s-0.396 0.882-0.884 0.882c-0.488 0-0.884-0.395-0.884-0.882s0.395-0.882 0.884-0.882zM12.090 1.753c0.488 0 0.884 0.395 0.884 0.882s-0.396 0.882-0.884 0.882c-0.488 0-0.884-0.395-0.884-0.882s0.395-0.882 0.884-0.882z"></path>
</symbol>
<symbol id="icon-phi_white" viewBox="0 0 25 32">
<path fill="#fff" style="fill: var(--color2, #fff)" d="M9.513 31.613h2.605v0.256h-2.605v-0.256z"></path>
<path fill="#fff" style="fill: var(--color2, #fff)" d="M9.23 0.023c-0.015 0.013-0.244 0.041-0.508 0.064-0.541 0.046-1.468 0.194-1.62 0.258-0.055 0.023-0.27 0.086-0.478 0.138-0.453 0.115-0.454 0.116-1.126 0.386-0.716 0.288-0.734 0.297-0.734 0.335 0 0.019-0.026 0.034-0.059 0.034-0.049 0-0.501 0.238-0.588 0.31-0.015 0.012-0.148 0.101-0.296 0.198s-0.334 0.231-0.413 0.299c-0.079 0.068-0.158 0.123-0.176 0.123-0.039 0-0.409 0.307-0.409 0.34 0 0.012-0.067 0.075-0.15 0.14s-0.246 0.217-0.364 0.339c-0.118 0.122-0.244 0.247-0.28 0.278s-0.108 0.116-0.16 0.188c-0.052 0.072-0.113 0.131-0.137 0.131s-0.042 0.018-0.042 0.039c0 0.042-0.339 0.525-0.429 0.612-0.031 0.029-0.056 0.072-0.056 0.095s-0.073 0.155-0.162 0.294c-0.089 0.139-0.162 0.28-0.162 0.314s-0.024 0.062-0.054 0.062-0.054 0.039-0.054 0.086c0 0.082-0.028 0.149-0.191 0.467-0.038 0.073-0.097 0.222-0.133 0.332s-0.083 0.219-0.107 0.243c-0.024 0.024-0.056 0.134-0.072 0.243s-0.056 0.309-0.089 0.442c-0.149 0.609-0.184 1.025-0.183 2.19 0.001 1.155 0.039 1.628 0.18 2.234 0.031 0.134 0.070 0.333 0.087 0.442s0.053 0.239 0.080 0.288c0.027 0.049 0.084 0.2 0.126 0.337s0.101 0.286 0.13 0.332c0.029 0.046 0.082 0.173 0.118 0.282s0.086 0.234 0.113 0.276c0.027 0.042 0.049 0.107 0.049 0.144s0.024 0.067 0.054 0.067 0.054 0.028 0.054 0.062c0 0.057 0.093 0.229 0.313 0.579 0.147 0.234 0.199 0.309 0.227 0.332 0.016 0.012 0.088 0.117 0.162 0.232s0.152 0.21 0.174 0.21c0.022 0 0.041 0.030 0.041 0.066s0.024 0.066 0.054 0.066 0.054 0.030 0.054 0.066 0.023 0.066 0.050 0.066c0.028 0 0.064 0.035 0.081 0.077s0.097 0.137 0.179 0.21c0.082 0.073 0.22 0.212 0.307 0.31 0.189 0.21 0.995 0.874 1.29 1.062 0.115 0.073 0.297 0.196 0.406 0.274 0.214 0.152 0.897 0.545 0.948 0.545 0.017 0 0.078 0.036 0.135 0.079s0.195 0.106 0.308 0.139c0.112 0.033 0.217 0.073 0.232 0.090 0.056 0.062 0.557 0.268 0.651 0.268 0.054 0 0.113 0.020 0.131 0.044s0.080 0.044 0.138 0.044c0.058 0 0.105 0.020 0.105 0.044s0.044 0.044 0.097 0.044c0.053 0 0.12 0.016 0.148 0.037s0.148 0.060 0.267 0.089c0.119 0.029 0.407 0.102 0.64 0.163s0.465 0.11 0.515 0.11c0.050 0 0.113 0.018 0.141 0.040s0.16 0.052 0.294 0.068-0.112 0.025 0.095 0.049c0.208 0.025 0.047 0.069 0.254 0.082s0.104 0.058 0.126 0.086c0.022 0.028 0.040 1.848 0.041 4.044l-0.041 7.603 1.253 0.874 1.376-0.874v-7.609c0-3.145 0.014-4.009 0.067-4.044 0.037-0.025 0.237-0.056 0.445-0.070 0.56-0.035 1.548-0.089 1.691-0.134 0.105-0.033 1.402-0.133 1.576-0.164 0.074-0.013 1.072-0.226 1.132-0.246s0.183-0.030 0.287-0.060c0.177-0.050 0.245-0.071 0.553-0.173 0.234-0.077 1.2-0.465 1.227-0.492 0.015-0.015 0.106-0.056 0.202-0.090s0.175-0.078 0.175-0.096c0-0.018 0.029-0.033 0.064-0.033s0.238-0.11 0.451-0.243c0.213-0.134 0.402-0.243 0.42-0.243 0.038 0 0.721-0.523 0.982-0.752 0.477-0.419 0.592-0.53 0.824-0.796 0.138-0.158 0.269-0.294 0.292-0.302s0.041-0.034 0.041-0.057 0.060-0.095 0.133-0.16c0.073-0.065 0.161-0.173 0.195-0.241s0.079-0.124 0.1-0.124c0.020 0 0.071-0.070 0.111-0.155s0.094-0.155 0.118-0.155c0.024 0 0.044-0.040 0.044-0.088s0.024-0.089 0.054-0.089c0.030 0 0.054-0.040 0.054-0.088s0.024-0.088 0.054-0.088c0.030 0 0.054-0.038 0.054-0.085s0.019-0.091 0.042-0.1c0.023-0.008 0.136-0.194 0.25-0.413s0.253-0.483 0.308-0.586c0.055-0.103 0.1-0.236 0.1-0.296s0.024-0.121 0.054-0.136c0.030-0.015 0.054-0.075 0.054-0.133s0.022-0.116 0.048-0.13c0.026-0.013 0.060-0.089 0.075-0.168s0.065-0.254 0.112-0.388c0.282-0.813 0.406-2.528 0.264-3.65-0.094-0.741-0.261-1.549-0.339-1.637-0.021-0.024-0.055-0.114-0.075-0.199-0.078-0.339-0.1-0.398-0.146-0.398-0.026 0-0.048-0.060-0.048-0.133s-0.028-0.178-0.062-0.232c-0.131-0.208-0.153-0.255-0.153-0.32 0-0.037-0.024-0.067-0.054-0.067s-0.054-0.022-0.054-0.050c0-0.056-0.378-0.712-0.431-0.747-0.018-0.012-0.075-0.096-0.126-0.186s-0.173-0.25-0.271-0.356-0.2-0.223-0.228-0.261c-0.172-0.241-1.465-1.41-1.56-1.41-0.016 0-0.108-0.070-0.203-0.155s-0.192-0.155-0.215-0.155c-0.023 0-0.112-0.056-0.199-0.124s-0.226-0.153-0.309-0.188c-0.084-0.035-0.183-0.088-0.22-0.117s-0.165-0.097-0.283-0.152c-0.118-0.054-0.215-0.115-0.215-0.135s-0.048-0.036-0.108-0.036c-0.059 0-0.108-0.015-0.108-0.033s-0.079-0.060-0.175-0.093-0.278-0.097-0.404-0.144c-0.126-0.046-0.26-0.084-0.299-0.084s-0.095-0.020-0.124-0.044c-0.282-0.232-3.611-0.407-4.52-0.28-0.622 0.087-1.494 0.349-1.555 0.465-0.010 0.019-0.064 0.035-0.121 0.035s-0.103 0.020-0.103 0.044-0.036 0.044-0.081 0.044c-0.045 0-0.081 0.016-0.081 0.035s-0.067 0.067-0.149 0.107c-0.193 0.094-0.984 0.719-0.984 0.779 0 0.025-0.021 0.052-0.047 0.060-0.056 0.018-0.49 0.579-0.594 0.767-0.040 0.073-0.094 0.167-0.121 0.21s-0.048 0.133-0.048 0.201c0 0.068-0.022 0.143-0.048 0.167s-0.062 0.122-0.079 0.219c-0.017 0.097-0.056 0.306-0.087 0.465-0.156 0.805-0.174 1.5-0.195 7.677-0.021 6.37-0.082 6.488-0.082 6.488l0.005-0.044 0.003-0.048 0.003-0.062 0.002-0.041 0.002-0.041 0.002-0.041c0 0 0.003-0.054 0.003-0.078-0.016 0-0.082-0.004-0.127-0.004s-0.124-0.018-0.175-0.041c-0.052-0.023-0.13-0.052-0.175-0.066s-0.251-0.115-0.458-0.226c-0.208-0.11-0.414-0.214-0.458-0.23s-0.108-0.051-0.141-0.076-0.154-0.106-0.269-0.179c-0.54-0.343-1.583-1.311-1.585-1.471-0-0.030-0.025-0.055-0.054-0.055s-0.054-0.030-0.054-0.066c0-0.037-0.018-0.067-0.040-0.067-0.048-0-0.175-0.215-0.175-0.296 0-0.032-0.018-0.058-0.040-0.058s-0.109-0.115-0.194-0.254c-0.084-0.14-0.175-0.289-0.202-0.331s-0.049-0.107-0.049-0.144c0-0.037-0.024-0.107-0.054-0.155s-0.078-0.127-0.108-0.176c-0.030-0.048-0.054-0.128-0.054-0.177s-0.024-0.089-0.054-0.089-0.054-0.056-0.054-0.125c0-0.069-0.018-0.14-0.040-0.158-0.041-0.033-0.247-0.704-0.341-1.11-0.253-1.087-0.345-2.885-0.226-4.402 0.080-1.024 0.181-1.585 0.417-2.323 0.243-0.761 0.255-0.791 0.452-1.184 0.064-0.127 0.137-0.274 0.191-0.387 0.018-0.037 0.093-0.146 0.167-0.243s0.177-0.252 0.228-0.343 0.112-0.166 0.134-0.166c0.023 0 0.041-0.030 0.041-0.066s0.024-0.066 0.054-0.066c0.030 0 0.054-0.020 0.054-0.044 0-0.1 0.908-0.884 1.318-1.137 0.15-0.093 0.281-0.183 0.29-0.202s0.062-0.033 0.117-0.033c0.054 0 0.107-0.015 0.117-0.034 0.029-0.055 0.807-0.364 0.916-0.364 0.055 0 0.099-0.020 0.099-0.044s0.037-0.044 0.082-0.044c0.045 0 0.178-0.025 0.297-0.055l0.215-0.055v-0.731h-0.18c-0.099 0-0.192 0.010-0.208 0.023zM14.751 2.28c0.445-0.065 1.791 0.095 1.98 0.181 0.343 0.156 0.786 0.304 0.812 0.326 0.015 0.012 0.094 0.051 0.177 0.086 0.269 0.114 1.16 0.905 1.387 1.232 0.045 0.064 0.122 0.155 0.173 0.202s0.13 0.151 0.177 0.232c0.047 0.081 0.109 0.159 0.137 0.174s0.052 0.064 0.052 0.109c0 0.045 0.018 0.089 0.040 0.097 0.058 0.021 0.283 0.388 0.283 0.461 0 0.034 0.024 0.062 0.054 0.062s0.054 0.040 0.054 0.089c0 0.049 0.021 0.124 0.048 0.166 0.232 0.374 0.45 0.95 0.528 1.393 0.016 0.091 0.051 0.177 0.077 0.191s0.048 0.119 0.048 0.234c0 0.115 0.022 0.229 0.048 0.252 0.144 0.126 0.2 3.411 0.069 4.046-0.038 0.182-0.082 0.421-0.098 0.531s-0.051 0.218-0.078 0.241c-0.027 0.023-0.049 0.107-0.049 0.185s-0.024 0.156-0.054 0.171c-0.030 0.015-0.054 0.092-0.054 0.171s-0.021 0.162-0.047 0.185c-0.026 0.023-0.090 0.151-0.141 0.285s-0.115 0.262-0.141 0.285c-0.026 0.023-0.047 0.078-0.047 0.122s-0.024 0.080-0.054 0.080c-0.030 0-0.054 0.036-0.054 0.080 0 0.099-0.12 0.318-0.175 0.318-0.022 0-0.040 0.040-0.040 0.089s-0.024 0.088-0.054 0.088c-0.030 0-0.054 0.040-0.054 0.089s-0.024 0.088-0.054 0.088c-0.030 0-0.054 0.020-0.054 0.044 0 0.038-0.349 0.469-0.43 0.531-0.016 0.012-0.1 0.1-0.186 0.195-0.224 0.246-0.95 0.822-1.036 0.822-0.040 0-0.073 0.018-0.073 0.041s-0.080 0.081-0.177 0.13c-0.097 0.049-0.249 0.141-0.337 0.203s-0.19 0.113-0.227 0.113c-0.037 0-0.067 0.020-0.067 0.044s-0.036 0.044-0.079 0.044c-0.044 0-0.159 0.036-0.256 0.081-0.428 0.195-1.396 0.353-1.622 0.407-0.133 0.032-0.819 0.108-0.849 0.123s-0.271 0.009-0.404 0.041c-0.133 0.032-0.29-0.019-0.364 0s-0.303-0.028-0.525 0c-0.222 0.028-0.438-0.064-0.525-0.041-0.115 0.030-0.333-0.002-0.364-0.041-0.062-0.079 0.054-11.738 0.117-12.582 0.092-1.246 0.368-1.942 0.53-2.024 0.009 0.065-0.006-0.043 0 0 0-0.048 0.265-0.22 0.566-0.422 0.169-0.113 0.88-0.282 1.057-0.252 0.045 0.008 0.223-0.016 0.357 0z"></path>
</symbol>
<symbol id="icon-phi_logo_black" viewBox="0 0 69 32">
<path d="M2.268 16.728l11.045 4.761v1.999l-13.123-6.014v-1.539l13.123-5.998v1.999l-11.045 4.792zM43.866 28.885h-1.537l8.576-22.301h1.523l-8.562 22.301zM67.215 16.664l-11.283-4.808v-1.952l13.409 5.998v1.539l-13.409 6.014v-1.968l11.283-4.824z"></path>
<path d="M30.014 31.459h-2.598v0.289h2.598v-0.289z"></path>
<path d="M27.095 0.207c-0.015 0.013-0.243 0.041-0.506 0.063-0.54 0.046-1.464 0.193-1.615 0.256-0.055 0.023-0.269 0.085-0.476 0.137-0.452 0.114-0.453 0.114-1.123 0.382-0.714 0.286-0.733 0.294-0.733 0.332 0 0.018-0.026 0.033-0.058 0.033-0.049 0-0.499 0.236-0.587 0.307-0.015 0.012-0.148 0.1-0.296 0.196s-0.333 0.229-0.411 0.296c-0.078 0.067-0.157 0.122-0.176 0.122-0.039 0-0.408 0.304-0.408 0.337 0 0.012-0.067 0.075-0.149 0.139s-0.245 0.215-0.363 0.335c-0.118 0.12-0.243 0.245-0.279 0.276s-0.108 0.115-0.159 0.186c-0.052 0.071-0.113 0.13-0.136 0.13s-0.042 0.017-0.042 0.038c0 0.042-0.338 0.52-0.428 0.606-0.031 0.029-0.056 0.072-0.056 0.094s-0.073 0.154-0.161 0.291c-0.089 0.138-0.161 0.278-0.161 0.311s-0.024 0.061-0.054 0.061-0.054 0.039-0.054 0.086c0 0.081-0.028 0.148-0.191 0.462-0.038 0.072-0.097 0.22-0.132 0.329s-0.083 0.217-0.107 0.241c-0.023 0.024-0.056 0.133-0.072 0.241s-0.056 0.306-0.089 0.438c-0.148 0.603-0.183 1.015-0.183 2.17 0.001 1.144 0.038 1.613 0.179 2.214 0.031 0.133 0.070 0.33 0.087 0.438s0.053 0.237 0.080 0.285c0.027 0.048 0.084 0.199 0.126 0.334s0.101 0.284 0.13 0.329c0.029 0.045 0.082 0.171 0.117 0.28s0.086 0.232 0.113 0.273c0.027 0.042 0.049 0.106 0.049 0.142s0.024 0.066 0.054 0.066 0.054 0.028 0.054 0.062c0 0.056 0.093 0.227 0.312 0.574 0.147 0.232 0.198 0.306 0.227 0.329 0.016 0.012 0.088 0.116 0.161 0.23s0.151 0.208 0.173 0.208c0.022 0 0.040 0.030 0.040 0.066s0.024 0.066 0.054 0.066 0.054 0.030 0.054 0.066 0.023 0.066 0.050 0.066c0.027 0 0.064 0.034 0.081 0.077s0.097 0.136 0.178 0.208c0.081 0.072 0.219 0.21 0.306 0.307 0.188 0.208 0.992 0.866 1.287 1.052 0.114 0.072 0.297 0.194 0.405 0.271 0.213 0.151 0.894 0.54 0.946 0.54 0.017 0 0.078 0.035 0.134 0.078s0.195 0.105 0.307 0.138c0.112 0.033 0.216 0.073 0.231 0.089 0.056 0.061 0.555 0.265 0.649 0.265 0.054 0 0.113 0.020 0.131 0.044s0.080 0.044 0.138 0.044c0.057 0 0.104 0.020 0.104 0.044s0.044 0.044 0.097 0.044c0.053 0 0.12 0.016 0.148 0.036s0.148 0.059 0.266 0.088c0.118 0.028 0.406 0.101 0.639 0.161s0.464 0.109 0.514 0.109c0.049 0 0.113 0.018 0.141 0.039s0.16 0.052 0.293 0.067c0.133 0.015-0.112 0.024 0.095 0.049s0.047 0.068 0.254 0.081c0.207 0.013 0.104 0.057 0.125 0.085s0.040 1.831 0.041 4.008l-0.041 7.534 1.25 0.866 1.373-0.866v-7.54c0-3.116 0.014-3.972 0.067-4.008 0.037-0.025 0.237-0.056 0.444-0.069 0.558-0.035 1.544-0.088 1.687-0.132 0.105-0.033 1.398-0.132 1.572-0.163 0.074-0.013 1.069-0.224 1.128-0.244s0.183-0.030 0.286-0.059c0.176-0.049 0.245-0.071 0.551-0.171 0.234-0.077 1.197-0.461 1.223-0.488 0.015-0.015 0.106-0.055 0.202-0.089s0.175-0.077 0.175-0.095 0.029-0.033 0.063-0.033c0.035 0 0.237-0.109 0.45-0.241s0.401-0.241 0.419-0.241c0.038 0 0.719-0.519 0.979-0.745 0.476-0.415 0.591-0.525 0.822-0.789 0.137-0.157 0.268-0.292 0.291-0.3s0.041-0.034 0.041-0.057c0-0.023 0.060-0.094 0.132-0.158s0.16-0.172 0.195-0.239c0.034-0.068 0.079-0.123 0.1-0.123s0.071-0.069 0.111-0.153c0.041-0.085 0.093-0.153 0.117-0.153s0.044-0.039 0.044-0.088 0.024-0.088 0.054-0.088c0.030 0 0.054-0.039 0.054-0.088s0.024-0.088 0.054-0.088 0.054-0.038 0.054-0.084c0-0.046 0.019-0.091 0.042-0.099s0.135-0.192 0.249-0.409c0.114-0.217 0.252-0.478 0.307-0.581s0.1-0.234 0.1-0.293c0-0.059 0.024-0.12 0.054-0.135s0.054-0.074 0.054-0.132 0.021-0.115 0.048-0.129c0.026-0.013 0.060-0.088 0.075-0.167s0.065-0.251 0.111-0.384c0.281-0.806 0.405-2.505 0.263-3.617-0.093-0.734-0.26-1.535-0.338-1.622-0.021-0.024-0.055-0.113-0.075-0.197-0.078-0.336-0.1-0.395-0.145-0.395-0.026 0-0.048-0.059-0.048-0.132s-0.028-0.176-0.062-0.23c-0.13-0.206-0.153-0.252-0.153-0.317 0-0.036-0.024-0.066-0.054-0.066s-0.054-0.022-0.054-0.049c0-0.055-0.378-0.705-0.429-0.74-0.018-0.012-0.075-0.095-0.126-0.185s-0.173-0.248-0.271-0.352c-0.098-0.104-0.2-0.221-0.227-0.258-0.171-0.238-1.461-1.397-1.555-1.397-0.016 0-0.107-0.069-0.202-0.153s-0.191-0.153-0.214-0.153-0.112-0.055-0.198-0.123c-0.087-0.067-0.226-0.151-0.309-0.186s-0.182-0.087-0.22-0.116-0.164-0.097-0.282-0.151c-0.118-0.054-0.214-0.114-0.214-0.134s-0.048-0.036-0.108-0.036c-0.059 0-0.107-0.015-0.107-0.033s-0.079-0.060-0.175-0.092c-0.096-0.032-0.277-0.096-0.403-0.142s-0.26-0.083-0.299-0.083c-0.039 0-0.094-0.019-0.123-0.043-0.282-0.23-3.601-0.404-4.507-0.277-0.62 0.087-1.49 0.345-1.551 0.461-0.010 0.019-0.064 0.034-0.121 0.034s-0.103 0.020-0.103 0.044c0 0.024-0.036 0.044-0.081 0.044s-0.081 0.015-0.081 0.034c0 0.019-0.067 0.067-0.148 0.106-0.193 0.093-0.981 0.713-0.981 0.772 0 0.025-0.021 0.052-0.047 0.060-0.055 0.017-0.489 0.574-0.592 0.76-0.040 0.072-0.094 0.166-0.121 0.208s-0.047 0.132-0.047 0.2c0 0.068-0.022 0.142-0.048 0.165s-0.062 0.121-0.079 0.217c-0.017 0.096-0.056 0.304-0.087 0.46-0.156 0.798-0.173 1.486-0.194 7.607-0.021 6.312-0.082 6.429-0.082 6.429l0.005-0.043 0.003-0.048 0.003-0.062 0.002-0.041 0.002-0.041 0.002-0.041c0 0 0.003-0.054 0.003-0.078-0.016 0-0.082-0.004-0.127-0.004s-0.123-0.018-0.175-0.041c-0.051-0.022-0.13-0.052-0.174-0.066s-0.25-0.114-0.457-0.223c-0.207-0.109-0.413-0.212-0.457-0.228s-0.108-0.050-0.141-0.076c-0.033-0.026-0.153-0.105-0.268-0.178-0.538-0.339-1.579-1.299-1.58-1.458-0-0.030-0.025-0.055-0.054-0.055s-0.054-0.030-0.054-0.066c0-0.036-0.018-0.066-0.040-0.066-0.048-0-0.175-0.213-0.175-0.293 0-0.031-0.018-0.057-0.040-0.057s-0.109-0.113-0.193-0.252c-0.084-0.139-0.175-0.286-0.202-0.328s-0.049-0.106-0.049-0.143c0-0.037-0.024-0.106-0.054-0.154s-0.078-0.126-0.108-0.174c-0.030-0.048-0.054-0.127-0.054-0.175s-0.024-0.088-0.054-0.088-0.054-0.056-0.054-0.124c0-0.068-0.018-0.139-0.040-0.157-0.041-0.033-0.246-0.698-0.34-1.1-0.252-1.077-0.344-2.859-0.225-4.362 0.080-1.015 0.181-1.571 0.416-2.302 0.243-0.754 0.254-0.783 0.451-1.173 0.064-0.126 0.136-0.272 0.191-0.384 0.018-0.036 0.093-0.145 0.167-0.241s0.177-0.249 0.227-0.34 0.111-0.164 0.134-0.164c0.023 0 0.041-0.030 0.041-0.066s0.024-0.066 0.054-0.066c0.030 0 0.054-0.019 0.054-0.043 0-0.099 0.906-0.876 1.315-1.127 0.149-0.092 0.28-0.182 0.29-0.2s0.062-0.033 0.116-0.033c0.054 0 0.107-0.015 0.116-0.034 0.029-0.054 0.805-0.361 0.914-0.361 0.055 0 0.099-0.020 0.099-0.044s0.037-0.044 0.082-0.044c0.045 0 0.178-0.025 0.296-0.054l0.214-0.054v-0.724h-0.179c-0.099 0-0.192 0.010-0.207 0.023zM32.601 2.444c0.443-0.064 1.786 0.094 1.975 0.18 0.342 0.154 0.784 0.301 0.81 0.323 0.015 0.012 0.094 0.050 0.176 0.085 0.268 0.113 1.157 0.897 1.383 1.221 0.044 0.063 0.122 0.153 0.172 0.2s0.13 0.15 0.176 0.23 0.108 0.157 0.137 0.172c0.029 0.014 0.052 0.063 0.052 0.108s0.018 0.088 0.041 0.096c0.058 0.021 0.282 0.384 0.282 0.457 0 0.034 0.024 0.062 0.054 0.062s0.054 0.040 0.054 0.088c0 0.049 0.021 0.123 0.047 0.164 0.231 0.37 0.449 0.941 0.526 1.381 0.016 0.091 0.051 0.176 0.077 0.189s0.048 0.118 0.048 0.232 0.021 0.227 0.048 0.25c0.144 0.125 0.2 3.38 0.069 4.009-0.038 0.181-0.082 0.418-0.098 0.526s-0.051 0.216-0.078 0.239c-0.027 0.023-0.049 0.106-0.049 0.184s-0.024 0.154-0.054 0.169c-0.030 0.015-0.054 0.091-0.054 0.169s-0.021 0.161-0.047 0.184c-0.026 0.023-0.089 0.15-0.141 0.283s-0.115 0.26-0.141 0.283c-0.026 0.023-0.047 0.077-0.047 0.121s-0.024 0.079-0.054 0.079c-0.029 0-0.054 0.036-0.054 0.079 0 0.098-0.12 0.315-0.175 0.315-0.022 0-0.040 0.040-0.040 0.088s-0.024 0.088-0.054 0.088c-0.029 0-0.054 0.040-0.054 0.088s-0.024 0.088-0.054 0.088c-0.029 0-0.054 0.020-0.054 0.044 0 0.038-0.348 0.464-0.429 0.526-0.016 0.012-0.1 0.099-0.186 0.194-0.223 0.244-0.947 0.815-1.034 0.815-0.040 0-0.073 0.018-0.073 0.040s-0.079 0.080-0.177 0.129c-0.097 0.049-0.248 0.139-0.336 0.201s-0.19 0.112-0.227 0.112c-0.037 0-0.067 0.020-0.067 0.044s-0.036 0.044-0.079 0.044c-0.044 0-0.158 0.036-0.255 0.080-0.426 0.193-1.392 0.35-1.617 0.403-0.133 0.031-0.817 0.107-0.846 0.122s-0.27 0.009-0.403 0.041c-0.133 0.031-0.289-0.019-0.363 0s-0.302-0.028-0.524 0c-0.222 0.028-0.437-0.063-0.524-0.041-0.114 0.030-0.332-0.002-0.363-0.041-0.061-0.079 0.054-11.632 0.116-12.468 0.092-1.234 0.367-1.924 0.529-2.005 0.009 0.064-0.006-0.042 0 0 0-0.048 0.264-0.218 0.565-0.418 0.168-0.112 0.877-0.28 1.054-0.25 0.044 0.007 0.223-0.016 0.356 0z"></path>
</symbol>
<symbol id="icon-camera" viewBox="0 0 30 28">
<path d="M15 10.5c2.484 0 4.5 2.016 4.5 4.5s-2.016 4.5-4.5 4.5-4.5-2.016-4.5-4.5 2.016-4.5 4.5-4.5zM26 4c2.203 0 4 1.797 4 4v14c0 2.203-1.797 4-4 4h-22c-2.203 0-4-1.797-4-4v-14c0-2.203 1.797-4 4-4h3.5l0.797-2.125c0.391-1.031 1.609-1.875 2.703-1.875h8c1.094 0 2.312 0.844 2.703 1.875l0.797 2.125h3.5zM15 22c3.859 0 7-3.141 7-7s-3.141-7-7-7-7 3.141-7 7 3.141 7 7 7z"></path>
</symbol>
<symbol id="icon-brush" viewBox="0 0 20 20">
<path d="M2.763 13.563c-1.515 1.488-0.235 3.016-2.247 5.279-0.908 1.023 3.738 0.711 6.039-1.551 0.977-0.961 0.701-2.359-0.346-3.389-1.047-1.028-2.47-1.3-3.446-0.339zM19.539 0.659c-0.776-0.764-9.379 6.129-11.939 8.646-1.271 1.25-1.695 1.92-2.084 2.42-0.17 0.219 0.055 0.285 0.154 0.336 0.504 0.258 0.856 0.496 1.311 0.943s0.699 0.793 0.959 1.289c0.053 0.098 0.121 0.318 0.342 0.152 0.51-0.383 1.191-0.801 2.462-2.049 2.561-2.516 9.573-10.974 8.795-11.737z"></path>
</symbol>
<symbol id="icon-facebook" viewBox="0 0 20 20">
<path d="M17 1h-14c-1.1 0-2 0.9-2 2v14c0 1.101 0.9 2 2 2h7v-7h-2v-2.475h2v-2.050c0-2.164 1.212-3.684 3.766-3.684l1.803 0.002v2.605h-1.197c-0.994 0-1.372 0.746-1.372 1.438v1.69h2.568l-0.568 2.474h-2v7h4c1.1 0 2-0.899 2-2v-14c0-1.1-0.9-2-2-2z"></path>
</symbol>
<symbol id="icon-github" viewBox="0 0 32 32">
<path d="M16 0.395c-8.836 0-16 7.163-16 16 0 7.069 4.585 13.067 10.942 15.182 0.8 0.148 1.094-0.347 1.094-0.77 0-0.381-0.015-1.642-0.022-2.979-4.452 0.968-5.391-1.888-5.391-1.888-0.728-1.849-1.776-2.341-1.776-2.341-1.452-0.993 0.11-0.973 0.11-0.973 1.606 0.113 2.452 1.649 2.452 1.649 1.427 2.446 3.743 1.739 4.656 1.33 0.143-1.034 0.558-1.74 1.016-2.14-3.554-0.404-7.29-1.777-7.29-7.907 0-1.747 0.625-3.174 1.649-4.295-0.166-0.403-0.714-2.030 0.155-4.234 0 0 1.344-0.43 4.401 1.64 1.276-0.355 2.645-0.532 4.005-0.539 1.359 0.006 2.729 0.184 4.008 0.539 3.054-2.070 4.395-1.64 4.395-1.64 0.871 2.204 0.323 3.831 0.157 4.234 1.026 1.12 1.647 2.548 1.647 4.295 0 6.145-3.743 7.498-7.306 7.895 0.574 0.497 1.085 1.47 1.085 2.963 0 2.141-0.019 3.864-0.019 4.391 0 0.426 0.288 0.925 1.099 0.768 6.354-2.118 10.933-8.113 10.933-15.18 0-8.837-7.164-16-16-16z"></path>
</symbol>
<symbol id="icon-mail" viewBox="0 0 50 50">
    <path d="M 0 7 L 0 9.78125 C 3.012 12.40325 20.28925 27.46425 21.65625 28.65625 C 23.06225 29.88125 24.466 30 25 30 C 25.534 30 26.93775 29.88125 28.34375 28.65625 C 29.76175 27.42025 48.046 11.48225 50 9.78125 L 50 7 L 0 7 z M 0 12.4375 L 0 37.53125 L 15.125 25.59375 C 10.224 21.32675 3.231 15.2505 0 12.4375 z M 50 12.4375 C 46.949 15.0925 39.846 21.26675 34.875 25.59375 L 50 37.5 L 50 12.4375 z M 16.65625 26.9375 L 0 40.0625 L 0 43 L 50 43 L 50 40.03125 L 33.34375 26.9375 C 31.40675 28.6235 30.01025 29.84725 29.65625 30.15625 C 27.73925 31.82525 25.759 32 25 32 C 24.241 32 22.26075 31.82625 20.34375 30.15625 C 19.99275 29.85025 18.59725 28.6275 16.65625 26.9375 z"/>
</symbol>
<symbol id="icon-linkedin" viewBox="0 0 20 20">
<path d="M5 3c0 1.062-0.71 1.976-2.001 1.976-1.215 0-1.999-0.862-1.999-1.924 0-1.090 0.76-2.052 2-2.052s1.976 0.91 2 2zM1 19v-13h4v13h-4z"></path>
<path d="M7 10.444c0-1.545-0.051-2.836-0.102-3.951h3.594l0.178 1.723h0.076c0.506-0.811 1.746-2 3.822-2 2.532 0 4.432 1.695 4.432 5.342v7.442h-4v-6.861c0-1.594-0.607-2.81-2-2.81-1.062 0-1.594 0.86-1.873 1.569-0.102 0.254-0.127 0.608-0.127 0.963v7.139h-4v-8.556z"></path>
</symbol>
<symbol id="icon-phone" viewBox="0 0 24 24">
<path d="M17.016 18.984v-13.969h-10.031v13.969h10.031zM17.016 1.031q0.797 0 1.383 0.586t0.586 1.383v18q0 0.797-0.586 1.406t-1.383 0.609h-10.031q-0.797 0-1.383-0.609t-0.586-1.406v-18q0-0.797 0.586-1.406t1.383-0.609z"></path>
</symbol>
</defs>
</svg>